<?xml version="1.0" encoding="UTF-8"?>
<svg width="1860px" height="60px" viewBox="0 0 1860 60" version="1.1" xmlns="http://www.w3.org/2000/svg" xmlns:xlink="http://www.w3.org/1999/xlink">
    <!-- Generator: Sketch 46.2 (44496) - http://www.bohemiancoding.com/sketch -->
    <title>icons</title>
    <desc>Created with Sketch.</desc>
    <defs></defs>
    <g id="POI-2017" stroke="none" stroke-width="1" fill="none" fill-rule="evenodd">
        <g id="icons" fill="#FFFFFF">
            <g id="dining" transform="translate(25.000000, 21.000000)">
                <g id="icon">
                    <path d="M9.35459113,0 C8.27727702,0 7.37905604,0.700205067 7.30269545,1.603162 L6.75321408,8.05020837 C6.72881018,8.33134881 6.84413829,8.60984322 7.07322006,8.81590263 C7.30151461,9.02196203 7.6215206,9.14169478 7.95648381,9.14169478 L7.98875994,9.14169478 L7.80100735,14.1893233 C7.79274151,14.405636 7.88956989,14.6087187 8.06866303,14.7631805 C8.24736256,14.9186346 8.49336962,15 8.75039779,15 L9.53840761,15 C10.0626979,15 10.5,14.6527089 10.5,14.2114838 L10.5,0.957200503 C10.5,0.428656479 9.98397559,0 9.35459113,0" id="Fill-1"></path>
                    <path d="M4.16844106,0 L4.09087452,0 C3.90570342,0 3.7634981,0.12080759 3.7634981,0.282656664 L3.7634981,3.12577229 C3.7634981,3.37797882 3.52053232,3.58417917 3.23117871,3.58417917 L3.15323194,3.58417917 C2.86387833,3.58417917 2.61863118,3.37797882 2.61863118,3.12577229 L2.61863118,0.282656664 C2.61863118,0.12113857 2.47908745,0 2.29353612,0 L2.2148289,0 C2.02927757,0 1.88174905,0.12080759 1.88174905,0.282656664 L1.88174905,3.12577229 C1.88174905,3.37797882 1.64448669,3.58417917 1.35475285,3.58417917 L1.27718631,3.58417917 C0.9878327,3.58417917 0.763498099,3.37797882 0.763498099,3.12577229 L0.763498099,0.282656664 C0.763498099,0.12113857 0.602661597,0 0.417110266,0 L0.339163498,0 C0.153992395,0 0,0.12080759 0,0.282656664 L0,4.5830759 C0,5.11198147 0.495437262,5.53033981 1.10304183,5.53033981 L1.24980989,5.53033981 L0.939543726,14.1864519 C0.931558935,14.4025816 1.02471483,14.6071271 1.19771863,14.7623566 C1.37034221,14.9175861 1.60836502,15 1.85703422,15 L2.58859316,15 C2.8365019,15 3.07452471,14.9175861 3.24752852,14.7623566 C3.42053232,14.6067961 3.51330798,14.3999338 3.50608365,14.1838041 L3.19581749,5.53000883 L3.40494297,5.53000883 C4.01292776,5.53000883 4.5,5.11131951 4.5,4.58274492 L4.5,0.282325684 C4.49923954,0.120476611 4.35475285,0 4.16844106,0" id="Fill-4"></path>
                </g>
            </g>
            <g id="shopping" transform="translate(82.000000, 20.000000)">
                <path d="M2.50933546,14.4632062 C2.59555429,14.8196391 2.96712851,15.1111764 3.33332711,15.1111764 L12.666643,15.1111764 C13.0328715,15.1111764 13.4044158,14.8196391 13.4906347,14.4632062 L14.8444227,8.88899566 L1.15554743,8.88899566 L2.50933546,14.4632062 Z M8.68265787,6.22143803 L13.1759822,1.72811368 C13.3848546,1.52010738 13.3866465,1.18323573 13.1777741,0.973437556 L12.3599943,0.155657721 C12.1519879,-0.0523187163 11.8141905,-0.0514526456 11.6044222,0.155657721 L7.11109784,4.649878 C6.67731585,5.08365999 6.67731585,5.78765605 7.11109784,6.22143803 C7.54487982,6.65432408 8.24797995,6.65522002 8.68265787,6.22143803 L8.68265787,6.22143803 Z M15.4657538,5.33341687 L11.0151058,5.33341687 L9.40442331,6.94409941 C9.00176014,7.34676258 8.46575194,7.56808845 7.89686292,7.56808845 C7.32621189,7.56808845 6.79109963,7.34586664 6.38754053,6.94320347 C5.98577329,6.54143624 5.76355149,6.00632398 5.76265555,5.43653902 C5.76265555,5.40186633 5.77155518,5.36811943 5.77245111,5.33341687 L0.533320392,5.33341687 C0.238229184,5.33341687 0,5.57167592 0,5.86676713 L0,8.00007856 L16,8.00007856 L16,5.86676713 C16,5.57167592 15.7599789,5.33341687 15.4657538,5.33341687 L15.4657538,5.33341687 Z" id="Shopping"></path>
            </g>
            <g id="zoo" transform="translate(140.000000, 20.000000)">
                <path d="M19.0206151,14.3445788 C17.6651681,13.2856256 18.8935275,10.7018523 18.8935275,10.7018523 C21.3502131,4.43306702 17.0997439,1.2750889 16.3730009,0.863490154 C14.8933712,0.0254382623 11.3739362,-0.795712631 9.59718564,1.45948145 C9.09471101,2.0972631 9.26266469,2.8893654 9.4939311,3.44297215 C10.0892622,4.86757455 11.6895426,6.14851844 13.0611973,6.29808568 C13.45233,6.3417576 13.7372373,6.25210308 13.9301793,6.02737261 C14.5433357,5.31360248 14.2200381,3.43564399 14.0433368,2.77218074 C13.9953736,2.5915183 14.1028864,2.40587138 14.283945,2.35754509 C14.3361004,2.34368099 14.3875626,2.34585963 14.4371103,2.35592761 C14.5593784,2.38071794 14.6644155,2.46911809 14.6985476,2.59812025 C14.7726545,2.87741586 15.3971002,5.36024528 14.4444384,6.46914228 C14.2343313,6.71367861 13.8607268,6.98600917 13.239582,6.98600917 C13.1598305,6.98600917 13.0757876,6.9813878 12.9877506,6.97178196 C11.3696119,6.79508069 9.56047879,5.35988217 8.86856112,3.70401337 C8.69446762,3.28743015 8.60761893,2.88451296 8.59824416,2.50440553 C4.71840852,2.50440553 0.289257399,4.66730431 0.000752060028,8.55776909 C-0.00849067393,8.68261202 0.0682570277,8.79771706 0.187059169,8.8370647 C0.30589432,8.87677545 0.436579976,8.83049576 0.503754846,8.72496354 C0.742019324,8.35086389 1.03867807,7.94580107 1.33338925,7.69070161 C1.37567476,8.30339585 1.56178381,8.888791 1.88333192,9.42318608 C2.5272864,10.4933626 2.8711161,11.7223492 2.8711161,12.9711746 L2.87725592,15.2763784 C2.91006762,15.558843 3.57736001,15.7846628 4.40158081,15.7846628 C5.22609869,15.7846628 5.89339108,15.558843 5.92623579,15.2763784 L5.93237561,13.7802769 C5.93237561,13.3875267 6.09617006,13.0122717 6.38408122,12.7448266 C6.67195937,12.4774475 7.05771148,12.3702318 7.45056068,12.3702318 C7.69420575,12.3702318 8.19278523,12.3705949 8.22193285,12.3702318 C8.59883834,12.3663036 8.96184671,12.5389777 9.22952289,12.8044092 C9.49756218,13.0698077 9.64815272,13.4311326 9.64815272,13.8080711 L9.65432555,15.2763454 C9.68710424,15.55881 10.3543636,15.7845968 11.1786504,15.7845968 C12.0031683,15.7845968 12.6704607,15.55881 12.7032724,15.2763454 L12.7094452,13.9841122 C12.7094452,10.1482125 15.5204247,8.43645821 15.8544175,8.23351418 C17.5119698,7.22645229 16.775654,10.278205 16.775654,10.278205 C15.6744153,13.7091078 18.215771,15.2763454 18.215771,15.2763454 L18.2271924,15.2631415 C18.2351147,15.2712289 18.2373594,15.2843008 18.2465691,15.2912328 C18.4093072,15.4139631 18.7056029,15.2962173 18.9077217,15.0274848 C19.0941938,14.7808358 19.1282599,14.4997907 19.0076752,14.3594662 L19.0206151,14.3445788 Z" id="Fill-1"></path>
            </g>
            <g id="theme-parks-" transform="translate(201.000000, 19.000000)">
                <path d="M15.2322109,10.2120752 C15.4357879,10.3139268 15.5948759,10.3075216 15.7094116,10.1930174 C15.8239473,10.0784817 15.7666479,9.97031957 15.5376396,9.86849952 L12.3308284,8.37962968 C12.1272514,8.27784118 11.8981799,8.26509395 11.6436771,8.3414511 L10.5365615,8.68505829 C10.281964,8.76138389 10.0847291,8.79956247 9.94485667,8.79956247 C9.80482649,8.79956247 9.73484295,8.67234262 9.73484295,8.41780826 L9.73484295,4.94381018 C9.73484295,4.71473872 9.86212591,4.60023454 10.1166287,4.60023454 L18.400812,4.60023454 C18.6553463,4.60023454 18.7825662,4.47298314 18.7825662,4.21844877 L18.7825662,3.03500755 C18.7825662,2.80593609 18.668062,2.65325333 18.4389905,2.57689618 L9.69669592,0.0572678653 C9.46765601,-0.0190892884 9.22586888,-0.0190892884 8.97133451,0.0572678653 L0.343575639,2.57689618 C0.114504178,2.65325333 0,2.80593609 0,3.03500755 L0,4.21844877 C0,4.47298314 0.127219853,4.60023454 0.381754216,4.60023454 L8.55140172,4.60023454 C8.80593609,4.60023454 8.93315594,4.71473872 8.93315594,4.94381018 L8.93315594,8.41780826 C8.93315594,8.67234262 8.80593609,8.79956247 8.55140172,8.79956247 L8.39871897,8.79956247 C8.16964751,8.79956247 7.96603895,8.7105212 7.78789329,8.53234399 L5.8027335,6.66171993 C5.62455629,6.48357427 5.42097929,6.39450144 5.19193938,6.39450144 L4.27568508,6.39450144 C4.02118227,6.39450144 3.836663,6.31177068 3.72212727,6.14634069 C3.60762309,5.98091071 3.44219311,5.8982115 3.22583733,5.8982115 C3.00951309,5.8982115 2.97770813,5.98728433 3.13042244,6.16542998 L3.13042244,6.20360856 C3.25764229,6.40721712 3.25764229,6.61082568 3.13042244,6.81443424 L2.13784254,8.3414511 C2.01059114,8.54505966 2.03602249,8.73595254 2.2141997,8.9140982 L2.2905253,8.95227678 C2.46870251,9.13045399 2.67231107,9.15585379 2.90135097,9.02863393 L3.93210945,8.49416541 C4.16118091,8.366914 4.33935812,8.40509258 4.46657797,8.60870114 L5.65005075,10.402968 C5.7772706,10.6065766 5.73909202,10.7847223 5.53551502,10.9374366 L5.03922507,11.3955479 C4.83564806,11.5482622 4.75929091,11.7391236 4.81015361,11.968195 L5.49733644,14.9459032 C5.54819914,15.2004375 5.70091345,15.2895104 5.95544781,15.2131532 L6.41355918,15.0986175 C6.66806199,15.0477232 6.76988205,14.9077246 6.71895624,14.6786847 L6.2226663,12.6553779 C6.17183515,12.4008435 6.2736552,12.2481292 6.52809491,12.1972349 L7.67335756,11.8918379 C7.92786037,11.8154807 8.16964751,11.7773022 8.39871897,11.7773022 L8.55140172,11.7773022 C8.80593609,11.7773022 8.93315594,11.9045536 8.93315594,12.1590564 L8.93315594,15.7094432 C8.93315594,15.963946 8.80593609,16.0911974 8.55140172,16.0911974 L0.381754216,16.0911974 C0.127219853,16.0911974 0,16.2057331 0,16.434773 L0,17.6182458 C0,17.8727486 0.127219853,18 0.381754216,18 L18.2481292,18 C18.502632,18 18.6298834,17.8727486 18.6298834,17.6182458 L18.6298834,16.434773 C18.6298834,16.2057331 18.502632,16.0911974 18.2481292,16.0911974 L10.1166287,16.0911974 C9.86212591,16.0911974 9.73484295,15.9766616 9.73484295,15.7475902 L9.73484295,12.1590564 C9.73484295,11.9045536 9.86212591,11.7773022 10.1166287,11.7773022 L10.5365615,11.7773022 C10.7910959,11.7773022 11.0328515,11.8154807 11.2619229,11.8918379 L12.4453641,12.1972349 C12.6744356,12.2481292 12.7634769,12.4008435 12.7126142,12.6553779 L12.2544713,14.6786847 C12.2036086,14.9077246 12.2926498,15.0477232 12.5217213,15.0986175 L13.0180112,15.2131532 C13.2470512,15.2895104 13.3870498,15.2004375 13.437944,14.9459032 L14.1250953,11.968195 C14.1755794,11.7391236 14.1119064,11.5482622 13.934234,11.3955479 C13.7558675,11.2428336 13.6540474,11.0392566 13.6288369,10.7847223 L13.5906583,9.75396379 C13.5906583,9.65217528 13.6160897,9.58219174 13.6670155,9.54401317 C13.7178782,9.50583459 13.7942354,9.49946098 13.8960554,9.52492388 L15.2322109,10.2120752 Z" id="Fill-1"></path>
            </g>
            <g id="wineries" transform="translate(266.000000, 17.000000)">
                <path d="M3.25294499,13.0747426 L3.25294499,20.5239419 C2.84060275,20.5847792 2.01591826,20.5509807 1.84692553,20.2535535 L1.84692553,12.9530678 C1.84692553,10.3910841 2.73477274,11.2005727 3.65852753,8.0860774 C3.42783218,9.71224707 3.25294499,10.5466115 3.25294499,13.0747426 M6.37155024,8.72094927 C5.93752284,7.56774292 5.51982691,3.56740125 5.51982691,3.19107473 C5.51982691,2.18376994 6.2863779,2.73282054 5.56676633,0.403641148 C5.40058564,-0.134485761 2.72168595,-0.134647994 2.55550526,0.403641148 C1.85449641,2.67409219 2.6023906,2.23995664 2.6023906,3.19107473 C2.6023906,3.56734717 2.18474875,7.56774292 1.75066728,8.72094927 C1.3163695,9.87420969 1.08155343e-05,10.083274 1.08155343e-05,12.2776377 L1.08155343e-05,20.964026 C1.08155343e-05,22.2008905 0.938258417,22.2800061 4.0611358,22.2800061 C7.18401317,22.2800061 8.1222067,22.2008905 8.1222067,20.964026 L8.1222067,12.2776377 C8.1222067,10.083274 6.80590209,9.87420969 6.37155024,8.72094927" id="Fill-1"></path>
            </g>
            <g id="breakfast" transform="translate(322.000000, 18.000000)">
                <path d="M4.65838835,5.58125243 C7.17280583,3.32858252 4.12853398,3.10775728 4.72766019,1.51620388 C2.62115534,3.7372233 5.48576699,3.79523301 4.65838835,5.58125243 L4.65838835,5.58125243 Z M6.87508738,5.58023301 C10.6522718,2.17586408 6.09358252,2.35557282 6.96790291,-9.70873786e-06 C3.95266019,3.04304854 8.09139806,3.11130097 6.87508738,5.58023301 L6.87508738,5.58023301 Z M10.4487767,11.1260097 C7.99833981,11.1260097 6.01183495,13.1125146 6.01183495,15.5630485 C6.01183495,18.0134369 7.99833981,19.9999417 10.4487767,19.9999417 C12.8992621,19.9999417 14.8857184,18.0134369 14.8857184,15.5630485 C14.8857184,13.1125146 12.8992621,11.1260097 10.4487767,11.1260097 L10.4487767,11.1260097 Z M10.4487767,12.404068 C12.1907184,12.404068 13.6076602,13.8211553 13.6076602,15.5630485 C13.6076602,17.3048447 12.1907184,18.7218835 10.4487767,18.7218835 C8.70693204,18.7218835 7.2898932,17.3048447 7.2898932,15.5630485 C7.2898932,13.8211553 8.70693204,12.404068 10.4487767,12.404068 L10.4487767,12.404068 Z M12.6939709,15.4445534 L10.8041165,15.4445534 L10.8041165,13.3017379 L9.8348932,13.3017379 L9.8348932,16.4137767 L12.6939223,16.4137767 L12.6939223,15.4445534 L12.6939709,15.4445534 Z M6.45319417,19.5585825 C5.38596117,18.4913495 4.79819417,17.0723204 4.79819417,15.5630485 C4.79819417,14.0536796 5.38591262,12.634699 6.45319417,11.5674175 C7.52042718,10.5001845 8.93945631,9.91236893 10.4487767,9.91236893 C10.9682913,9.91236893 11.4771262,9.98202913 11.9646019,10.1168835 C12.1089223,8.93440777 12.2093107,7.65901942 12.2565922,6.26984466 L-9.70873788e-06,6.26984466 C0.214553398,12.5776117 1.46576699,16.3655243 3.03367961,19.9999417 L6.94906796,19.9999417 C6.77673786,19.8634854 6.61100971,19.7163981 6.45319417,19.5585825 L6.45319417,19.5585825 Z M15.3596505,9.40790291 L13.4105243,9.40790291 C13.4553786,8.96115534 13.494068,8.50775728 13.5260097,8.04659223 L16.9920291,8.04659223 C16.8481456,9.63125243 16.2703301,11.2733883 15.3409612,12.7314466 C15.0982913,12.3137767 14.8002816,11.9246505 14.450233,11.573534 C14.8420777,10.8854272 15.1510097,10.1537767 15.3596505,9.40790291 L15.3596505,9.40790291 Z" id="Fill-1"></path>
            </g>
            <g id="sights" transform="translate(381.000000, 22.000000)">
                <path d="M12.2815534,5.55019417 C12.2815534,6.75669903 11.3035437,7.73466019 10.0970874,7.73466019 C8.89058252,7.73466019 7.91262136,6.75669903 7.91262136,5.55019417 C7.91262136,5.40558252 7.92703883,5.26432039 7.9538835,5.12757282 C9.02728155,5.52150485 10.0847087,4.48514563 9.70480583,3.4015534 C9.83213592,3.37839806 9.96305825,3.36572816 10.0970874,3.36572816 C11.3035437,3.36572816 12.2815534,4.34373786 12.2815534,5.55019417 M10.0970874,9.43368932 C7.95223301,9.43368932 6.21359223,7.69509709 6.21359223,5.55019417 C6.21359223,3.40538835 7.95223301,1.66669903 10.0970874,1.66669903 C12.2418932,1.66669903 13.9805825,3.40538835 13.9805825,5.55019417 C13.9805825,7.69509709 12.2418932,9.43368932 10.0970874,9.43368932 M10.0121359,0 C3.70548544,0 0,5.19417476 0,5.19417476 C0,5.19417476 4.02912621,11.1003883 10.0121359,11.1003883 C16.4563107,11.1003883 20,5.19417476 20,5.19417476 C20,5.19417476 16.4239806,0 10.0121359,0" id="Fill-1"></path>
            </g>
            <g id="places-for-children" transform="translate(443.000000, 18.000000)">
                <path d="M5.0648533,9.20828877 C6.49754938,7.04020499 7.50502647,6.60412069 8.95006025,6.04983821 C7.62571251,5.69889925 6.25602499,5.41807701 3.96801676,6.5509112 C3.89774774,5.83913267 3.9765973,5.11075157 4.21395835,4.41943433 C6.78888152,4.34946994 7.90592548,5.17726343 8.95006025,6.04983821 C8.55758946,4.60343357 8.24087112,3.563716 6.15260158,1.89599439 C6.71297675,1.51692752 7.34153928,1.25783588 8.00635332,1.13171719 C9.35923516,3.30589366 9.22702379,4.71508212 8.95006025,6.04983821 C9.94992147,5.10359266 10.8730148,4.01523511 11.0203564,1.48854574 C11.7021284,1.79835904 12.3288631,2.27064407 12.8354195,2.89133687 C11.4039927,5.05728821 10.3983435,5.49433718 8.95006025,6.04983821 C10.2743572,6.40067561 11.6441971,6.68154863 13.9322053,5.54866367 C14.0022204,6.25749739 13.924691,6.98608159 13.6862637,7.68024208 C11.1113405,7.7501557 9.99434734,6.92241298 8.95006025,6.04983821 C9.35060385,7.52533544 9.68077689,8.55286763 11.7476205,10.2036312 C11.1872453,10.5826981 10.5587335,10.8417898 9.89386872,10.9679084 C8.54098688,8.7936812 8.67324903,7.38444198 8.95006025,6.04983821 C7.95035135,6.99603298 7.02715647,8.08433976 6.87991646,10.6110799 C6.19819521,10.3013681 5.57151126,9.82918466 5.0648533,9.20828877 M8.95016179,0 C5.60893053,0 2.90037436,2.70860694 2.90037436,6.04983821 C2.90037436,9.39106947 5.6089813,12.0996256 8.95016179,12.0996256 C12.2913423,12.0996256 15,9.3910187 15,6.04983821 C15,2.70860694 12.2913423,0 8.95016179,0 M4.82896465,11.7916402 L0,20.1556344 L1.32084445,20.9182361 L6.1556987,12.5439858 C5.68945558,12.3433332 5.24489229,12.0916036 4.82896465,11.7916402" id="Fill-1"></path>
            </g>
            <g id="museums" transform="translate(501.000000, 20.000000)">
                <g id="Page-1">
                    <polygon id="Fill-1" points="3.27844044 5.55428658 4.82129782 5.55428658 5.05286829 12.6514242 3.08576258 12.6514242"></polygon>
                    <polygon id="Fill-2" points="1.96710252 13.0372326 1.96710252 13.8471235 0.809887752 13.8471235 0.809887752 15.0043383 -3.18791946e-06 15.0043383 -3.18791946e-06 15.8143567 18.9770438 15.8143567 18.9770438 15.0043383 18.1671529 15.0043383 18.1671529 13.8471235 17.0100656 13.8471235 17.0100656 13.0372326"></polygon>
                    <polygon id="Fill-3" points="9.48840554 3.18791946e-06 1.19567064 3.47139245 1.19567064 3.97294782 17.7812361 3.97294782 17.7812361 3.47139245"></polygon>
                    <polygon id="Fill-4" points="2.77702852 5.12977685 16.1997953 5.12977685 16.1997953 4.35858725 2.77702852 4.35858725"></polygon>
                    <polygon id="Fill-5" points="14.1170255 5.55428658 15.6596279 5.55428658 15.8911664 12.6514242 13.9240607 12.6514242"></polygon>
                    <polygon id="Fill-6" points="10.4913888 5.55428658 12.0727243 5.55428658 12.3042629 12.6514242 10.298424 12.6514242"></polygon>
                    <polygon id="Fill-7" points="6.90407718 5.55428658 8.44693456 5.55428658 8.67837752 12.6514242 6.67266611 12.6514242"></polygon>
                </g>
            </g>
            <g id="national-monuments" transform="translate(564.000000, 17.000000)">
                <path d="M9.15141262,10.3541505 L10.4699709,9.6003835 L7.21957767,0 L5.6458835,0 L9.15141262,10.3541505 Z M4.43652427,0 L2.75,0 L5.5,8.25 L1.83331553,2.75 L0,8.25 L6.41663107,11.9166311 L8.13807767,10.9328786 L4.43652427,0 Z M11.4834126,9.02117476 L12.8332621,8.25 L10.0832621,0 L8.42899029,0 L11.4834126,9.02117476 Z M9.16663107,17.4166311 C9.16663107,15.900233 7.93308252,14.6666311 6.41663107,14.6666311 C4.90023301,14.6666311 3.66663107,15.900233 3.66663107,17.4166311 C3.66663107,18.9330825 4.90023301,20.1666311 6.41663107,20.1666311 C7.93308252,20.1666311 9.16663107,18.9330825 9.16663107,17.4166311 L9.16663107,17.4166311 Z M11,17.4166311 C11,19.9473786 8.94823301,22 6.41663107,22 C3.88508252,22 1.83331553,19.9473786 1.83331553,17.4166311 C1.83331553,14.8859369 3.88508252,12.8333689 6.41663107,12.8333689 C8.94823301,12.8333689 11,14.8859369 11,17.4166311 L11,17.4166311 Z M8.02076214,16.902835 L7.21066019,17.6825534 L7.40759223,18.7898689 L6.41663107,18.2589854 L5.4256699,18.7898155 L5.62260194,17.6825 L4.8125,16.9027816 L5.92606311,16.7497427 L6.41663107,15.7381699 L6.90725243,16.7496893 L8.02076214,16.902835 Z" id="Fill-1"></path>
            </g>
            <g id="farmers-markets" transform="translate(623.000000, 19.000000)">
                <path d="M12.6378641,14.808534 L12.6378641,13.1882718 C15.0041214,11.8159029 15.5468301,8.48066019 13.7346408,8.48066019 L12.6378641,8.48066019 L12.6378641,6.99705825 L14.0043786,6.99705825 C17.7414757,6.99705825 16.8629709,13.2115583 12.6378641,14.808534 L12.6378641,14.808534 Z M8.62333981,14.957165 L9.71784466,14.957165 L9.71784466,7.8358932 L8.62333981,7.8358932 L8.62333981,14.957165 Z M6.06227184,14.957165 L7.1567767,14.957165 L7.1567767,7.8358932 L6.06227184,7.8358932 L6.06227184,14.957165 Z M3.52916505,14.957165 L4.6236699,14.957165 L4.6236699,7.8358932 L3.52916505,7.8358932 L3.52916505,14.957165 Z M2.64021845,2.46638835 C2.93892233,2.46638835 3.21661165,2.55647573 3.44785922,2.71056796 C3.73546602,2.14741262 4.32072816,1.76146117 4.99647087,1.76146117 C5.44009223,1.76146117 5.84465534,1.92791748 6.15179126,2.20145631 C6.52258252,1.5903301 7.19408738,1.1820534 7.96114078,1.1820534 C8.90264563,1.1820534 9.70015049,1.79750485 9.97412621,2.64800485 C10.1349029,2.58701456 10.3090922,2.5533301 10.4912767,2.5533301 C11.2966456,2.5533301 11.9494078,3.20613592 11.9494078,4.01150485 C11.9494078,4.8168301 11.2966456,5.46967961 10.4912767,5.46967961 C10.0213544,5.46967961 9.60381553,5.24730097 9.33713592,4.90228641 C8.96726214,5.21960194 8.48681068,5.41179126 7.96114078,5.41179126 C7.29763107,5.41179126 6.70590291,5.1060534 6.31816019,4.62809223 C5.99935922,5.00119903 5.52563592,5.23795146 4.99647087,5.23795146 C4.5431068,5.23795146 4.13041748,5.06419903 3.82092233,4.77991262 C3.55590291,5.14511165 3.12595631,5.38286893 2.64021845,5.38286893 C1.8348932,5.38286893 1.182,4.73001942 1.182,3.92465049 C1.182,3.11923786 1.8348932,2.46638835 2.64021845,2.46638835 L2.64021845,2.46638835 Z M11.7359417,15.9181553 L11.7359417,6.33918447 C12.5658204,5.89364078 13.131466,5.01758252 13.131466,4.01154854 C13.131466,2.60615049 12.0275243,1.45362621 10.6413058,1.37550971 C10.0656553,0.572936893 9.09881068,-4.85436894e-06 7.96118447,-4.85436894e-06 C7.23275243,-4.85436894e-06 6.50209223,0.241291262 5.90114563,0.722966019 C5.61152913,0.628597087 5.30662136,0.579446602 4.99651456,0.579446602 C4.26463107,0.579446602 3.57940777,0.848485437 3.05456796,1.31679126 C2.91834466,1.29529612 2.77993689,1.2843301 2.64026214,1.2843301 C1.1844466,1.2843301 -1.45631068e-05,2.46874757 -1.45631068e-05,3.9246068 C-1.45631068e-05,4.97166505 0.612684466,5.87830583 1.49835437,6.30488835 L1.49835437,15.9181553 C1.49835437,16.4161699 1.09462136,16.8199903 0.596432039,16.8199903 L0.596432039,17.9999951 L12.6378641,17.9999951 L12.6378641,16.8199466 C12.1398058,16.8199466 11.7359417,16.4161699 11.7359417,15.9181553 L11.7359417,15.9181553 Z" id="Fill-1"></path>
            </g>
            <g id="bars-lounges" transform="translate(683.000000, 20.000000)">
                <path d="M6.57775986,4.44444444 C6.57775986,3.65778196 7.21420359,3.0222043 8,3.0222043 C8.78576655,3.0222043 9.42221028,3.65778196 9.42221028,4.44444444 C9.42221028,5.22931506 8.78576655,5.86665472 8,5.86665472 C7.21420359,5.86665472 6.57775986,5.22931506 6.57775986,4.44444444 L6.57775986,4.44444444 Z M13.8115247,1.45688304 C14.1617763,0.97244994 14.2221924,0 14.2221924,0 L0,0 C0,0 0.0604458779,0.97244994 0.410667622,1.45688304 L6.22222222,8.88888889 L6.22222222,14.2222222 L4.44441458,14.2222222 C2.66666667,14.2222222 2.66666667,16 2.66666667,16 L11.5555257,16 C11.5555257,16 11.5555257,14.2222222 9.77777778,14.2222222 L8,14.2222222 L8,8.88888889 L13.8115247,1.45688304 Z" id="Fill-1"></path>
            </g>
            <g id="arts" transform="translate(742.000000, 20.000000)">
                <path d="M10.6598018,13.6629779 C10.6750277,15.24841 10.0351689,16.2970984 9.46871619,16.9119934 C9.45831802,16.923093 9.44659945,16.9327897 9.43616002,16.9431466 C13.1583748,16.5253218 15.8547606,13.8947085 13.8743218,11.3553681 C12.9017216,12.8052526 12.0791933,13.0846828 10.6598018,13.6629779 M3.55438559,7.61970169 C4.33812703,7.61454387 4.97794459,8.24466473 4.98211211,9.02560031 C4.98900296,9.80760872 4.3588821,10.4478389 3.57514067,10.4533268 C2.79210069,10.4589385 2.15500646,9.82939536 2.1508802,9.04705685 C2.14394809,8.26438824 2.77406894,7.62696391 3.55438559,7.61970169 M4.97381833,3.37077007 C5.75409371,3.36350786 6.39601567,3.99226705 6.39878026,4.77530702 C6.40707404,5.55904846 5.77550899,6.19577133 4.99593507,6.20303354 C4.2128951,6.20856273 3.57307754,5.57947344 3.56816729,4.79536064 C3.5619779,4.01442505 4.18937543,3.37592789 4.97381833,3.37077007 M9.22105819,1.95377182 C10.0012923,1.9492742 10.6411511,2.57770329 10.6487847,3.35835003 C10.651508,4.13965698 10.0241105,4.78120757 9.241772,4.78640666 C8.45873203,4.79296741 7.81961593,4.16317665 7.81544841,3.3808794 C7.80715463,2.59738554 8.43657402,1.95996121 9.22105819,1.95377182 M4.29731834,13.1704677 C4.76907341,12.3666727 5.53552583,11.0613722 7.44742746,10.8594331 C7.7545861,9.38115996 7.87771364,8.52203179 9.25146871,7.23818788 C10.2240277,6.32995724 12.7495864,4.11506448 14.2249712,2.82635159 C13.5166578,1.26237603 11.2920683,-0.0232421633 8.43244776,0.000318769752 C3.7397371,0.0386929689 -0.0370680898,3.87087254 0.00027454486,8.56494487 C0.0168621019,10.627001 0.7660255,12.510514 1.99800234,13.9729011 C3.14349282,14.2772126 3.68093792,14.2198164 4.29731834,13.1704677 M12.7965432,10.4243192 C13.8071876,8.83818567 16.9379446,3.51915031 16.9379446,3.51915031 C17.1870055,3.07817712 16.6335505,2.61748041 16.2468789,2.94291838 C16.2468789,2.94291838 11.5915934,6.99057114 10.2184573,8.27338348 C9.13316889,9.28778274 9.12834117,9.75120277 8.77686652,11.4231625 L9.966673,12.4151149 C11.5438939,11.7669211 11.9976172,11.6791143 12.7965432,10.4243192 M2.83356958,15.4642133 C6.08262637,15.7332865 4.91914541,12.281548 7.92541318,12.2497345 L9.22724757,13.3365083 C9.55169524,17.2586403 4.75380626,18.1343148 2.83356958,15.4642133" id="Fill-1"></path>
            </g>
            <g id="hospitals" transform="translate(801.000000, 19.000000)">
                <path d="M9.5,16.6829738 C5.53926,16.6829738 2.31705,13.4606688 2.31705,9.49997625 C2.31705,5.53928375 5.53926,2.31707375 9.5,2.31707375 C13.4606925,2.31707375 16.68295,5.53928375 16.68295,9.49997625 C16.68295,13.4606688 13.4606925,16.6829738 9.5,16.6829738 M9.5,-2.375e-05 C4.2617,-2.375e-05 0,4.26172375 0,9.49997625 C0,14.7382763 4.2617,18.9999763 9.5,18.9999763 C14.7383,18.9999763 19,14.7382763 19,9.49997625 C19,4.26172375 14.7383,-2.375e-05 9.5,-2.375e-05" id="Fill-1"></path>
                <path d="M13.2916495,8.0335895 L10.9664295,8.0335895 L10.9664295,5.7083695 C10.9664295,5.5083945 10.8042645,5.3462295 10.6042895,5.3462295 L8.3957295,5.3462295 C8.195707,5.3462295 8.0335895,5.5083945 8.0335895,5.7083695 L8.0335895,8.0335895 L5.7083695,8.0335895 C5.5083945,8.0335895 5.3462295,8.195707 5.3462295,8.3957295 L5.3462295,10.6042895 C5.3462295,10.8042645 5.5083945,10.9664295 5.7083695,10.9664295 L8.0335895,10.9664295 L8.0335895,13.2916495 C8.0335895,13.4916245 8.195707,13.653742 8.3957295,13.653742 L10.6042895,13.653742 C10.8042645,13.653742 10.9664295,13.4916245 10.9664295,13.2916495 L10.9664295,10.9664295 L13.2916495,10.9664295 C13.4916245,10.9664295 13.6537895,10.804312 13.6537895,10.6042895 L13.6537895,8.3957295 C13.6537895,8.1957545 13.4916245,8.0335895 13.2916495,8.0335895" id="Fill-4"></path>
            </g>
            <g id="banks" transform="translate(861.000000, 19.000000)">
                <path d="M10.370901,13.9505932 L10.370901,15.0583117 L8.78619951,15.0583117 L8.78619951,14.0675908 C8.0256,14.0025204 7.02122864,13.7267898 6.28115097,13.319166 L6.80549563,11.492768 C7.64352476,11.8196417 8.86621165,12.2306782 9.77037184,12.0333456 C10.5611777,11.8608699 10.7604932,11.150768 9.8297699,10.7496466 C9.04352961,10.3966248 6.33805874,10.0275544 6.33805874,7.76489417 C6.33805874,6.8275301 7.04064369,5.5391733 8.78619951,5.15815874 L8.78619951,4.03406893 L10.370901,4.03406893 L10.370901,5.06560291 C11.0501049,5.11231893 11.7427748,5.23766359 12.54285,5.48789175 C12.4627456,5.83736262 12.1169641,7.35427282 12.1169641,7.35427282 C11.5645345,7.16634806 10.6616194,6.83762961 9.79467524,6.88637476 C8.72352718,6.94664903 8.64678932,7.72883107 9.36892767,8.08996942 C10.850282,8.75981165 12.995668,9.32948883 12.995668,11.3273481 C12.997651,12.8711903 11.7948403,13.7504015 10.370901,13.9505932 M9.49999078,-1.84466019e-05 C4.2532699,-1.84466019e-05 -9.22330094e-06,4.2533068 -9.22330094e-06,9.49998155 C-9.22330094e-06,14.7467485 4.2532699,18.9999816 9.49999078,18.9999816 C14.7467578,18.9999816 18.9999908,14.7467485 18.9999908,9.49998155 C18.9999908,4.2533068 14.7467578,-1.84466019e-05 9.49999078,-1.84466019e-05" id="Fill-1"></path>
            </g>
            <g id="spas" transform="translate(919.000000, 21.000000)">
                <g id="Page-1">
                    <path d="M1.7113244,9.916741 C1.87425839,9.03522164 2.21929506,8.19240301 2.66257134,7.41981725 C2.96447844,6.88946222 3.31670337,6.38812064 3.72164225,5.93284213 C4.81425839,4.69771239 6.25670337,3.81619303 7.84291364,3.39961525 C8.60486963,3.19860394 9.42672782,3.11141831 10.2174369,3.19618212 C10.3348452,3.20829123 10.3635982,3.37055337 10.2557743,3.42141166 C10.2557743,3.42141166 10.2533782,3.42141166 10.2533782,3.4238577 C10.0592951,3.51588697 9.86281584,3.60065078 9.66873271,3.69265583 C9.28535863,3.87429256 8.9044046,4.0656408 8.53301095,4.27149576 C7.78543149,4.68320567 7.06897721,5.15061751 6.40528479,5.68826222 C5.21682513,6.64972596 4.16973467,7.79280221 3.3430843,9.0860557 C2.77281535,9.97731079 2.30557819,10.9411964 1.97971022,11.9510966 C1.9437689,12.064898 1.783231,12.0673441 1.74489359,11.9535426 L1.74489359,11.9510966 C1.53880606,11.3141087 1.59152,10.5633435 1.7113244,9.916741 M19.4447718,10.4640972 C19.2243557,10.3236073 19.0254564,10.1274396 18.8385616,9.85864146 C18.7834515,9.78111891 18.6540628,9.57526395 18.4983171,9.30401977 C18.5055293,9.61645916 18.4983171,9.86103907 18.4911288,9.95551438 C18.4599797,10.3914425 18.3473635,10.7353172 18.1461161,11.011405 C17.9352364,11.2996262 17.6333533,11.5030593 17.2475831,11.6120413 L17.21641,11.6217044 L17.2044295,11.6241504 C16.9241112,11.6992512 16.6293684,11.7234694 16.3442579,11.7476876 C16.0639156,11.7719059 15.7979498,11.7936781 15.5511288,11.8566697 C15.4840383,11.8735982 15.4121557,11.8832855 15.3426931,11.8832855 C15.0383899,11.8832855 14.7580476,11.7162039 14.6118863,11.4449598 C14.4896618,11.219706 14.3243557,11.0090316 14.1470452,10.7861997 C13.8714951,10.4350353 13.5863606,10.0742079 13.4713484,9.62372463 C13.3300031,9.07397081 13.4833288,8.53635031 13.924209,8.0301893 C13.7205415,8.08344519 13.5240623,8.11008524 13.3443557,8.11008524 C12.8435733,8.11008524 12.426654,7.91391758 12.1055782,7.52400407 C11.8659694,7.23338531 11.7150158,6.88466701 11.5712506,6.54803361 C11.4586344,6.28647673 11.3532066,6.03945078 11.2142095,5.82388431 C11.0057738,5.50180607 11.0392951,5.07798704 11.2980726,4.79221192 C11.4705909,4.60330973 11.6143562,4.37565836 11.7677298,4.13587367 C12.0792212,3.64908724 12.4314462,3.09448977 13.0688056,2.91529908 C13.2005904,2.87897174 13.3395635,2.85959715 13.4809327,2.85959715 C13.6366784,2.85959715 13.7948202,2.88134512 13.9601503,2.9274082 C13.9098085,2.83293288 13.869099,2.738506 13.8379259,2.6440549 C13.4737444,2.49148005 13.0999308,2.36312343 12.7213489,2.25896083 C11.9833537,2.05555191 11.228586,1.93683415 10.4713982,1.89568737 C10.2629625,1.88357826 10.056875,1.87875883 9.84841535,1.87875883 C7.16721682,1.87875883 4.4188799,2.91769669 2.4397112,5.10944652 C2.00841535,5.5889917 1.56274298,6.19202563 1.17457672,6.86526821 C-0.0234672861,8.93839715 -0.699164108,11.6677675 1.12186279,13.4308789 C1.47408773,13.7723317 1.90059139,14.0000073 2.36064029,14.0000073 L17.3361904,14.0000073 C19.0589777,14.0000073 19.6244545,12.2950196 19.5885132,10.5440416 C19.5382193,10.5197749 19.4902975,10.4931349 19.4447718,10.4640972" id="Fill-1"></path>
                    <path d="M16.0039192,2.24579004 L16.0084732,2.24579004 C16.0153041,2.24579004 16.0175583,2.25331768 16.0198581,2.25579356 L16.7029502,4.13648015 L16.7234202,4.19149951 C16.7598746,4.28900881 16.8372689,4.35655757 16.9260709,4.3765396 C16.9420097,4.37906549 16.9602255,4.38154136 16.9784413,4.38154136 C17.003488,4.38154136 17.0285348,4.37904048 17.0535815,4.37153784 C17.1196137,4.35153081 17.1765381,4.3040391 17.2129697,4.23651535 C17.5704546,3.57378221 17.7230118,2.0532473 17.7321197,1.68059121 C17.7662743,0.535188272 17.074097,0.392638124 16.3408886,0.242585338 C16.0653748,0.185065103 15.780753,0.127544868 15.5075161,0.0150052786 C15.4824467,0.00500175955 15.455123,0 15.430099,0 C15.4096063,0 15.3891135,0.00250087977 15.3708977,0.0100035191 C15.3208043,0.0250087977 15.277519,0.0600211146 15.2479411,0.10753783 C15.083999,0.370130207 14.8790713,0.597710266 14.6832515,0.817787686 C14.3121048,1.23543461 13.9546199,1.63307449 14.0047133,2.16076012 C14.0160982,2.28830499 14.0525298,2.42082661 14.1162623,2.56340177 C14.1595248,2.66096109 14.2187261,2.76347215 14.2915893,2.87100998 C14.3302978,2.92602934 14.3917761,3.01108426 14.4714702,3.11612121 C14.8244012,3.57125632 15.5279634,4.38156637 16.0471362,4.63913198 C16.0835678,4.65663814 16.1222763,4.66666667 16.1586852,4.66666667 C16.1837546,4.66666667 16.2065244,4.66414078 16.2292941,4.65666315 C16.2634487,4.64665963 16.2953036,4.62915347 16.3203731,4.60664555 C16.4045983,4.53662092 16.4478836,4.41657869 16.4228369,4.29653646 L16.418283,4.28153118 L16.3067112,3.75634643 L15.9902119,2.26832296 C15.9925344,2.25829444 15.9902346,2.24829092 16.0039192,2.24579004" id="Fill-4"></path>
                    <path d="M21.576313,6.80239853 C21.3332391,6.72777754 20.4706494,6.53333333 19.8016585,6.53333333 C19.6273981,6.53333333 19.4682385,6.54690079 19.3348706,6.57855818 C19.2832442,6.59212563 19.2359201,6.61926053 19.2036537,6.65996289 C19.1735383,6.69388152 19.1520274,6.73910637 19.1412719,6.78661506 C19.121912,6.8860871 19.1541785,6.987843 19.2294668,7.05344163 L19.5822466,7.36097056 L20.6083196,8.25866106 C20.6147729,8.26320616 20.6147729,8.26772864 20.6126218,8.26996727 C20.6104492,8.27677361 20.606147,8.28127348 20.6018663,8.28355734 L20.5996937,8.28355734 C20.5975426,8.28355734 20.5953915,8.28355734 20.5911108,8.28127348 L19.7629387,7.75442668 L19.3391727,7.48307763 L19.0595302,7.3044395 C19.0186594,7.2773046 18.9713138,7.26373715 18.9261622,7.26373715 L18.9218601,7.26373715 C18.9003491,7.26373715 18.8788381,7.26825963 18.8573272,7.27278212 C18.7347147,7.30896199 18.6551456,7.43106906 18.6680307,7.56445973 C18.741168,8.25642243 19.4166122,9.44357454 19.6016065,9.71942346 C19.6618372,9.80758929 19.7220679,9.88451675 19.7844497,9.95235401 C19.8769468,10.0518261 19.9737462,10.1287309 20.0769988,10.1807169 C20.1651937,10.2259417 20.2555398,10.2530992 20.3523391,10.2621442 C20.3803034,10.264428 20.4082891,10.2666667 20.4362319,10.2666667 C20.5330312,10.2666667 20.6362838,10.250838 20.7438387,10.2191806 C20.9546461,10.1581044 21.1697557,10.0450423 21.3956209,9.92748035 C21.6322415,9.80311203 21.8774664,9.67648248 22.1420513,9.59279391 C22.2345484,9.56342037 22.2969302,9.47297069 22.292628,9.37121479 C22.2818726,9.08401443 22.3162901,8.7968593 22.3507076,8.52096515 C22.4367515,7.78375499 22.5206227,7.08957628 21.576313,6.80239853" id="Fill-6"></path>
                    <path d="M22.2738884,2.76304671 C22.2781796,2.6624479 22.2159574,2.57302675 22.1236969,2.5462004 C21.8619344,2.46572136 21.6151911,2.34053174 21.3791758,2.21981317 C21.0466087,2.04989062 20.7312064,1.88895489 20.4243865,1.88895489 C20.3492907,1.88895489 20.2763405,1.89787465 20.2033903,1.92022994 C19.9802486,1.98506028 19.7785628,2.15272495 19.5918961,2.4344016 C19.4095206,2.70713613 18.7422195,3.88528224 18.6714363,4.56933174 C18.6628754,4.65875289 18.6950593,4.74370299 18.7594271,4.80182675 C18.8066087,4.84427944 18.8667068,4.86663473 18.9267834,4.86663473 C18.950385,4.86663473 18.9718409,4.8643992 18.9954425,4.85771497 C19.019044,4.85100838 19.0404999,4.83983074 19.0619559,4.82641756 L20.5853275,3.85172695 C20.5874731,3.84946906 20.5896187,3.84946906 20.5896187,3.84946906 L20.5917643,3.84946906 C20.5982011,3.84946906 20.6024923,3.85841118 20.6024923,3.85841118 C20.6067834,3.86735329 20.6024923,3.87182435 20.5982011,3.87405988 L19.2293122,5.07230339 C19.1542164,5.13936926 19.1220325,5.24222595 19.1456555,5.34282475 C19.169257,5.44342355 19.2443528,5.51719601 19.3387589,5.5395513 C19.4696402,5.56861317 19.6241229,5.58200399 19.7850425,5.58200399 C20.0468049,5.58200399 20.3257321,5.55294212 20.5510195,5.51940918 C21.0101551,5.45234331 21.4006746,5.3584511 21.5444294,5.31597605 C21.5551574,5.31371816 21.5658854,5.30926946 21.5744463,5.30703393 C22.516362,5.01641517 22.4284141,4.33010778 22.3339865,3.60579641 C22.2996356,3.32863553 22.2631605,3.04698124 22.2738884,2.76304671" id="Fill-8"></path>
                    <path d="M13.0513219,3.73333333 C12.9603277,3.73333333 12.8742288,3.74451104 12.7930253,3.76463093 C12.3625309,3.87415014 12.094419,4.25419234 11.8090382,4.65658996 C11.6442449,4.88908636 11.4744826,5.12831175 11.2629499,5.33843037 C11.1891509,5.41220327 11.179311,5.52174484 11.2383502,5.60669545 C11.410548,5.84589848 11.5335464,6.10522139 11.6565448,6.36007321 C11.9271412,6.92566542 12.1854378,7.46666667 12.9135883,7.46666667 C13.0488865,7.46666667 13.1989446,7.44878233 13.3711423,7.40854257 C13.3809822,7.40628467 13.393282,7.40407148 13.4055819,7.3996004 C13.5703997,7.35712509 14.008274,7.22969918 14.4953476,7.03967808 C14.8840225,6.88763885 15.4080202,6.6551648 15.6958119,6.40478406 C15.7770154,6.33324671 15.8065104,6.23041176 15.7745309,6.1320479 C15.7401159,6.03370639 15.6490725,5.96214668 15.5383739,5.94649788 L13.5138205,5.65811292 C13.5064159,5.65811292 13.5015206,5.65587738 13.5015206,5.64693521 C13.5015206,5.64693521 13.5015206,5.63352196 13.5113359,5.63130877 L13.5187158,5.63130877 L15.5678936,5.64472202 L15.5703535,5.64472202 C15.5974132,5.64472202 15.6244728,5.64248648 15.6515325,5.63577985 C15.7450112,5.61118889 15.8212702,5.54635816 15.8508145,5.46140755 C15.882794,5.37645694 15.8655743,5.28703525 15.8065104,5.2154979 C15.3489564,4.66555448 14.0230338,4.01724721 13.6909381,3.88311467 C13.4523213,3.78027972 13.243224,3.73333333 13.0513219,3.73333333" id="Fill-11"></path>
                    <path d="M18.4727521,6.16718044 C18.5525729,6.05983176 18.6131541,5.93866183 18.6434034,5.80375325 C18.665423,5.70191104 18.6737078,5.59450729 18.6599456,5.48437784 C18.6021168,5.0108212 18.2002879,4.66666667 17.7350977,4.66666667 L17.7295928,4.66666667 C17.6938111,4.66666667 17.6553044,4.66944744 17.6167427,4.67492638 C17.5176548,4.68593932 17.4240718,4.71347168 17.3387461,4.75477023 C16.9809287,4.9199644 16.7552285,5.30266425 16.8074974,5.71564969 C16.8653262,6.1891788 17.2671551,6.53333333 17.7323453,6.53333333 C17.7708519,6.53333333 17.8094136,6.5305801 17.8479478,6.52507362 C18.1066773,6.49484309 18.3268726,6.35990698 18.4727521,6.16718044" id="Fill-13"></path>
                    <path d="M15.0736344,11.0694204 C15.1127794,11.1513366 15.1910925,11.2 15.2716851,11.2 C15.2901063,11.2 15.3085275,11.1974145 15.3292513,11.1923204 C15.612477,11.1104041 15.9049133,11.0848053 16.188139,11.0592064 C16.4598514,11.0336076 16.7154223,11.0105687 16.9388021,10.9414262 C17.4384767,10.7878332 17.6802547,10.42177 17.724028,9.7562004 C17.7493572,9.37731212 17.7424492,7.81068934 17.4453846,7.09392211 C17.3993317,6.98382154 17.3003178,6.91731578 17.1944191,6.91731578 C17.1690669,6.91731578 17.1437608,6.91985006 17.1184087,6.93011519 C17.044747,6.95312854 16.9848551,7.00691168 16.9480357,7.08370817 L16.0569111,8.97290181 C16.0546084,8.98055586 16.0500031,8.98055586 16.0500031,8.98055586 L16.0476774,8.98055586 C16.0430952,8.98055586 16.0361642,8.97802158 16.0338616,8.97290181 C16.0315589,8.97031633 16.0292563,8.96775645 16.0315589,8.95751691 L16.6601818,6.94291461 C16.6947215,6.83539952 16.671695,6.71508502 16.6002899,6.63060889 C16.547329,6.56661181 16.4736443,6.53333333 16.3999826,6.53333333 C16.3700251,6.53333333 16.3424164,6.5384275 16.3124589,6.54869263 C15.6401088,6.79700128 14.6084996,7.86447248 14.3759321,8.14349973 C13.6598087,9.00615469 14.1042197,9.62567197 14.5739598,10.281002 C14.7512637,10.5267508 14.9331959,10.7827391 15.0736344,11.0694204" id="Fill-15"></path>
                </g>
            </g>
            <g id="gardens" transform="translate(983.000000, 19.000000)">
                <path d="M0.233306472,6.40821214 C-0.222337961,7.959418 -0.0307938412,9.59083694 0.986896674,11.0356163 C2.62882429,8.6354099 5.68570345,6.05485513 7.81341912,5.56539799 C3.46575893,8.68196495 1.03311687,13.0536309 0.717402241,18 L2.55256625,18 C2.5100479,16.1332893 2.77954233,13.7777506 3.45507646,12.7196718 C5.10948459,13.2611364 6.94813891,12.9446879 8.5333754,11.6148282 C11.6629165,8.98079803 10.4891138,2.36358496 16,1.5998305 C8.60963344,-2.40358918 1.57739409,1.82390289 0.233306472,6.40821214" id="Fill-1"></path>
            </g>
            <g id="cafes" transform="translate(1042.000000, 17.000000)">
                <path d="M5.08225925,6.08915691 C7.82548868,3.63149408 4.50418814,3.39057374 5.15783483,1.65418901 C2.85963807,4.07732116 5.98492933,4.14060975 5.08225925,6.08915691 L5.08225925,6.08915691 Z M7.50067786,6.08804472 C11.6215861,2.37387827 6.64805607,2.5699405 7.6019396,0 C4.31230984,3.31997651 8.82767279,3.3944399 7.50067786,6.08804472 L7.50067786,6.08804472 Z M14.7567811,8.7788426 C14.7219326,9.28197366 14.6797226,9.77663093 14.6307864,10.2640325 L16.7572831,10.2640325 C16.2568001,12.0533255 15.2289828,13.7685257 13.867775,15.0653328 C13.6995703,15.8194998 13.5108167,16.5721838 13.260787,17.4236934 C16.2885768,15.4783769 18.2440089,12.0182122 18.5381552,8.7788426 L14.7567811,8.7788426 Z M10.0620916,21.8199997 L3.309755,21.8199997 C1.59916236,17.8548503 0.234088346,13.7222906 0,6.84046398 L13.3718466,6.84046398 C13.1398237,13.6634508 11.7337578,17.9742777 10.0620916,21.8199997 L10.0620916,21.8199997 Z" id="Fill-1"></path>
            </g>
            <g id="theaters-" transform="translate(1099.000000, 20.000000)">
                <path d="M16.2162916,7.7623946 C16.2162916,7.7623946 17.203149,6.6847434 18.0649228,6.56562619 C18.9266966,6.44687961 19.9513501,6.95663009 19.810747,7.68990137 C19.4039375,9.8096984 16.2162916,7.7623946 16.2162916,7.7623946 M16.3614614,3.17949541 C15.9402834,3.02809722 15.5313205,2.87239984 15.1370973,2.71529411 C14.9901083,5.90447752 14.8740467,7.72006982 13.9439206,9.44163587 C13.7157331,9.8635124 13.4494895,10.2667467 13.1260319,10.6796172 C13.2855702,10.7169386 13.4462594,10.7635626 13.6068372,10.8213422 C15.1349068,11.3701931 16.0710847,12.655169 15.6976903,13.6912367 L11.68848,12.2508969 C11.2539731,12.676702 10.7562747,13.1369748 10.1823529,13.6521733 C10.5959939,14.422729 11.0786184,15.2919436 11.6356842,16.2917647 L11.6374663,16.2874655 C20.4177497,12.8625679 19.6727429,13.0541412 23.0799999,4.94950147 C23.0799999,4.94987209 19.9519813,4.46917821 16.3614614,3.17949541" id="Fill-1"></path>
                <path d="M7.1255374,10.9926742 C5.4538462,10.9926742 4.09840851,10.0798736 4.09840851,8.95352278 L10.1526281,8.95352278 C10.1526281,10.0798736 8.79722861,10.9926742 7.1255374,10.9926742 M2.20994512,3.79655213 C2.3297966,3.04184854 3.50025943,2.90577371 4.29339647,3.31812972 C5.0864953,3.73048572 5.66618511,5.10851816 5.66618511,5.10851816 C5.66618511,5.10851816 1.86369052,5.97659217 2.20994512,3.79655213 M9.95733437,3.31778858 C10.7504714,2.90539467 11.920896,3.04188645 12.0407475,3.796211 C12.3873843,5.97625103 8.58450751,5.10821492 8.58450751,5.10821492 C8.58450751,5.10821492 9.16419733,3.73014459 9.95733437,3.31778858 M14.2510825,0.029364114 C14.2510825,0.029364114 11.0534251,0.64829611 7.1255374,0.64829611 C3.19764973,0.64829611 -7.64358924e-06,0.0315625374 -7.64358924e-06,0.0315625374 C0.470531715,9.00852127 -0.184218146,8.56906401 7.12664573,14.8996516 L7.1270279,14.8948757 C14.435293,8.56459136 13.7805049,9.00639866 14.2510825,0.029364114" id="Fill-3"></path>
            </g>
            <g id="golf" transform="translate(1165.000000, 17.000000)">
                <path d="M12.4648365,7.22316158 C12.4332936,7.0674099 12.3085138,6.88055419 12.0904197,6.66247869 L2.07486672,0.027789094 L1.13882471,1.38278238 C0.920421345,1.69424715 0.967233109,1.95905587 1.27926,2.17705419 C1.59128689,2.3951297 1.85646336,2.34839648 2.07486672,2.03689312 L2.63649193,1.24258272 L10.7799608,6.61574547 L4.08734739,7.83053909 C3.86890538,7.8617203 3.68173563,7.97853406 3.52572218,8.18098037 C3.36974739,8.38342668 3.32293563,8.59370688 3.38532555,8.81174379 L4.83618101,14.4652287 L0.15600958,21.4737069 C3.4789916e-05,21.722925 -0.0390072269,21.9876565 0.0389994958,22.2679787 C0.117006218,22.5483394 0.280828067,22.7508243 0.530426387,22.8753948 C0.780024706,22.9999653 1.03743143,23.0311851 1.30264655,22.9688612 C1.56786168,22.9064988 1.77849529,22.7508243 1.93447008,22.5016062 C5.1793642,17.5801851 6.81742807,15.1038646 6.84866168,15.0726448 L7.08268185,16.1005441 L6.33384824,21.6606012 C6.30265328,21.9098193 6.36508185,22.1512035 6.52101798,22.384831 C6.67699277,22.61842 6.89543479,22.758581 7.17626672,22.8053143 C7.45706,22.8520475 7.71446672,22.7897237 7.94848689,22.61842 C8.18250706,22.4471163 8.31501798,22.2368747 8.34629025,21.9876565 L9.09512387,16.2874384 C9.12631882,16.1005441 9.12631882,15.8981364 9.09512387,15.6800609 L7.41024824,8.99863809 L11.7628146,8.25106091 C11.9811793,8.18877567 12.160618,8.06416661 12.3010533,7.87727232 C12.4414499,7.69037802 12.4960314,7.47234111 12.4648365,7.22316158" id="Fill-3"></path>
                <path d="M3.63677686,3.94285714 C3.18669378,3.94285714 2.79657469,4.10255764 2.46653111,4.42199633 C2.13648753,4.74143501 1.97142857,5.12935984 1.97142857,5.58569544 C1.97142857,6.04206873 2.13648753,6.42995587 2.46653111,6.74939455 C2.79657469,7.06887093 3.18669378,7.22857143 3.63677686,7.22857143 C4.08685994,7.22857143 4.46946959,7.06887093 4.78453146,6.74939455 C5.09959333,6.42995587 5.25714286,6.04206873 5.25714286,5.58569544 C5.25714286,5.12935984 5.09959333,4.74143501 4.78453146,4.42199633 C4.46946959,4.10255764 4.08685994,3.94285714 3.63677686,3.94285714" id="Fill-1"></path>
            </g>
            <g id="romantic-spots-" transform="translate(1222.000000, 20.000000)">
                <path d="M14.3982847,0.576832455 C11.7206503,-0.860869989 8.89609256,0.612838773 8.5000197,2.54140286 C8.10390436,0.612881998 5.27930411,-0.860826764 2.60171225,0.576832455 C-0.967277231,2.49312067 -2.36938024,9.27942547 8.5000197,16.2916667 C19.3693772,9.27942547 17.9672741,2.49312067 14.3982847,0.576832455" id="Fill-1"></path>
            </g>
            <g id="hidden-gems" transform="translate(1282.000000, 18.000000)">
                <path d="M7.65002971,3.40002971 L9.34992078,3.40002971 L9.34992078,0 L7.65002971,0 L7.65002971,3.40002971 Z M13.8199643,3.67810458 L14.9364231,4.96553773 L16.9999505,2.90196078 L15.7980293,1.70003961 L13.8199643,3.67810458 Z M0,2.90196078 L2.08268964,4.98465043 L3.21484452,3.71296296 L1.20192117,1.70003961 L0,2.90196078 Z M4.25663498,5.09997029 L0,9.88126362 L8.5,20.4000792 L17,9.94107744 L12.8031788,5.09997029 L4.25663498,5.09997029 Z M9.52599525,6.8000099 L12.0270351,6.8000099 L14.2375223,9.34997029 L12.0760051,9.34997029 L9.52599525,6.8000099 Z M5.01861755,6.8000099 L7.47395524,6.8000099 L4.92399485,9.34997029 L2.74920776,9.34997029 L5.01861755,6.8000099 Z M8.5,6.97598534 L10.8740345,9.34997029 L6.12601505,9.34997029 L8.5,6.97598534 Z M12.1822638,10.2000396 L14.5986334,10.2000396 L9.58407605,16.3708655 L12.1822638,10.2000396 Z M5.7399485,10.2000396 L11.2600515,10.2000396 L8.5,16.7543573 L5.7399485,10.2000396 Z M2.44375124,10.2000396 L4.8177857,10.2000396 L7.40102,16.3351654 L2.44375124,10.2000396 Z" id="Page-1"></path>
            </g>
            <g id="corporate-offices" transform="translate(1342.000000, 21.000000)">
                <path d="M9.43574272,9.65021521 L7.56433981,9.65021521 L7.56433981,10.3858925 C7.56433981,10.9007351 7.98327427,11.3181506 8.50004126,11.3181506 C9.01684951,11.3181506 9.43578398,10.9007762 9.43578398,10.3858925 L9.43578398,9.65021521 L9.43574272,9.65021521 Z M16.6676748,7.18625526 L16.6676748,13.7096774 L0.332366505,13.7096774 L0.332366505,7.10412052 C3.56636893,9.32011414 13.4099466,9.39739808 16.6676748,7.18625526 L16.6676748,7.18625526 Z M6.26668689,1.42938289 C6.26668689,1.27567829 6.39179369,1.15103738 6.54607282,1.15103738 L10.4540097,1.15103738 C10.6082476,1.15103738 10.7333544,1.27563718 10.7333544,1.42938289 L10.7333544,2.13081685 L11.9712184,2.13081685 L11.9712184,0.874418436 C11.9712184,0.391517145 11.5782791,0 11.0935728,0 L5.90650971,0 C5.42176214,0 5.02882282,0.391476036 5.02882282,0.874418436 L5.02882282,2.13081685 L6.26668689,2.13081685 L6.26668689,1.42938289 Z M0,4.7387798 L0,2.95298641 L17,2.95298641 L17,4.82091454 C17,8.61317164 0,8.50172656 0,4.7387798 L0,4.7387798 Z" id="Fill-1"></path>
            </g>
            <g id="public-parks" transform="translate(1402.000000, 18.000000)">
                <path d="M9.92273212,14.7678497 C9.19978316,14.9699897 9.63262887,13.4619535 9.83981503,12.5888875 C9.98969816,12.5327891 10.1347498,12.4667806 10.2726607,12.3883932 C10.355862,13.0247228 10.6303695,13.5988005 11.0369972,14.0527748 C10.6846884,14.3679344 10.2790554,14.6682823 9.92273212,14.7678497 M8.5948152,14.1475839 C8.28222414,14.2047197 7.74990634,13.2354851 7.37216106,12.4475683 C7.79104516,12.662767 8.26392838,12.7866269 8.76665324,12.7866269 C8.89578933,12.7866269 9.02250967,12.7760369 9.14752478,12.7602951 C9.05032634,13.3908288 8.87916328,14.0952421 8.5948152,14.1475839 M6.33633684,13.3607046 C6.5829921,13.1236105 6.78985853,12.8465176 6.94784153,12.5389428 L7.5518503,13.8133194 C7.55149504,13.8133552 7.22298845,13.9594327 6.33633684,13.3607046 M17.8180098,6.24981194 C17.8180098,4.64800426 16.6110225,3.33051637 15.062917,3.16869701 C14.6284727,1.9887359 13.5040117,1.1460803 12.1808197,1.1460803 C11.6016079,1.1460803 11.0617942,1.31029671 10.5994266,1.59050215 C10.0735389,0.642161307 9.06837341,0 7.91300505,0 C6.38124138,0 5.11439322,1.1289789 4.87935487,2.60488733 C4.75433977,2.58950322 4.62793916,2.57887745 4.49887411,2.57887745 C2.79992628,2.57887745 1.42241541,3.96584427 1.42241541,5.67709378 C1.42241541,5.76091928 1.42849032,5.84302749 1.43499153,5.92513569 C0.573492145,6.47424103 0,7.43968328 0,8.54233031 C0,9.51703879 0.447766524,10.3853107 1.14652246,10.9532348 C1.14346724,11.0090111 1.13806733,11.0643581 1.13806733,11.12085 C1.13806733,12.8318133 2.51525846,14.2191021 4.2144905,14.2191021 C4.72371657,14.2191021 5.20274575,14.0925231 5.62567978,13.8722083 C6.21171251,14.2960584 7.05083068,14.8263808 7.45710313,14.7206598 C7.45710313,14.7206598 7.60826518,17.0785427 7.57565255,17.6772708 C7.51348249,18.8165177 7.17406949,20.0847406 6.93526542,21.1111111 L10.6340997,21.1111111 C10.6340997,21.1111111 10.088886,18.8230291 10.0650838,18.0590829 C10.0413171,17.2951009 10.3022182,15.8882779 10.3022182,15.8882779 L11.5853371,14.551685 C12.0792161,14.8917454 12.6757644,15.0850485 13.3192068,15.0850485 C14.9097655,15.0850485 16.2180012,13.8664125 16.3787197,12.3073583 C17.5503233,11.8698056 18.3870968,10.7343153 18.3870968,9.40176531 C18.3870968,8.61488605 18.0935475,7.89916724 17.6138433,7.35249474 C17.7436189,7.00964378 17.8180098,6.63881522 17.8180098,6.24981194" id="Fill-1"></path>
            </g>
            <g id="lakes" transform="translate(1459.000000, 22.000000)">
                <path d="M5.64736448,0.398319308 C6.50822018,1.21241456 7.43788069,1.86631952 8.67974806,1.79361777 C9.91137424,1.72163483 10.7357395,0.950667737 11.5421082,0 C12.2999555,0.951899969 13.1607117,1.65848289 14.3786167,1.72307244 C15.5894623,1.78714855 16.5624738,1.27782559 17.4095089,0.391233968 C18.9038263,2.42246733 20.8110721,2.5488739 23,1.89774146 C22.6255506,2.18731621 22.2815265,2.53819455 21.8710839,2.75517024 C20.5366482,3.46062361 19.1536912,3.52603464 17.7377238,2.9885757 C17.56253,2.92203512 17.2886033,2.95355974 17.1273296,3.0541921 C15.4344526,4.10970233 13.6949434,4.19308343 11.9143701,3.34479371 C11.645912,3.21684685 11.4662439,3.20514064 11.1981835,3.34766892 C9.39434379,4.30583274 7.62709395,4.2132099 5.94346384,3.03837845 C5.68415319,2.85734289 5.51383143,2.90622146 5.27500313,3.00675113 C3.60956852,3.70727558 1.44340981,3.30957239 0.317973725,2.10588615 C0.238927724,2.0213755 0.169924045,1.92690431 0,1.71978648 C1.97634888,2.66131516 4.52421527,2.30129776 5.64736448,0.398319308 Z" id="Fill-1"></path>
                <path d="M5.64736448,5.39831931 C6.50822018,6.21241456 7.43788069,6.86631952 8.67974806,6.79361777 C9.91137424,6.72163483 10.7357395,5.95066774 11.5421082,5 C12.2999555,5.95189997 13.1607117,6.65848289 14.3786167,6.72307244 C15.5894623,6.78714855 16.5624738,6.27782559 17.4095089,5.39123397 C18.9038263,7.42246733 20.8110721,7.5488739 23,6.89774146 C22.6255506,7.18731621 22.2815265,7.53819455 21.8710839,7.75517024 C20.5366482,8.46062361 19.1536912,8.52603464 17.7377238,7.9885757 C17.56253,7.92203512 17.2886033,7.95355974 17.1273296,8.0541921 C15.4344526,9.10970233 13.6949434,9.19308343 11.9143701,8.34479371 C11.645912,8.21684685 11.4662439,8.20514064 11.1981835,8.34766892 C9.39434379,9.30583274 7.62709395,9.2132099 5.94346384,8.03837845 C5.68415319,7.85734289 5.51383143,7.90622146 5.27500313,8.00675113 C3.60956852,8.70727558 1.44340981,8.30957239 0.317973725,7.10588615 C0.238927724,7.0213755 0.169924045,6.92690431 0,6.71978648 C1.97634888,7.66131516 4.52421527,7.30129776 5.64736448,5.39831931 Z" id="Fill-1"></path>
            </g>
            <g id="rivers" transform="translate(1519.000000, 27.000000)">
                <path d="M5.64736448,0.394036304 C6.50822018,1.19937784 7.43788069,1.84625157 8.67974806,1.77433156 C9.91137424,1.70312263 10.7357395,0.940445503 11.5421082,0 C12.2999555,0.941664486 13.1607117,1.64064974 14.3786167,1.70454478 C15.5894623,1.7679319 16.5624738,1.26408553 17.4095089,0.387027151 C18.9038263,2.3964193 20.8110721,2.52146665 23,1.87733564 C22.6255506,2.16379668 22.2815265,2.51090213 21.8710839,2.72554475 C20.5366482,3.4234126 19.1536912,3.48812029 17.7377238,2.95644047 C17.56253,2.89061538 17.2886033,2.92180104 17.1273296,3.02135133 C15.4344526,4.06551198 13.6949434,4.14799651 11.9143701,3.30882819 C11.645912,3.1822571 11.4662439,3.17067676 11.1981835,3.31167248 C9.39434379,4.25953347 7.62709395,4.16790657 5.94346384,3.00570771 C5.68415319,2.82661877 5.51383143,2.87497177 5.27500313,2.97442048 C3.60956852,3.6674124 1.44340981,3.27398559 0.317973725,2.08324221 C0.238927724,1.99964028 0.169924045,1.90618491 0,1.70129415 C1.97634888,2.63269887 4.52421527,2.27655262 5.64736448,0.394036304 Z" id="Fill-1"></path>
            </g>
            <g id="beaches-" transform="translate(1582.000000, 18.000000)">
                <path d="M1.70212979,9.56181284 C1.35399555,9.4891188 1.13269765,9.44306507 0.916305028,9.39800327 C0.875801487,8.07179762 1.59645619,6.7576368 2.43427685,6.6751652 C2.11669545,6.16347286 2.38312186,5.83372817 2.773021,5.5457861 C3.23131366,5.20739748 3.68918587,4.86830034 4.12295217,4.42335048 C3.33222214,4.9680598 2.74891508,4.41966618 2.12930901,4.13314115 C1.45196086,3.8198341 0.780078584,3.49490734 0,3.12491877 C0.764521861,2.61237621 1.25322722,1.63759593 2.45978427,2.4467245 C2.26847861,2.10663543 2.16616863,1.92468778 2.06497985,1.74472399 C3.05136021,0.943247426 4.11384238,0.691298111 4.56751007,1.14517531 C5.06826839,0.4920626 6.22647346,0.637592379 7.90267538,1.87055694 C8.40581625,1.46925185 8.8709763,0.989301153 9.42919639,0.682795884 C10.0109618,0.363395571 10.66981,0.148572645 11.3205296,0.0125370194 C11.6392322,-0.0540637557 12.015817,0.161184281 12.451125,0.27029619 C13.3820057,-0.0636996125 14.0451986,0.760732961 14.8882048,1.1073404 C14.7399254,1.34441082 14.629767,1.52069032 14.4002002,1.88826991 C15.6516055,1.15792865 16.0609856,2.16714295 16.8,2.72148812 C15.6972946,3.15651872 14.6872288,3.55498974 13.6653903,3.95813698 C13.9622294,4.55499329 14.9940186,4.68720291 14.6450434,5.61153665 C15.7634457,6.0374982 15.4799209,7.11997335 15.8305779,7.96438616 C15.5633106,8.0521008 15.3750882,8.11388365 15.0649348,8.21576866 C16.2566359,8.66440282 15.8228696,9.61013382 15.8834147,10.5541644 C14.7828115,9.97162016 13.7513027,9.45581841 12.7583352,8.87256567 C12.5737568,8.76416228 12.5451661,8.38425445 12.4285607,8.08936889 C12.3174212,8.21250947 12.1918462,8.35137918 12.0289912,8.53162638 C11.7758791,8.40692706 11.5118352,8.27670128 11.191591,8.11870157 C12.3493756,12.4036821 12.0575819,16.6737837 11.4107866,21 L8.0775834,21 C9.23634908,16.251223 10.3212553,11.5065555 8.74498085,6.45580775 C8.48388017,6.96693328 8.31611983,7.29554433 8.12187101,7.67587727 C7.85208099,7.4480176 7.62601797,7.25700091 7.31922817,6.99810811 C7.31922817,7.15015626 7.29624346,7.23560364 7.32273194,7.30022056 C7.84717571,8.581081 7.08125235,9.20982066 6.12122031,9.740643 C5.79901394,9.91890635 5.4735841,10.0913599 5.11984383,10.2826599 C4.98936357,10.0458729 4.88004605,9.84762935 4.64417249,9.41925884 C4.74199765,10.6406037 3.95210852,10.7925101 3.28989664,11.0803105 C2.39391346,11.4695708 1.49877118,11.8610983 0.598443327,12.2537595 C0.328373001,10.9070068 0.579522987,10.2546026 1.70212979,9.56181284" id="Fill-1"></path>
            </g>
            <g id="hiking" transform="translate(1644.000000, 17.000000)">
                <path d="M6.93911379,3.77142857 C7.45196512,3.77142857 7.89025352,3.58702175 8.25413637,3.21828784 C8.61809792,2.84947419 8.8,2.40530294 8.8,1.88573422 C8.8,1.36600601 8.61809792,0.921834765 8.25413637,0.553140731 C7.89029287,0.184406825 7.45188643,0 6.93911379,0 C6.42634116,0 5.9797505,0.184406825 5.59926313,0.553140731 C5.21881511,0.921874637 5.02857143,1.36608576 5.02857143,1.88573422 C5.02857143,2.40530294 5.21881511,2.84951406 5.59926313,3.21828784 C5.9797505,3.58702175 6.42634116,3.77142857 6.93911379,3.77142857" id="Fill-1"></path>
                <path d="M3.74123678,3.49546196 C3.83517325,3.15805962 3.70991221,2.9587253 3.36541644,2.89753193 L1.90917776,2.52960584 C1.56471923,2.46830306 1.34548449,2.59098156 1.25154802,2.89753193 L0.0301877562,7.8648076 C-0.0637487077,8.1714309 0.0615495733,8.35541218 0.406008106,8.41671496 L1.86220953,8.78467751 C2.20670531,8.84598029 2.42594006,8.72333826 2.51987652,8.41671496 L3.74123678,3.49546196 Z" id="Fill-3"></path>
                <path d="M0.628571429,20.5119518 L0.628571429,20.7444985 C0.628571429,21.0854835 0.745941159,21.3800107 0.980643396,21.6280064 C1.21542008,21.8760021 1.5049172,22 1.84920918,22 C2.47514386,22 2.88204793,21.7055097 3.06984694,21.1164921 L5.22940532,12.5137022 L7.2950828,21.0699976 C7.35773211,21.3179564 7.49859068,21.5349803 7.71762128,21.7209956 C7.93676356,21.9070108 8.20277184,22 8.51572056,22 C8.86004977,22 9.14950966,21.8760021 9.38424912,21.6280064 C9.61898859,21.3800107 9.73635832,21.0854835 9.73635832,20.7444985 L9.73635832,20.5119518 L6.919522,9.11911775 L7.15426146,8.14258385 L7.34206048,8.93310251 C7.37340374,9.08807219 7.44383302,9.21210693 7.55327388,9.30513299 C7.66290085,9.39812217 7.76456173,9.44461676 7.85847985,9.44461676 L7.99930119,9.49111135 L10.9100184,10.1886408 L11.050877,10.1886408 C11.3012881,10.1886408 11.5125759,10.1111376 11.6846661,9.95613101 C11.8568679,9.80112446 11.9428571,9.61514609 11.9428571,9.39812217 C11.9428571,8.9641112 11.7238638,8.68510678 11.2856164,8.56107204 L8.75049725,7.95656861 L8.04627886,5.25947672 C7.95236074,4.82539201 7.75678175,4.48440709 7.45939298,4.23644823 C7.16207867,3.98845249 6.88821596,3.84896872 6.63784209,3.81792316 L6.21530361,3.77142857 C5.80839955,3.77142857 5.44851037,3.88768349 5.13552443,4.12019331 C4.82253848,4.35270314 4.61910505,4.59299279 4.52518693,4.84095166 L4.43130604,5.21298213 L0.628571429,20.5119518 Z" id="Fill-8"></path>
            </g>
            <g id="places-of-worship" transform="translate(1703.000000, 17.000000)">
                <path d="M8.48994865,9.90610058 C8.48994865,10.0561857 8.37353646,10.1692306 8.22200819,10.1692306 L6.80052869,10.1692306 C6.64996251,10.1692306 6.51815696,10.0561857 6.51815696,9.90610058 L6.51815696,8.23832751 C6.51815696,7.69619303 6.96023468,7.25603948 7.50381229,7.25603948 C8.04642781,7.25603948 8.48994865,7.69571199 8.48994865,8.23832751 L8.48994865,9.90610058 Z M14.5833093,13.4432034 L10.6185601,9.98980191 L10.6185601,7.08623161 L11.0029127,7.08623161 C11.1520358,7.08623161 11.291538,7.00012507 11.348782,6.86206598 C11.406026,6.72400689 11.3790877,6.56911132 11.2722963,6.46328205 L8.2244134,3.40818349 L8.2244134,2.78619602 L8.68861905,2.78619602 C9.08547881,2.78619602 9.40777704,2.46341675 9.40777704,2.0655949 C9.40777704,1.66825411 9.08547881,1.34547484 8.68861905,1.34547484 L8.2244134,1.34547484 L8.2244134,0.725892574 C8.2244134,0.32518448 7.89970996,0.00048104213 7.49900187,0.00048104213 C7.09829377,0.00048104213 6.77359033,0.32518448 6.77359033,0.725892574 L6.77359033,1.34547484 L6.31275197,1.34547484 C5.91541117,1.34547484 5.59359399,1.66825411 5.59359399,2.0655949 C5.59359399,2.4629357 5.91541117,2.78619602 6.31275197,2.78619602 L6.77359033,2.78619602 L6.77359033,3.40818349 L3.72715053,6.46280101 C3.62132126,6.56863028 3.5943829,6.72400689 3.65114587,6.86206598 C3.70887093,7.00060611 3.84885419,7.08623161 3.99845829,7.08623161 L4.3799247,7.08623161 L4.3799247,9.98980191 L0.415175463,13.4436844 C0.0317848861,13.7784897 -0.100020657,14.2811787 0.0784459727,14.7569294 C0.257393645,15.2341232 0.717269921,15.4861893 1.22621249,15.4861893 L1.48693733,15.4861893 L1.48693733,21.843161 C1.48693733,22.0476039 1.6841646,22.2130824 1.88764542,22.2130824 L5.77735208,22.2130824 L5.77735208,18.3474279 C5.77735208,17.3925592 6.5436522,16.6185625 7.49852082,16.6185625 C8.45387049,16.6185625 9.21968956,17.3920782 9.21968956,18.3474279 L9.21968956,22.2126014 L13.1122825,22.2126014 C13.3162443,22.2126014 13.5101043,22.0471229 13.5101043,21.84268 L13.5101043,15.4866703 L13.7737154,15.4866703 C14.2836201,15.4866703 14.7425343,15.2346042 14.9214819,14.7569294 C15.0999486,14.2811787 14.9666999,13.7784897 14.5833093,13.4432034 L14.5833093,13.4432034 Z" id="Page-1"></path>
            </g>
            <g id="sports" transform="translate(1762.000000, 18.000000)">
                <path d="M6.6,18.7878788 L8.4,18.7878788 L8.4,18.1818182 L6.6,18.1818182 L6.6,18.7878788 Z M6.6,17.5757576 L10.2,17.5757576 L10.2,16.969697 L6.6,16.969697 L6.6,17.5757576 Z M18,1.21212121 C17.7275218,4.31326162 16.0361412,7.24844643 13.2,8.48484848 C13.4533964,8.00644344 13.7019979,7.48335221 13.9312729,6.90571754 C15.7685558,5.65096584 16.515241,3.70898711 16.8165376,2.24996293 L15.0221642,2.24996293 C15.0549458,1.91077254 15.0790671,1.56440405 15.0961918,1.21212121 L18,1.21212121 Z M4.07096886,6.91029313 C4.29971226,7.48624771 4.54753795,8.00774877 4.8,8.48484848 C1.96371844,7.25242086 0.272227588,4.31536569 0,1.21212121 L2.90572936,1.21212121 C2.9229083,1.56420009 2.94687096,1.91026787 2.97966712,2.24921325 L1.18046628,2.24921325 C1.48163452,3.7104669 2.22930871,5.65664985 4.07096886,6.91029313 L4.07096886,6.91029313 Z M6,18.7878788 L12,18.7878788 L12,16.3636364 L6,16.3636364 L6,18.7878788 Z M10.0712816,12.7272727 L7.93797551,12.7272727 C7.86279184,13.7131935 7.4112,15.1903624 5.69906939,15.1903624 L4.8,15.1903624 L4.8,20 L13.2,20 L13.2,15.1903624 L12.3102857,15.1903624 C10.5487347,15.1903624 10.1464653,13.7131935 10.0712816,12.7272727 L10.0712816,12.7272727 Z M6.5733936,1.21212121 C6.58071886,4.05967616 7.09758586,7.13367851 8.4,9.6969697 C6.77409706,7.55831084 5.54153453,4.86756538 5.4,1.21212121 L6.5733936,1.21212121 Z M9.73334672,12.1212121 C10.2341278,9.57159866 13.8,7.61528252 13.8,0 L3.6,0 C3.6,7.61533158 7.16605834,9.57164772 7.66669982,12.1212121 L9.73334672,12.1212121 Z" id="Page-1"></path>
            </g>
            <g id="universities" transform="translate(1821.000000, 21.000000)">
                <path d="M0.583389329,3.73880835 L0,10.3871502 L0.583389329,12.3806465 L1.12390808,10.3871502 L0.583389329,3.73880835 Z M10.24449,9.26926663 L0.516563634,3.20191161 L10.2713681,0 L20,3.15706071 L10.24449,9.26926663 Z M17.0424002,9.14436189 L16.5250974,6.07105513 L10.1950679,9.95568942 L3.98706491,6.07032894 L3.47124042,9.38739359 C3.47342427,9.38289813 3.47849751,9.37840267 3.48360435,9.37318101 C3.40948797,9.50029891 3.36880124,9.63115149 3.36880124,9.76501258 C3.36880124,10.936738 8.14705685,14.5454545 9.73881199,14.5454545 C11.3320454,14.5454545 17.1462841,10.9374988 17.1462841,9.76501258 C17.1462841,9.63938165 17.1055974,9.51599845 17.0424002,9.14436189 L17.0424002,9.14436189 Z" id="Fill-1"></path>
            </g>
        </g>
    </g>
</svg>