<?xml version="1.0" encoding="utf-8"?>
<!-- Generator: Adobe Illustrator 19.2.0, SVG Export Plug-In . SVG Version: 6.00 Build 0)  -->
<svg version="1.1" id="Layer_1" xmlns="http://www.w3.org/2000/svg" xmlns:xlink="http://www.w3.org/1999/xlink" x="0px" y="0px"
	 width="557.3px" height="449.3px" viewBox="0 0 557.3 449.3" style="enable-background:new 0 0 557.3 449.3;" xml:space="preserve"
	>
<style type="text/css">
	.st0{fill:#327D7D;}
	.st1{fill:#54BABA;}
	.st2{fill:#F7FCFC;}
	.st3{fill:#B2EBEB;}
	.st4{fill:#92D6D6;}
	.st5{fill:#1F4D4D;}
</style>
<g id="Guides">
</g>
<g id="Elements">
	<polygon class="st0" points="3.5,103 0,99 7,99 	"/>
	<polygon class="st1" points="30.5,103 27,99 34,99 	"/>
	<path class="st2" d="M22.3,0.7c0.9-1,2.5-1,3.4,0l3.4,3.6c0.9,1,0.9,2.6,0,3.6l-16.5,17l16.6,17.2c0.9,1,0.9,2.6,0,3.6l-3.4,3.6
		c-0.9,1-2.5,1-3.4,0L0.7,26.7c-0.9-1-0.9-2.6,0-3.6L22.3,0.7z"/>
	<path class="st3" d="M72.3,0.7c0.9-1,2.5-1,3.4,0l3.4,3.6c0.9,1,0.9,2.6,0,3.6l-16.5,17l16.6,17.2c0.9,1,0.9,2.6,0,3.6l-3.4,3.6
		c-0.9,1-2.5,1-3.4,0L50.7,26.7c-0.9-1-0.9-2.6,0-3.6L72.3,0.7z"/>
	<path class="st2" d="M157.7,49.3c-0.9,1-2.5,1-3.4,0l-3.4-3.6c-0.9-1-0.9-2.6,0-3.6l16.5-17L150.7,7.9c-0.9-1-0.9-2.6,0-3.6
		l3.4-3.6c0.9-1,2.5-1,3.4,0l21.7,22.5c0.9,1,0.9,2.6,0,3.6L157.7,49.3z"/>
	<path class="st3" d="M207.7,49.3c-0.9,1-2.5,1-3.4,0l-3.4-3.6c-0.9-1-0.9-2.6,0-3.6l16.5-17L200.7,7.9c-0.9-1-0.9-2.6,0-3.6
		l3.4-3.6c0.9-1,2.5-1,3.4,0l21.7,22.5c0.9,1,0.9,2.6,0,3.6L207.7,49.3z"/>
	<path class="st0" d="M0.4,75c1.4,1.3,2.8,2.6,4.2,3.8c0.6,0.5,1.5-0.3,0.9-0.9c-1.3-1.1-2.5-2.3-3.8-3.5C3,73.3,4.3,72.2,5.6,71
		c0.6-0.5-0.3-1.4-0.9-0.9c-1.4,1.3-2.8,2.5-4.3,3.8C0.2,74.2,0.2,74.8,0.4,75z"/>
	<path class="st1" d="M26.4,75c1.4,1.3,2.8,2.6,4.2,3.8c0.6,0.5,1.5-0.3,0.9-0.9c-1.3-1.1-2.5-2.3-3.8-3.5c1.3-1.2,2.5-2.3,3.8-3.5
		c0.6-0.5-0.3-1.4-0.9-0.9c-1.4,1.3-2.8,2.5-4.3,3.8C26.2,74.2,26.2,74.8,26.4,75z"/>
	<path class="st0" d="M83.6,74c-1.4-1.3-2.8-2.6-4.2-3.8c-0.6-0.5-1.5,0.3-0.9,0.9c1.3,1.1,2.5,2.3,3.8,3.5
		c-1.3,1.2-2.5,2.3-3.8,3.5c-0.6,0.5,0.3,1.4,0.9,0.9c1.4-1.3,2.8-2.5,4.3-3.8C83.8,74.8,83.8,74.2,83.6,74z"/>
	<path class="st1" d="M109.6,74c-1.4-1.3-2.8-2.6-4.2-3.8c-0.6-0.5-1.5,0.3-0.9,0.9c1.3,1.1,2.5,2.3,3.8,3.5
		c-1.3,1.2-2.5,2.3-3.8,3.5c-0.6,0.5,0.3,1.4,0.9,0.9c1.4-1.3,2.8-2.5,4.3-3.8C109.8,74.8,109.8,74.2,109.6,74z"/>
	<path class="st4" d="M122.3,0.7c0.9-1,2.5-1,3.4,0l3.4,3.6c0.9,1,0.9,2.6,0,3.6l-16.5,17l16.6,17.2c0.9,1,0.9,2.6,0,3.6l-3.4,3.6
		c-0.9,1-2.5,1-3.4,0l-21.7-22.5c-0.9-1-0.9-2.6,0-3.6L122.3,0.7z"/>
	<path class="st4" d="M257.7,49.3c-0.9,1-2.5,1-3.4,0l-3.4-3.6c-0.9-1-0.9-2.6,0-3.6l16.5-17L250.7,7.9c-0.9-1-0.9-2.6,0-3.6
		l3.4-3.6c0.9-1,2.5-1,3.4,0l21.7,22.5c0.9,1,0.9,2.6,0,3.6L257.7,49.3z"/>
	<path class="st5" d="M52.4,75c1.4,1.3,2.8,2.6,4.2,3.8c0.6,0.5,1.5-0.3,0.9-0.9c-1.3-1.1-2.5-2.3-3.8-3.5c1.3-1.2,2.5-2.3,3.8-3.5
		c0.6-0.5-0.3-1.4-0.9-0.9c-1.4,1.3-2.8,2.5-4.3,3.8C52.2,74.2,52.2,74.8,52.4,75z"/>
	<path class="st5" d="M135.6,74c-1.4-1.3-2.8-2.6-4.2-3.8c-0.6-0.5-1.5,0.3-0.9,0.9c1.3,1.1,2.5,2.3,3.8,3.5
		c-1.3,1.2-2.5,2.3-3.8,3.5c-0.6,0.5,0.3,1.4,0.9,0.9c1.4-1.3,2.8-2.5,4.3-3.8C135.8,74.8,135.8,74.2,135.6,74z"/>
	<polygon class="st5" points="57.5,103 54,99 61,99 	"/>
	<path class="st0" d="M0,123v15h17v-15H0z M4,137H1v-3h3V137z M4,133H1v-3h3V133z M4,129H1v-3h3V129z M8,137H5v-3h3V137z M8,133H5
		v-3h3V133z M8,129H5v-3h3V129z M12,137H9v-3h3V137z M12,133H9v-3h3V133z M12,129H9v-3h3V129z M16,137h-3v-3h3V137z M16,133h-3v-3h3
		V133z M16,129h-3v-3h3V129z"/>
	<path class="st1" d="M37,123v15h17v-15H37z M41,137h-3v-3h3V137z M41,133h-3v-3h3V133z M41,129h-3v-3h3V129z M45,137h-3v-3h3V137z
		 M45,133h-3v-3h3V133z M45,129h-3v-3h3V129z M49,137h-3v-3h3V137z M49,133h-3v-3h3V133z M49,129h-3v-3h3V129z M53,137h-3v-3h3V137z
		 M53,133h-3v-3h3V133z M53,129h-3v-3h3V129z"/>
	<path class="st5" d="M74,123v15h17v-15H74z M78,137h-3v-3h3V137z M78,133h-3v-3h3V133z M78,129h-3v-3h3V129z M82,137h-3v-3h3V137z
		 M82,133h-3v-3h3V133z M82,129h-3v-3h3V129z M86,137h-3v-3h3V137z M86,133h-3v-3h3V133z M86,129h-3v-3h3V129z M90,137h-3v-3h3V137z
		 M90,133h-3v-3h3V133z M90,129h-3v-3h3V129z"/>
	<g id="socials">
		<path id="facebook_1_" class="st0" d="M30,175c0,4.1-1.5,7.6-4.4,10.6c-2.9,2.9-6.5,4.4-10.6,4.4s-7.6-1.5-10.6-4.4
			C1.5,182.8,0,179.1,0,175s1.5-7.6,4.4-10.6c2.9-2.9,6.5-4.4,10.6-4.4s7.6,1.5,10.6,4.4C28.5,167.4,30,170.9,30,175z M19.2,171.9
			h-2.7v-1.5c0-0.5,0.1-0.8,0.2-1c0.1-0.2,0.5-0.2,1-0.2h1.5V166h-2.5c-1.4,0-2.4,0.4-2.9,1c-0.5,0.6-0.8,1.8-0.8,3.1v1.9h-2.3v3
			h2.3v9h3.4v-9H19L19.2,171.9z"/>
		<path id="twitter_1_" class="st0" d="M70,175c0,4.1-1.5,7.6-4.4,10.6c-2.9,2.9-6.5,4.4-10.6,4.4s-7.6-1.5-10.6-4.4
			c-2.9-2.9-4.4-6.5-4.4-10.6s1.5-7.6,4.4-10.6c2.9-2.9,6.5-4.4,10.6-4.4s7.6,1.5,10.6,4.4C68.5,167.4,70,170.9,70,175z M64.4,169.8
			c-0.8,0.4-1.4,0.5-2.1,0.6c0.8-0.5,1.2-1.1,1.6-2c-0.8,0.4-1.5,0.8-2.4,0.9c-0.8-0.8-1.6-1.1-2.7-1.1c-1,0-1.9,0.4-2.6,1.1
			s-1.1,1.6-1.1,2.6c0,0.4,0,0.6,0.1,0.9c-3.1-0.1-5.6-1.5-7.6-3.9c-0.4,0.6-0.5,1.2-0.5,1.9c0,1.2,0.6,2.2,1.7,3
			c-0.6,0-1.2-0.1-1.7-0.5l0,0c0,0.9,0.2,1.6,0.9,2.4c0.6,0.6,1.2,1.1,2.1,1.2c-0.4,0.1-0.6,0.1-1,0.1c-0.2,0-0.5,0-0.8,0
			c0.2,0.8,0.6,1.4,1.2,1.9s1.4,0.8,2.1,0.8c-1.4,1-2.9,1.6-4.6,1.6c-0.4,0-0.6,0-0.9,0c1.7,1.1,3.6,1.6,5.6,1.6
			c3.3,0,5.8-1.1,7.6-3.2s2.9-4.6,2.9-7.2c0-0.1,0-0.2,0-0.5C63.1,171.1,63.8,170.5,64.4,169.8L64.4,169.8z"/>
		<path id="google_1_" class="st0" d="M105.6,164.4c-2.9-2.9-6.5-4.4-10.6-4.4c-4.1,0-7.6,1.5-10.6,4.4S80,170.9,80,175
			s1.5,7.6,4.4,10.6c2.9,2.9,6.5,4.4,10.6,4.4c4.1,0,7.6-1.5,10.6-4.4c2.9-2.9,4.4-6.5,4.4-10.6S108.5,167.4,105.6,164.4z
			 M96.4,179.3c-1.6,2.4-5.1,3.1-7.7,2c-2.6-1-4.5-3.8-4.2-6.6c0-3.5,3.3-6.5,6.8-6.4c1.6-0.1,3.2,0.6,4.5,1.6
			c-0.5,0.6-1.1,1.2-1.7,1.8c-1.5-1.1-3.8-1.4-5.2-0.1c-2.2,1.5-2.2,5.1-0.1,6.8c2,1.9,6,1,6.5-1.9c-1.2,0-2.6,0-3.9,0
			c0-0.8,0-1.5,0-2.2c2.1,0,4.4,0,6.5,0C97.8,175.9,97.5,177.8,96.4,179.3z M103.8,176c0,0.6,0,1.2,0,1.9c-0.6,0-1.2,0-1.9,0
			c0-0.6,0-1.2,0-1.9c-0.6,0-1.3,0-1.9,0c0-0.6,0-1.2,0-1.9c0.6,0,1.2,0,1.9,0c0-0.6,0-1.2,0-1.9c0.6,0,1.2,0,1.9,0
			c0,0.6,0,1.2,0,1.9c0.6,0,1.2,0,1.9,0c0,0.6,0,1.2,0,1.9C105,176,104.4,176,103.8,176z"/>
		<path id="youtube_1_" class="st0" d="M150,175c0,4.1-1.5,7.6-4.4,10.6c-2.9,2.9-6.5,4.4-10.6,4.4s-7.6-1.5-10.6-4.4
			c-2.9-2.9-4.4-6.5-4.4-10.6s1.5-7.6,4.4-10.6c2.9-2.9,6.5-4.4,10.6-4.4s7.6,1.5,10.6,4.4C148.5,167.4,150,170.9,150,175z
			 M144.2,171.5c0-0.8-0.3-1.4-0.6-2c-0.4-0.6-1-0.9-1.6-1c-5.1-0.2-9.6-0.2-13.8,0c-0.6,0.1-1.1,0.5-1.6,1.1s-0.8,1.2-0.8,2
			c-0.3,2.2-0.3,4.5,0,6.8c0,0.8,0.3,1.4,0.8,2s1,1,1.6,1.1c5,0.4,9.5,0.4,13.8,0c0.6-0.1,1.1-0.5,1.6-1.1c0.5-0.6,0.8-1.2,0.8-2
			C144.4,176,144.4,173.8,144.2,171.5L144.2,171.5z M133.1,171.3l5.6,3.8l-5.6,3.8V171.3z"/>
		<path id="linkedin_1_" class="st0" d="M190,175c0,4.1-1.5,7.6-4.4,10.6c-2.9,2.9-6.5,4.4-10.6,4.4s-7.6-1.5-10.6-4.4
			c-2.9-2.9-4.4-6.5-4.4-10.6s1.5-7.6,4.4-10.6c2.9-2.9,6.5-4.4,10.6-4.4s7.6,1.5,10.6,4.4C188.5,167.4,190,170.9,190,175z
			 M171.2,169.1h-3.8v13.1h3.8V169.1z M171.2,166.6c0-0.5-0.1-0.9-0.5-1.2c-0.4-0.4-0.8-0.5-1.2-0.5c-0.5,0-0.9,0.1-1.2,0.5
			c-0.4,0.4-0.5,0.7-0.5,1.2c0,0.5,0.1,0.9,0.5,1.2c0.4,0.4,0.8,0.5,1.2,0.5c0.5,0,0.9-0.1,1.2-0.5
			C171.1,167.5,171.2,167.1,171.2,166.6z M184.4,174.3c0-1.9-0.4-3.2-1.2-4c-0.8-0.8-1.6-1.1-2.5-1.1c-1.4,0-2.6,0.4-3.8,1.2v-1.2
			h-3.8v13.1h3.8v-8.1l0.1-0.4c0.1-0.2,0.3-0.5,0.8-0.9c0.4-0.3,0.9-0.4,1.4-0.4c1,0,1.5,0.5,1.5,1.6v8.1h3.8L184.4,174.3
			L184.4,174.3z"/>
		<path id="tripadvisor_1_" class="st0" d="M215,160c-4.1,0-7.6,1.5-10.6,4.4c-2.9,2.9-4.4,6.5-4.4,10.6s1.5,7.6,4.4,10.6
			c2.9,2.9,6.5,4.4,10.6,4.4s7.6-1.5,10.6-4.4c2.9-2.9,4.4-6.5,4.4-10.6s-1.5-7.6-4.4-10.6C222.6,161.5,219.1,160,215,160
			 M207.2,169.6c0.3-0.2,0.6-0.6,1.1-0.9c1.5-0.8,3.8-1.2,6.5-1.2c2.6,0,4.6,0.4,6.1,1c0.9,0.4,1.4,0.7,1.8,1.2l0.2,0.1h4.1
			c-0.4,0.4-0.8,1.1-1.1,2c1,1.1,1.4,2.5,1.4,4c0,1.8-0.6,3.2-1.9,4.5c-1.3,1.2-2.8,1.9-4.5,1.9c-1,0-1.9-0.2-2.8-0.6
			s-1.5-1-2.1-1.6l-1.2,2.1l-1.5-2c-0.6,0.8-1.2,1.2-2.1,1.6s-1.8,0.6-2.8,0.6c-1.7,0-3.3-0.6-4.4-1.9c-1.2-1.2-1.9-2.8-1.9-4.5
			c0-1.4,0.4-2.6,1.2-3.8c-0.4-1-0.8-1.8-1.1-2.2h4.4L207.2,169.6 M217.6,172.5c-1,1-1.5,2.1-1.5,3.6c0,1.4,0.5,2.6,1.5,3.6
			c1,1,2.2,1.5,3.6,1.5s2.6-0.5,3.6-1.5c1-1,1.5-2.2,1.5-3.6s-0.5-2.6-1.5-3.6c-1-1-2.1-1.5-3.6-1.5
			C219.7,171,218.6,171.5,217.6,172.5 M218.1,176c0-0.9,0.3-1.5,0.9-2.1s1.4-0.9,2.1-0.9c0.9,0,1.5,0.2,2.1,0.9s0.9,1.2,0.9,2.1
			c0,0.9-0.3,1.5-0.9,2.1s-1.4,0.9-2.1,0.9c-0.9,0-1.5-0.2-2.1-0.9C218.5,177.6,218.1,176.9,218.1,176 M219.7,174.5
			c-0.4,0.4-0.6,0.9-0.6,1.5s0.3,1.1,0.6,1.5s0.9,0.6,1.5,0.6c0.6,0,1.1-0.2,1.5-0.6c0.4-0.4,0.6-0.9,0.6-1.5s-0.3-1.1-0.6-1.5
			c-0.4-0.4-0.9-0.6-1.5-0.6C220.6,174,220.1,174.1,219.7,174.5 M220.1,176c0-0.3,0.1-0.5,0.2-0.8c0.3-0.2,0.5-0.2,0.8-0.2
			s0.5,0.1,0.8,0.2c0.2,0.1,0.2,0.5,0.2,0.8s-0.1,0.5-0.2,0.7c-0.3,0.2-0.5,0.2-0.8,0.2s-0.5-0.1-0.8-0.2
			C220.2,176.6,220.1,176.4,220.1,176 M205.2,172.5c-1,1-1.5,2.1-1.5,3.6c0,1.4,0.5,2.6,1.5,3.6c1,1,2.1,1.5,3.6,1.5
			c1.4,0,2.6-0.5,3.6-1.5s1.5-2.2,1.5-3.6s-0.5-2.6-1.5-3.6c-1-1-2.1-1.5-3.6-1.5C207.4,171,206.2,171.5,205.2,172.5 M205.7,176
			c0-0.9,0.2-1.5,0.9-2.1c0.6-0.6,1.2-0.9,2.1-0.9c0.9,0,1.5,0.2,2.1,0.9s0.9,1.2,0.9,2.1c0,0.9-0.3,1.5-0.9,2.1s-1.4,0.9-2.1,0.9
			c-0.9,0-1.5-0.2-2.1-0.9C206.1,177.6,205.7,176.9,205.7,176 M210.9,176c0-0.6-0.3-1.1-0.6-1.5c-0.4-0.4-0.9-0.6-1.5-0.6
			c-0.6,0-1.1,0.3-1.5,0.6c-0.4,0.4-0.6,0.9-0.6,1.5s0.3,1.1,0.6,1.5s0.9,0.6,1.5,0.6c0.6,0,1.1-0.2,1.5-0.6
			C210.7,177.1,210.9,176.6,210.9,176 M208.1,175.4c0.3-0.3,0.4-0.3,0.8-0.3c0.2,0,0.5,0.1,0.8,0.3c0.3,0.2,0.3,0.5,0.3,0.7
			c0,0.2-0.1,0.5-0.3,0.8c-0.3,0.2-0.4,0.2-0.8,0.2c-0.3,0-0.5-0.1-0.8-0.2c-0.3-0.2-0.3-0.4-0.3-0.8
			C207.7,175.8,207.9,175.5,208.1,175.4 M209.6,170c0.6,0,1.2,0.1,1.8,0.4c1.7,0.6,2.9,2,3.6,4.2c0.8-2.1,1.9-3.5,3.6-4.2
			c0.8-0.3,1.4-0.4,2.1-0.4c-0.3-0.1-0.6-0.4-1-0.5c-1.2-0.6-2.8-0.9-4.5-0.9h-0.5c-1.7,0-3.2,0.2-4.5,0.9l-0.9,0.6L209.6,170"/>
		<path id="pinterest_1_" class="st0" d="M255,160c-8.3,0-15,6.8-15,15c0,8.2,6.7,15,15,15s15-6.8,15-15
			C270,166.8,263.2,160,255,160z M263,172.8c0,1-0.1,2.1-0.5,3.1c-0.4,1.1-1,2.2-1.8,3.1c-0.9,0.9-2,1.5-3.2,1.6
			c-0.6,0.1-1.4,0.1-2-0.1c-0.6-0.2-1.2-0.5-1.6-1c-0.1-0.1-0.1-0.1-0.3-0.2c-0.1,0.2-0.1,0.5-0.2,0.9c-0.3,0.8-0.4,1.6-0.6,2.4
			c-0.6,2.2-2.2,3.9-2.2,3.9s-0.9-2.1-0.1-5c0.5-2,1-4,1.4-5.9v-0.1c-0.2-0.5-0.4-1.1-0.4-1.6c0-0.8,0.1-1.4,0.5-2
			c0.3-0.5,0.8-1,1.4-1.1s1.1-0.1,1.6,0.4c0.4,0.2,0.5,0.8,0.5,1.1c0,0.5,0,1-0.1,1.5c-0.3,0.8-0.5,1.6-0.8,2.4
			c-0.1,0.4-0.3,0.6-0.3,1c0,0.9,0.6,1.6,1.5,1.9c0.9,0.1,1.5-0.1,2.1-0.6s1-1.1,1.2-1.9c0.4-0.8,0.5-1.6,0.6-2.5
			c0.1-0.6,0.1-1.1,0.1-1.8c-0.1-1.9-1.2-3.4-3.1-3.9c-1.5-0.5-3.1-0.4-4.6,0.4c-1.6,0.8-2.5,2-3,3.6c-0.3,0.8-0.3,1.4-0.1,2.1
			c0.1,0.6,0.4,1.1,0.8,1.6l0.1,0.1c0.1,0.1,0.1,0.2,0.1,0.4c-0.1,0.4-0.1,0.8-0.3,1s-0.4,0.4-0.6,0.2c-0.8-0.2-1.2-0.9-1.8-1.5
			c-0.4-0.6-0.6-1.4-0.6-2.1c-0.1-0.5-0.1-1.1,0-1.6c0.1-0.9,0.3-1.6,0.6-2.4c1.1-2.1,2.8-3.5,5.1-4.1c0.8-0.2,1.5-0.4,2.4-0.4
			c1.1,0,2.2,0.1,3.4,0.5c1.9,0.8,3.2,2,4.1,3.9C262.9,171,263,171.9,263,172.8z"/>
	</g>
	<path class="st0" d="M298.5,167.9c-0.9,0-1.2,0-3.5,0c-2.3,0-2.6,0-3.5,0c-2.4,0.1-3.5,1.2-3.6,3.6c0,0.9-0.1,1.2-0.1,3.5
		c0,2.3,0,2.6,0.1,3.5c0.1,2.3,1.2,3.5,3.6,3.6c0.9,0,1.2,0.1,3.5,0.1c2.3,0,2.6,0,3.5-0.1c2.4-0.1,3.5-1.2,3.6-3.6
		c0-0.9,0-1.2,0-3.5c0-2.3,0-2.6,0-3.5C302,169.1,300.9,168,298.5,167.9z M295,179.5c-2.5,0-4.5-2-4.5-4.5c0-2.5,2-4.5,4.5-4.5
		c2.5,0,4.5,2,4.5,4.5C299.5,177.5,297.5,179.5,295,179.5z M299.7,171.4c-0.6,0-1-0.5-1-1.1c0-0.6,0.5-1,1-1s1,0.5,1,1
		C300.7,170.9,300.3,171.4,299.7,171.4z M297.9,175c0,1.6-1.3,2.9-2.9,2.9c-1.6,0-2.9-1.3-2.9-2.9c0-1.6,1.3-2.9,2.9-2.9
		C296.6,172.1,297.9,173.4,297.9,175z M295,160c-8.3,0-15,6.7-15,15c0,8.3,6.7,15,15,15c8.3,0,15-6.7,15-15
		C310,166.7,303.3,160,295,160z M303.7,178.6c-0.1,3.2-1.9,4.9-5.1,5.1c-0.9,0-1.2,0.1-3.6,0.1c-2.4,0-2.7,0-3.6-0.1
		c-3.2-0.1-4.9-1.9-5.1-5.1c0-0.9-0.1-1.2-0.1-3.6c0-2.4,0-2.7,0.1-3.6c0.1-3.2,1.9-4.9,5.1-5.1c0.9,0,1.2-0.1,3.6-0.1
		c2.4,0,2.7,0,3.6,0.1c3.2,0.1,4.9,1.9,5.1,5.1c0,0.9,0.1,1.2,0.1,3.6C303.7,177.4,303.7,177.7,303.7,178.6z"/>
	<path class="st0" d="M0,260v30h30v-30H0z M19.3,269.1h-1.5c-0.5,0-0.9,0-1,0.2s-0.2,0.5-0.2,1v1.5h2.8l-0.3,3.1h-2.5v9h-3.4v-9
		h-2.2v-3h2.2v-1.9c0-1.4,0.3-2.5,0.8-3.1s1.5-1,2.9-1h2.5V269.1z"/>
	<path class="st0" d="M40,260v30h30v-30H40z M62.2,271.9c0,0.2,0,0.4,0,0.5c0,2.6-1,5.1-2.9,7.2s-4.4,3.2-7.6,3.2
		c-2,0-3.9-0.5-5.6-1.6c0.2,0,0.5,0,0.9,0c1.8,0,3.2-0.6,4.6-1.6c-0.8,0-1.5-0.2-2.1-0.8s-1-1.1-1.2-1.9c0.2,0,0.5,0,0.8,0
		c0.4,0,0.6,0,1-0.1c-0.9-0.1-1.5-0.6-2.1-1.2c-0.6-0.8-0.9-1.5-0.9-2.4c0.5,0.4,1.1,0.5,1.8,0.5c-1.1-0.8-1.8-1.8-1.8-3
		c0-0.6,0.1-1.2,0.5-1.9c2,2.4,4.5,3.8,7.6,3.9c-0.1-0.2-0.1-0.5-0.1-0.9c0-1,0.4-1.9,1.1-2.6s1.6-1.1,2.6-1.1c1.1,0,2,0.4,2.8,1.1
		c0.9-0.1,1.6-0.5,2.4-0.9c-0.4,0.9-0.9,1.5-1.6,2c0.8-0.1,1.4-0.2,2.1-0.6C63.8,270.5,63.1,271.1,62.2,271.9z"/>
	<path class="st0" d="M80,260v30h30v-30H80z M96.4,279.3c-1.6,2.4-5.1,3.1-7.8,2c-2.6-1-4.5-3.8-4.2-6.6c0-3.5,3.2-6.5,6.8-6.4
		c1.6-0.1,3.2,0.6,4.5,1.6c-0.5,0.6-1.1,1.2-1.8,1.8c-1.5-1.1-3.8-1.4-5.2-0.1c-2.2,1.5-2.2,5.1-0.1,6.8c2,1.9,6,1,6.5-1.9
		c-1.2,0-2.6,0-3.9,0c0-0.8,0-1.5,0-2.2c2.1,0,4.4,0,6.5,0C97.8,275.9,97.5,277.8,96.4,279.3z M105.6,276c-0.6,0-1.2,0-1.9,0
		c0,0.6,0,1.2,0,1.9c-0.6,0-1.2,0-1.9,0c0-0.6,0-1.2,0-1.9c-0.6,0-1.2,0-1.9,0c0-0.6,0-1.2,0-1.9c0.6,0,1.2,0,1.9,0
		c0-0.6,0-1.2,0-1.9c0.6,0,1.2,0,1.9,0c0,0.6,0,1.2,0,1.9c0.6,0,1.2,0,1.9,0C105.6,274.8,105.6,275.4,105.6,276z"/>
	<g>
		<polygon class="st0" points="133.1,278.8 138.8,275 133.1,271.3 		"/>
		<path class="st0" d="M120,260v30h30v-30H120z M143.6,280.4c-0.5,0.6-1,1-1.6,1.1c-4.2,0.4-8.8,0.4-13.8,0
			c-0.6-0.1-1.1-0.5-1.6-1.1s-0.8-1.2-0.8-2c-0.2-2.3-0.2-4.5,0-6.8c0-0.7,0.2-1.4,0.8-2s1-1,1.6-1.1c4.1-0.2,8.6-0.2,13.8,0
			c0.6,0.1,1.2,0.4,1.6,1c0.4,0.6,0.6,1.2,0.6,2c0.1,2.2,0.1,4.5,0.1,6.9C144.4,279.1,144.1,279.8,143.6,280.4z"/>
	</g>
	<path class="st0" d="M160,260v30h30v-30H160z M171.2,282.3h-3.8v-13.1h3.8V282.3z M170.8,267.9c-0.4,0.4-0.8,0.5-1.2,0.5
		s-0.9-0.1-1.2-0.5s-0.5-0.8-0.5-1.2s0.1-0.9,0.5-1.2s0.8-0.5,1.2-0.5s0.9,0.1,1.2,0.5s0.5,0.8,0.5,1.2S171.1,267.5,170.8,267.9z
		 M184.4,282.3h-3.8v-8.1c0-1.1-0.5-1.6-1.5-1.6c-0.5,0-1,0.1-1.4,0.4c-0.5,0.4-0.6,0.6-0.8,0.9l-0.1,0.4v8.1h-3.8v-13.1h3.8v1.2
		c1.1-0.9,2.4-1.2,3.8-1.2c0.9,0,1.8,0.4,2.5,1.1c0.9,0.8,1.2,2.1,1.2,4V282.3z"/>
	<g>
		<path class="st0" d="M208.9,271c-1.5,0-2.6,0.5-3.6,1.5s-1.5,2.1-1.5,3.6c0,1.4,0.5,2.6,1.5,3.6s2.1,1.5,3.6,1.5
			c1.4,0,2.6-0.5,3.6-1.5c1-1,1.5-2.2,1.5-3.6s-0.5-2.6-1.5-3.6S210.4,271,208.9,271z M210.9,278.1c-0.6,0.6-1.4,0.9-2.1,0.9
			c-0.9,0-1.5-0.2-2.1-0.9c-0.5-0.5-0.9-1.2-0.9-2.1s0.2-1.5,0.9-2.1s1.2-0.9,2.1-0.9c0.9,0,1.5,0.2,2.1,0.9s0.9,1.2,0.9,2.1
			S211.5,277.5,210.9,278.1z"/>
		<path class="st0" d="M208.8,273.9c-0.6,0-1.1,0.2-1.5,0.6c-0.4,0.4-0.6,0.9-0.6,1.5s0.3,1.1,0.6,1.5c0.4,0.4,0.9,0.6,1.5,0.6
			c0.6,0,1.1-0.2,1.5-0.6c0.5-0.4,0.6-0.9,0.6-1.5s-0.2-1.1-0.6-1.5S209.4,273.9,208.8,273.9z M209.6,276.9
			c-0.3,0.2-0.4,0.2-0.8,0.2c-0.2,0-0.5-0.1-0.8-0.2c-0.3-0.2-0.3-0.4-0.3-0.8c-0.1-0.4,0-0.6,0.3-0.8c0.2-0.2,0.4-0.2,0.8-0.2
			c0.2,0,0.5,0.1,0.8,0.2c0.2,0.2,0.2,0.5,0.2,0.8S209.8,276.6,209.6,276.9z"/>
		<path class="st0" d="M221.2,273.9c-0.6,0.1-1.1,0.2-1.5,0.6c-0.4,0.4-0.6,0.9-0.6,1.5s0.3,1.1,0.6,1.5c0.4,0.4,0.9,0.6,1.5,0.6
			c0.6,0,1.1-0.2,1.5-0.6s0.6-0.9,0.6-1.5s-0.2-1.1-0.6-1.5S221.9,273.9,221.2,273.9z M221.9,276.8c-0.2,0.2-0.5,0.2-0.8,0.2
			s-0.5-0.1-0.8-0.2c-0.1-0.1-0.2-0.4-0.2-0.8c0-0.2,0.1-0.5,0.2-0.8c0.2-0.2,0.5-0.2,0.8-0.2s0.5,0.1,0.8,0.2
			c0.3,0.1,0.3,0.5,0.3,0.8S222,276.5,221.9,276.8z"/>
		<path class="st0" d="M218.6,270.4c0.8-0.2,1.4-0.4,2.1-0.4c-0.2-0.1-0.6-0.4-1-0.5c-1.2-0.6-2.8-0.9-4.5-0.9h-0.5
			c-1.8,0-3.2,0.2-4.5,0.9l-0.9,0.6l0.3-0.1c0.6,0,1.2,0.1,1.8,0.4c1.7,0.6,2.9,2,3.6,4.2C215.8,272.5,216.9,271.1,218.6,270.4z"/>
		<path class="st0" d="M221.2,271c-1.5,0-2.6,0.5-3.6,1.5s-1.5,2.1-1.5,3.6c0,1.4,0.5,2.6,1.5,3.6c1,1,2.2,1.5,3.6,1.5
			s2.6-0.5,3.6-1.5c1-1,1.5-2.2,1.5-3.6s-0.5-2.6-1.5-3.6S222.7,271,221.2,271z M223.2,278.1c-0.6,0.6-1.4,0.9-2.1,0.9
			c-0.9,0-1.5-0.2-2.1-0.9c-0.5-0.5-0.9-1.2-0.9-2.1s0.2-1.5,0.9-2.1s1.4-0.9,2.1-0.9c0.9,0,1.5,0.2,2.1,0.9s0.9,1.2,0.9,2.1
			S223.9,277.5,223.2,278.1z"/>
		<path class="st0" d="M200,260v30h30v-30H200z M225.5,280.4c-1.2,1.2-2.8,1.9-4.5,1.9c-1,0-1.9-0.2-2.8-0.6s-1.5-1-2.1-1.6
			l-1.2,2.1l-1.5-2c-0.6,0.8-1.2,1.2-2.1,1.6c-0.9,0.4-1.7,0.6-2.8,0.6c-1.8,0-3.2-0.6-4.4-1.9c-1.2-1.2-1.9-2.8-1.9-4.5
			c0-1.4,0.4-2.6,1.2-3.8c-0.4-1-0.8-1.8-1.1-2.2h4.4l0.5-0.4c0.3-0.2,0.6-0.6,1.1-0.9c1.5-0.8,3.8-1.2,6.5-1.2c2.6,0,4.6,0.4,6.1,1
			c0.9,0.4,1.4,0.8,1.8,1.2l0.3,0.1h4.1c-0.4,0.4-0.8,1.1-1.1,2c1,1.1,1.4,2.5,1.4,4C227.4,277.6,226.8,279.1,225.5,280.4z"/>
	</g>
	<path class="st0" d="M240,260v30h30v-30H240z M262.5,275.9c-0.4,1.1-1,2.2-1.8,3.1c-0.9,0.9-2,1.5-3.2,1.6c-0.6,0.1-1.4,0.1-2-0.1
		s-1.2-0.5-1.6-1c-0.1-0.1-0.1-0.1-0.2-0.2c-0.1,0.2-0.1,0.5-0.3,0.9c-0.2,0.8-0.4,1.6-0.6,2.4c-0.6,2.2-2.2,3.9-2.2,3.9
		s-0.9-2.1-0.1-5c0.5-2,1-4,1.4-5.9v-0.1c-0.3-0.5-0.4-1.1-0.4-1.6c0-0.7,0.1-1.4,0.5-2c0.2-0.5,0.8-1,1.4-1.1
		c0.6-0.1,1.1-0.1,1.6,0.4c0.4,0.2,0.5,0.8,0.5,1.1c0,0.5,0,1-0.1,1.5c-0.2,0.7-0.5,1.6-0.8,2.4c-0.1,0.4-0.2,0.6-0.2,1
		c0,0.9,0.6,1.6,1.5,1.9c0.9,0.1,1.5-0.1,2.1-0.6s1-1.1,1.2-1.9c0.4-0.8,0.5-1.6,0.6-2.5c0.1-0.6,0.1-1.1,0.1-1.8
		c-0.1-1.9-1.2-3.4-3.1-3.9c-1.5-0.5-3.1-0.4-4.6,0.4c-1.6,0.7-2.5,2-3,3.6c-0.2,0.8-0.2,1.4-0.1,2.1c0.1,0.6,0.4,1.1,0.8,1.6
		l0.1,0.1c0.1,0.1,0.1,0.2,0.1,0.4c-0.1,0.4-0.1,0.7-0.3,1c-0.1,0.3-0.4,0.4-0.6,0.3c-0.8-0.3-1.2-0.9-1.7-1.5
		c-0.4-0.6-0.6-1.4-0.6-2.1c-0.1-0.5-0.1-1.1,0-1.6c0.1-0.9,0.2-1.6,0.6-2.4c1.1-2.1,2.8-3.5,5.1-4.1c0.8-0.2,1.5-0.4,2.4-0.4
		c1.1,0,2.2,0.1,3.4,0.5c1.9,0.7,3.2,2,4.1,3.9c0.5,1,0.6,1.9,0.6,2.8C263,273.8,262.9,274.9,262.5,275.9z"/>
	<g>
		<circle class="st0" cx="295" cy="275" r="2.9"/>
		<path class="st0" d="M298.5,267.9c-0.9,0-1.2,0-3.5,0s-2.6,0-3.5,0c-2.4,0.1-3.5,1.2-3.6,3.6c0,0.9-0.1,1.2-0.1,3.5s0,2.6,0.1,3.5
			c0.1,2.3,1.2,3.5,3.6,3.6c0.9,0,1.2,0.1,3.5,0.1c2.3,0,2.6,0,3.5-0.1c2.4-0.1,3.5-1.2,3.6-3.6c0-0.9,0-1.2,0-3.5s0-2.6,0-3.5
			C302,269.1,300.9,268,298.5,267.9z M295,279.5c-2.5,0-4.5-2-4.5-4.5c0-2.5,2-4.5,4.5-4.5c2.5,0,4.5,2,4.5,4.5
			S297.5,279.5,295,279.5z M299.7,271.4c-0.6,0-1-0.5-1-1c0-0.6,0.5-1.1,1-1.1s1,0.5,1,1.1C300.7,270.9,300.3,271.4,299.7,271.4z"/>
		<path class="st0" d="M280,260v30h30v-30H280z M303.7,278.6c-0.1,3.2-1.9,4.9-5.1,5.1c-0.9,0-1.2,0.1-3.6,0.1c-2.4,0-2.7,0-3.6-0.1
			c-3.2-0.1-4.9-1.9-5.1-5.1c0-0.9-0.1-1.2-0.1-3.6c0-2.4,0-2.7,0.1-3.6c0.1-3.2,1.9-4.9,5.1-5.1c0.9,0,1.2-0.1,3.6-0.1
			c2.4,0,2.7,0,3.6,0.1c3.2,0.1,4.9,1.9,5.1,5.1c0,0.9,0.1,1.2,0.1,3.6C303.8,277.4,303.7,277.7,303.7,278.6z"/>
	</g>
	<g>
		<path class="st0" d="M320,260v30h30v-30H320z M328.5,284.1c-1.4,0-2.6-1.2-2.6-2.6c0-1.4,1.2-2.6,2.6-2.6c1.4,0,2.6,1.2,2.6,2.6
			C331.1,282.9,330,284.1,328.5,284.1z M337.8,284.1h-3.3c-0.3,0-0.5-0.2-0.5-0.5c0-2-0.8-4-2.2-5.4c-1.4-1.4-3.4-2.2-5.4-2.2
			c-0.3,0-0.5-0.2-0.5-0.5v-3.3c0-0.2,0.2-0.5,0.5-0.5c6.5,0,11.9,5.3,11.9,11.9C338.2,283.9,338,284.1,337.8,284.1z M343.6,284.1
			h-3.3c-0.3,0-0.5-0.2-0.5-0.5c0-7.5-6.1-13.5-13.5-13.5c-0.3,0-0.5-0.2-0.5-0.5v-3.3c0-0.2,0.2-0.5,0.5-0.5
			c9.8,0,17.7,8,17.7,17.7C344.1,283.9,343.9,284.1,343.6,284.1z"/>
	</g>
	<path class="st1" d="M0,300v30h30v-30H0z M19.3,309.1h-1.5c-0.5,0-0.9,0-1,0.2s-0.2,0.5-0.2,1v1.5h2.8l-0.3,3.1h-2.5v9h-3.4v-9
		h-2.2v-3h2.2v-1.9c0-1.4,0.3-2.5,0.8-3.1s1.5-1,2.9-1h2.5V309.1z"/>
	<path class="st1" d="M40,300v30h30v-30H40z M62.2,311.9c0,0.2,0,0.4,0,0.5c0,2.6-1,5.1-2.9,7.2s-4.4,3.2-7.6,3.2
		c-2,0-3.9-0.5-5.6-1.6c0.2,0,0.5,0,0.9,0c1.8,0,3.2-0.6,4.6-1.6c-0.8,0-1.5-0.2-2.1-0.8s-1-1.1-1.2-1.9c0.2,0,0.5,0,0.8,0
		c0.4,0,0.6,0,1-0.1c-0.9-0.1-1.5-0.6-2.1-1.2c-0.6-0.8-0.9-1.5-0.9-2.4c0.5,0.4,1.1,0.5,1.8,0.5c-1.1-0.8-1.8-1.8-1.8-3
		c0-0.6,0.1-1.2,0.5-1.9c2,2.4,4.5,3.8,7.6,3.9c-0.1-0.2-0.1-0.5-0.1-0.9c0-1,0.4-1.9,1.1-2.6s1.6-1.1,2.6-1.1c1.1,0,2,0.4,2.8,1.1
		c0.9-0.1,1.6-0.5,2.4-0.9c-0.4,0.9-0.9,1.5-1.6,2c0.8-0.1,1.4-0.2,2.1-0.6C63.8,310.5,63.1,311.1,62.2,311.9z"/>
	<path class="st1" d="M80,300v30h30v-30H80z M96.4,319.3c-1.6,2.4-5.1,3.1-7.8,2c-2.6-1-4.5-3.8-4.2-6.6c0-3.5,3.2-6.5,6.8-6.4
		c1.6-0.1,3.2,0.6,4.5,1.6c-0.5,0.6-1.1,1.2-1.8,1.8c-1.5-1.1-3.8-1.4-5.2-0.1c-2.2,1.5-2.2,5.1-0.1,6.8c2,1.9,6,1,6.5-1.9
		c-1.2,0-2.6,0-3.9,0c0-0.8,0-1.5,0-2.2c2.1,0,4.4,0,6.5,0C97.8,315.9,97.5,317.8,96.4,319.3z M105.6,316c-0.6,0-1.2,0-1.9,0
		c0,0.6,0,1.2,0,1.9c-0.6,0-1.2,0-1.9,0c0-0.6,0-1.2,0-1.9c-0.6,0-1.2,0-1.9,0c0-0.6,0-1.2,0-1.9c0.6,0,1.2,0,1.9,0
		c0-0.6,0-1.2,0-1.9c0.6,0,1.2,0,1.9,0c0,0.6,0,1.2,0,1.9c0.6,0,1.2,0,1.9,0C105.6,314.8,105.6,315.4,105.6,316z"/>
	<g>
		<polygon class="st1" points="133.1,318.8 138.8,315 133.1,311.3 		"/>
		<path class="st1" d="M120,300v30h30v-30H120z M143.6,320.4c-0.5,0.6-1,1-1.6,1.1c-4.2,0.4-8.8,0.4-13.8,0
			c-0.6-0.1-1.1-0.5-1.6-1.1s-0.8-1.2-0.8-2c-0.2-2.3-0.2-4.5,0-6.8c0-0.7,0.2-1.4,0.8-2s1-1,1.6-1.1c4.1-0.2,8.6-0.2,13.8,0
			c0.6,0.1,1.2,0.4,1.6,1c0.4,0.6,0.6,1.2,0.6,2c0.1,2.2,0.1,4.5,0.1,6.9C144.4,319.1,144.1,319.8,143.6,320.4z"/>
	</g>
	<path class="st1" d="M160,300v30h30v-30H160z M171.2,322.3h-3.8v-13.1h3.8V322.3z M170.8,307.9c-0.4,0.4-0.8,0.5-1.2,0.5
		s-0.9-0.1-1.2-0.5s-0.5-0.8-0.5-1.2s0.1-0.9,0.5-1.2s0.8-0.5,1.2-0.5s0.9,0.1,1.2,0.5s0.5,0.8,0.5,1.2S171.1,307.5,170.8,307.9z
		 M184.4,322.3h-3.8v-8.1c0-1.1-0.5-1.6-1.5-1.6c-0.5,0-1,0.1-1.4,0.4c-0.5,0.4-0.6,0.6-0.8,0.9l-0.1,0.4v8.1h-3.8v-13.1h3.8v1.2
		c1.1-0.9,2.4-1.2,3.8-1.2c0.9,0,1.8,0.4,2.5,1.1c0.9,0.8,1.2,2.1,1.2,4V322.3z"/>
	<g>
		<path class="st1" d="M208.9,311c-1.5,0-2.6,0.5-3.6,1.5s-1.5,2.1-1.5,3.6c0,1.4,0.5,2.6,1.5,3.6s2.1,1.5,3.6,1.5
			c1.4,0,2.6-0.5,3.6-1.5c1-1,1.5-2.2,1.5-3.6s-0.5-2.6-1.5-3.6S210.4,311,208.9,311z M210.9,318.1c-0.6,0.6-1.4,0.9-2.1,0.9
			c-0.9,0-1.5-0.2-2.1-0.9c-0.5-0.5-0.9-1.2-0.9-2.1s0.2-1.5,0.9-2.1s1.2-0.9,2.1-0.9c0.9,0,1.5,0.2,2.1,0.9s0.9,1.2,0.9,2.1
			S211.5,317.5,210.9,318.1z"/>
		<path class="st1" d="M208.8,313.9c-0.6,0-1.1,0.2-1.5,0.6c-0.4,0.4-0.6,0.9-0.6,1.5s0.3,1.1,0.6,1.5c0.4,0.4,0.9,0.6,1.5,0.6
			c0.6,0,1.1-0.2,1.5-0.6c0.5-0.4,0.6-0.9,0.6-1.5s-0.2-1.1-0.6-1.5S209.4,313.9,208.8,313.9z M209.6,316.9
			c-0.3,0.2-0.4,0.2-0.8,0.2c-0.2,0-0.5-0.1-0.8-0.2c-0.3-0.2-0.3-0.4-0.3-0.8c-0.1-0.4,0-0.6,0.3-0.8c0.2-0.2,0.4-0.2,0.8-0.2
			c0.2,0,0.5,0.1,0.8,0.2c0.2,0.2,0.2,0.5,0.2,0.8S209.8,316.6,209.6,316.9z"/>
		<path class="st1" d="M221.2,313.9c-0.6,0.1-1.1,0.2-1.5,0.6c-0.4,0.4-0.6,0.9-0.6,1.5s0.3,1.1,0.6,1.5c0.4,0.4,0.9,0.6,1.5,0.6
			c0.6,0,1.1-0.2,1.5-0.6s0.6-0.9,0.6-1.5s-0.2-1.1-0.6-1.5S221.9,313.9,221.2,313.9z M221.9,316.8c-0.2,0.2-0.5,0.2-0.8,0.2
			s-0.5-0.1-0.8-0.2c-0.1-0.1-0.2-0.4-0.2-0.8c0-0.2,0.1-0.5,0.2-0.8c0.2-0.2,0.5-0.2,0.8-0.2s0.5,0.1,0.8,0.2
			c0.3,0.1,0.3,0.5,0.3,0.8S222,316.5,221.9,316.8z"/>
		<path class="st1" d="M218.6,310.4c0.8-0.2,1.4-0.4,2.1-0.4c-0.2-0.1-0.6-0.4-1-0.5c-1.2-0.6-2.8-0.9-4.5-0.9h-0.5
			c-1.8,0-3.2,0.2-4.5,0.9l-0.9,0.6l0.3-0.1c0.6,0,1.2,0.1,1.8,0.4c1.7,0.6,2.9,2,3.6,4.2C215.8,312.5,216.9,311.1,218.6,310.4z"/>
		<path class="st1" d="M221.2,311c-1.5,0-2.6,0.5-3.6,1.5s-1.5,2.1-1.5,3.6c0,1.4,0.5,2.6,1.5,3.6c1,1,2.2,1.5,3.6,1.5
			s2.6-0.5,3.6-1.5c1-1,1.5-2.2,1.5-3.6s-0.5-2.6-1.5-3.6S222.7,311,221.2,311z M223.2,318.1c-0.6,0.6-1.4,0.9-2.1,0.9
			c-0.9,0-1.5-0.2-2.1-0.9c-0.5-0.5-0.9-1.2-0.9-2.1s0.2-1.5,0.9-2.1s1.4-0.9,2.1-0.9c0.9,0,1.5,0.2,2.1,0.9s0.9,1.2,0.9,2.1
			S223.9,317.5,223.2,318.1z"/>
		<path class="st1" d="M200,300v30h30v-30H200z M225.5,320.4c-1.2,1.2-2.8,1.9-4.5,1.9c-1,0-1.9-0.2-2.8-0.6s-1.5-1-2.1-1.6
			l-1.2,2.1l-1.5-2c-0.6,0.8-1.2,1.2-2.1,1.6c-0.9,0.4-1.7,0.6-2.8,0.6c-1.8,0-3.2-0.6-4.4-1.9c-1.2-1.2-1.9-2.8-1.9-4.5
			c0-1.4,0.4-2.6,1.2-3.8c-0.4-1-0.8-1.8-1.1-2.2h4.4l0.5-0.4c0.3-0.2,0.6-0.6,1.1-0.9c1.5-0.8,3.8-1.2,6.5-1.2c2.6,0,4.6,0.4,6.1,1
			c0.9,0.4,1.4,0.8,1.8,1.2l0.3,0.1h4.1c-0.4,0.4-0.8,1.1-1.1,2c1,1.1,1.4,2.5,1.4,4C227.4,317.6,226.8,319.1,225.5,320.4z"/>
	</g>
	<path class="st1" d="M240,300v30h30v-30H240z M262.5,315.9c-0.4,1.1-1,2.2-1.8,3.1c-0.9,0.9-2,1.5-3.2,1.6c-0.6,0.1-1.4,0.1-2-0.1
		s-1.2-0.5-1.6-1c-0.1-0.1-0.1-0.1-0.2-0.2c-0.1,0.2-0.1,0.5-0.3,0.9c-0.2,0.8-0.4,1.6-0.6,2.4c-0.6,2.2-2.2,3.9-2.2,3.9
		s-0.9-2.1-0.1-5c0.5-2,1-4,1.4-5.9v-0.1c-0.3-0.5-0.4-1.1-0.4-1.6c0-0.7,0.1-1.4,0.5-2c0.2-0.5,0.8-1,1.4-1.1
		c0.6-0.1,1.1-0.1,1.6,0.4c0.4,0.2,0.5,0.8,0.5,1.1c0,0.5,0,1-0.1,1.5c-0.2,0.7-0.5,1.6-0.8,2.4c-0.1,0.4-0.2,0.6-0.2,1
		c0,0.9,0.6,1.6,1.5,1.9c0.9,0.1,1.5-0.1,2.1-0.6s1-1.1,1.2-1.9c0.4-0.8,0.5-1.6,0.6-2.5c0.1-0.6,0.1-1.1,0.1-1.8
		c-0.1-1.9-1.2-3.4-3.1-3.9c-1.5-0.5-3.1-0.4-4.6,0.4c-1.6,0.7-2.5,2-3,3.6c-0.2,0.8-0.2,1.4-0.1,2.1c0.1,0.6,0.4,1.1,0.8,1.6
		l0.1,0.1c0.1,0.1,0.1,0.2,0.1,0.4c-0.1,0.4-0.1,0.7-0.3,1c-0.1,0.3-0.4,0.4-0.6,0.3c-0.8-0.3-1.2-0.9-1.7-1.5
		c-0.4-0.6-0.6-1.4-0.6-2.1c-0.1-0.5-0.1-1.1,0-1.6c0.1-0.9,0.2-1.6,0.6-2.4c1.1-2.1,2.8-3.5,5.1-4.1c0.8-0.2,1.5-0.4,2.4-0.4
		c1.1,0,2.2,0.1,3.4,0.5c1.9,0.7,3.2,2,4.1,3.9c0.5,1,0.6,1.9,0.6,2.8C263,313.8,262.9,314.9,262.5,315.9z"/>
	<g>
		<circle class="st1" cx="295" cy="315" r="2.9"/>
		<path class="st1" d="M298.5,307.9c-0.9,0-1.2,0-3.5,0s-2.6,0-3.5,0c-2.4,0.1-3.5,1.2-3.6,3.6c0,0.9-0.1,1.2-0.1,3.5s0,2.6,0.1,3.5
			c0.1,2.3,1.2,3.5,3.6,3.6c0.9,0,1.2,0.1,3.5,0.1c2.3,0,2.6,0,3.5-0.1c2.4-0.1,3.5-1.2,3.6-3.6c0-0.9,0-1.2,0-3.5s0-2.6,0-3.5
			C302,309.1,300.9,308,298.5,307.9z M295,319.5c-2.5,0-4.5-2-4.5-4.5c0-2.5,2-4.5,4.5-4.5c2.5,0,4.5,2,4.5,4.5
			S297.5,319.5,295,319.5z M299.7,311.4c-0.6,0-1-0.5-1-1c0-0.6,0.5-1.1,1-1.1s1,0.5,1,1.1C300.7,310.9,300.3,311.4,299.7,311.4z"/>
		<path class="st1" d="M280,300v30h30v-30H280z M303.7,318.6c-0.1,3.2-1.9,4.9-5.1,5.1c-0.9,0-1.2,0.1-3.6,0.1c-2.4,0-2.7,0-3.6-0.1
			c-3.2-0.1-4.9-1.9-5.1-5.1c0-0.9-0.1-1.2-0.1-3.6c0-2.4,0-2.7,0.1-3.6c0.1-3.2,1.9-4.9,5.1-5.1c0.9,0,1.2-0.1,3.6-0.1
			c2.4,0,2.7,0,3.6,0.1c3.2,0.1,4.9,1.9,5.1,5.1c0,0.9,0.1,1.2,0.1,3.6C303.8,317.4,303.7,317.7,303.7,318.6z"/>
	</g>
	<g>
		<path class="st1" d="M320,300v30h30v-30H320z M328.5,324.1c-1.4,0-2.6-1.2-2.6-2.6c0-1.4,1.2-2.6,2.6-2.6c1.4,0,2.6,1.2,2.6,2.6
			C331.1,322.9,330,324.1,328.5,324.1z M337.8,324.1h-3.3c-0.3,0-0.5-0.2-0.5-0.5c0-2-0.8-4-2.2-5.4c-1.4-1.4-3.4-2.2-5.4-2.2
			c-0.3,0-0.5-0.2-0.5-0.5v-3.3c0-0.2,0.2-0.5,0.5-0.5c6.5,0,11.9,5.3,11.9,11.9C338.2,323.9,338,324.1,337.8,324.1z M343.6,324.1
			h-3.3c-0.3,0-0.5-0.2-0.5-0.5c0-7.5-6.1-13.5-13.5-13.5c-0.3,0-0.5-0.2-0.5-0.5v-3.3c0-0.2,0.2-0.5,0.5-0.5
			c9.8,0,17.7,8,17.7,17.7C344.1,323.9,343.9,324.1,343.6,324.1z"/>
	</g>
	<path class="st0" d="M335,160c-8.3,0-15,6.7-15,15c0,8.3,6.7,15,15,15s15-6.7,15-15C350,166.7,343.3,160,335,160z M328.5,184.1
		c-1.4,0-2.6-1.2-2.6-2.6c0-1.4,1.2-2.6,2.6-2.6c1.4,0,2.6,1.2,2.6,2.6C331.1,182.9,330,184.1,328.5,184.1z M337.8,184.1h-3.3
		c-0.3,0-0.5-0.2-0.5-0.5c0-2-0.8-4-2.2-5.4c-1.4-1.4-3.4-2.2-5.4-2.2c-0.3,0-0.5-0.2-0.5-0.5v-3.3c0-0.2,0.2-0.5,0.5-0.5
		c6.5,0,11.9,5.3,11.9,11.9C338.2,183.9,338,184.1,337.8,184.1z M343.6,184.1h-3.3c-0.3,0-0.5-0.2-0.5-0.5c0-7.5-6.1-13.5-13.5-13.5
		c-0.3,0-0.5-0.2-0.5-0.5v-3.3c0-0.2,0.2-0.5,0.5-0.5c9.8,0,17.7,8,17.7,17.7C344.1,183.9,343.9,184.1,343.6,184.1z"/>
	<g id="socials_1_">
		<path id="facebook_2_" class="st1" d="M30,215c0,4.1-1.5,7.6-4.4,10.6c-2.9,2.9-6.5,4.4-10.6,4.4s-7.6-1.5-10.6-4.4
			C1.5,222.8,0,219.1,0,215s1.5-7.6,4.4-10.6c2.9-2.9,6.5-4.4,10.6-4.4s7.6,1.5,10.6,4.4C28.5,207.4,30,210.9,30,215z M19.2,211.9
			h-2.7v-1.5c0-0.5,0.1-0.8,0.2-1c0.1-0.2,0.5-0.2,1-0.2h1.5V206h-2.5c-1.4,0-2.4,0.4-2.9,1c-0.5,0.6-0.8,1.8-0.8,3.1v1.9h-2.3v3
			h2.3v9h3.4v-9H19L19.2,211.9z"/>
		<path id="twitter_2_" class="st1" d="M70,215c0,4.1-1.5,7.6-4.4,10.6c-2.9,2.9-6.5,4.4-10.6,4.4s-7.6-1.5-10.6-4.4
			c-2.9-2.9-4.4-6.5-4.4-10.6s1.5-7.6,4.4-10.6c2.9-2.9,6.5-4.4,10.6-4.4s7.6,1.5,10.6,4.4C68.5,207.4,70,210.9,70,215z M64.4,209.8
			c-0.8,0.4-1.4,0.5-2.1,0.6c0.8-0.5,1.2-1.1,1.6-2c-0.8,0.4-1.5,0.8-2.4,0.9c-0.8-0.8-1.6-1.1-2.7-1.1c-1,0-1.9,0.4-2.6,1.1
			s-1.1,1.6-1.1,2.6c0,0.4,0,0.6,0.1,0.9c-3.1-0.1-5.6-1.5-7.6-3.9c-0.4,0.6-0.5,1.2-0.5,1.9c0,1.2,0.6,2.2,1.7,3
			c-0.6,0-1.2-0.1-1.7-0.5l0,0c0,0.9,0.2,1.6,0.9,2.4c0.6,0.6,1.2,1.1,2.1,1.2c-0.4,0.1-0.6,0.1-1,0.1c-0.2,0-0.5,0-0.8,0
			c0.2,0.8,0.6,1.4,1.2,1.9s1.4,0.8,2.1,0.8c-1.4,1-2.9,1.6-4.6,1.6c-0.4,0-0.6,0-0.9,0c1.7,1.1,3.6,1.6,5.6,1.6
			c3.3,0,5.8-1.1,7.6-3.2c1.9-2.1,2.9-4.6,2.9-7.2c0-0.1,0-0.2,0-0.5C63.1,211.1,63.8,210.5,64.4,209.8L64.4,209.8z"/>
		<path id="google_2_" class="st1" d="M105.6,204.4c-2.9-2.9-6.5-4.4-10.6-4.4c-4.1,0-7.6,1.5-10.6,4.4S80,210.9,80,215
			s1.5,7.6,4.4,10.6c2.9,2.9,6.5,4.4,10.6,4.4c4.1,0,7.6-1.5,10.6-4.4c2.9-2.9,4.4-6.5,4.4-10.6S108.5,207.4,105.6,204.4z
			 M96.4,219.3c-1.6,2.4-5.1,3.1-7.7,2c-2.6-1-4.5-3.8-4.2-6.6c0-3.5,3.3-6.5,6.8-6.4c1.6-0.1,3.2,0.6,4.5,1.6
			c-0.5,0.6-1.1,1.2-1.7,1.8c-1.5-1.1-3.8-1.4-5.2-0.1c-2.2,1.5-2.2,5.1-0.1,6.8c2,1.9,6,1,6.5-1.9c-1.2,0-2.6,0-3.9,0
			c0-0.8,0-1.5,0-2.2c2.1,0,4.4,0,6.5,0C97.8,215.9,97.5,217.8,96.4,219.3z M103.8,216c0,0.6,0,1.2,0,1.9c-0.6,0-1.2,0-1.9,0
			c0-0.6,0-1.2,0-1.9c-0.6,0-1.3,0-1.9,0c0-0.6,0-1.2,0-1.9c0.6,0,1.2,0,1.9,0c0-0.6,0-1.2,0-1.9c0.6,0,1.2,0,1.9,0
			c0,0.6,0,1.2,0,1.9c0.6,0,1.2,0,1.9,0c0,0.6,0,1.2,0,1.9C105,216,104.4,216,103.8,216z"/>
		<path id="youtube_2_" class="st1" d="M150,215c0,4.1-1.5,7.6-4.4,10.6c-2.9,2.9-6.5,4.4-10.6,4.4s-7.6-1.5-10.6-4.4
			c-2.9-2.9-4.4-6.5-4.4-10.6s1.5-7.6,4.4-10.6c2.9-2.9,6.5-4.4,10.6-4.4s7.6,1.5,10.6,4.4C148.5,207.4,150,210.9,150,215z
			 M144.2,211.5c0-0.8-0.3-1.4-0.6-2c-0.4-0.6-1-0.9-1.6-1c-5.1-0.2-9.6-0.2-13.8,0c-0.6,0.1-1.1,0.5-1.6,1.1s-0.8,1.2-0.8,2
			c-0.3,2.2-0.3,4.5,0,6.8c0,0.7,0.3,1.4,0.8,2s1,1,1.6,1.1c5,0.4,9.5,0.4,13.8,0c0.6-0.1,1.1-0.5,1.6-1.1c0.5-0.6,0.8-1.2,0.8-2
			C144.4,216,144.4,213.8,144.2,211.5L144.2,211.5z M133.1,211.3l5.6,3.8l-5.6,3.8V211.3z"/>
		<path id="linkedin_2_" class="st1" d="M190,215c0,4.1-1.5,7.6-4.4,10.6c-2.9,2.9-6.5,4.4-10.6,4.4s-7.6-1.5-10.6-4.4
			c-2.9-2.9-4.4-6.5-4.4-10.6s1.5-7.6,4.4-10.6c2.9-2.9,6.5-4.4,10.6-4.4s7.6,1.5,10.6,4.4C188.5,207.4,190,210.9,190,215z
			 M171.2,209.1h-3.8v13.1h3.8V209.1z M171.2,206.6c0-0.5-0.1-0.9-0.5-1.2c-0.4-0.4-0.8-0.5-1.2-0.5c-0.5,0-0.9,0.1-1.2,0.5
			c-0.4,0.4-0.5,0.8-0.5,1.2s0.1,0.9,0.5,1.2c0.4,0.4,0.8,0.5,1.2,0.5c0.5,0,0.9-0.1,1.2-0.5C171.1,207.5,171.2,207.1,171.2,206.6z
			 M184.4,214.3c0-1.9-0.4-3.2-1.2-4c-0.8-0.8-1.6-1.1-2.5-1.1c-1.4,0-2.6,0.4-3.8,1.2v-1.2h-3.8v13.1h3.8v-8.1l0.1-0.4
			c0.1-0.2,0.3-0.5,0.8-0.9c0.4-0.2,0.9-0.4,1.4-0.4c1,0,1.5,0.5,1.5,1.6v8.1h3.8L184.4,214.3L184.4,214.3z"/>
		<path id="tripadvisor_2_" class="st1" d="M215,200c-4.1,0-7.6,1.5-10.6,4.4c-2.9,2.9-4.4,6.5-4.4,10.6s1.5,7.6,4.4,10.6
			c2.9,2.9,6.5,4.4,10.6,4.4s7.6-1.5,10.6-4.4c2.9-2.9,4.4-6.5,4.4-10.6s-1.5-7.6-4.4-10.6C222.6,201.5,219.1,200,215,200
			 M207.2,209.6c0.3-0.2,0.6-0.6,1.1-0.9c1.5-0.8,3.8-1.2,6.5-1.2c2.6,0,4.6,0.4,6.1,1c0.9,0.4,1.4,0.8,1.8,1.2l0.2,0.1h4.1
			c-0.4,0.4-0.8,1.1-1.1,2c1,1.1,1.4,2.5,1.4,4c0,1.8-0.6,3.2-1.9,4.5c-1.3,1.2-2.8,1.9-4.5,1.9c-1,0-1.9-0.2-2.8-0.6
			s-1.5-1-2.1-1.6l-1.2,2.1l-1.5-2c-0.6,0.8-1.2,1.2-2.1,1.6s-1.8,0.6-2.8,0.6c-1.7,0-3.3-0.6-4.4-1.9c-1.2-1.2-1.9-2.8-1.9-4.5
			c0-1.4,0.4-2.6,1.2-3.8c-0.4-1-0.8-1.8-1.1-2.2h4.4L207.2,209.6 M217.6,212.5c-1,1-1.5,2.1-1.5,3.6c0,1.4,0.5,2.6,1.5,3.6
			c1,1,2.2,1.5,3.6,1.5s2.6-0.5,3.6-1.5c1-1,1.5-2.2,1.5-3.6s-0.5-2.6-1.5-3.6c-1-1-2.1-1.5-3.6-1.5
			C219.7,211,218.6,211.5,217.6,212.5 M218.1,216c0-0.9,0.3-1.5,0.9-2.1s1.4-0.9,2.1-0.9c0.9,0,1.5,0.2,2.1,0.9s0.9,1.2,0.9,2.1
			s-0.3,1.5-0.9,2.1s-1.4,0.9-2.1,0.9c-0.9,0-1.5-0.2-2.1-0.9C218.5,217.6,218.1,216.9,218.1,216 M219.7,214.5
			c-0.4,0.4-0.6,0.9-0.6,1.5s0.3,1.1,0.6,1.5s0.9,0.6,1.5,0.6c0.6,0,1.1-0.2,1.5-0.6c0.4-0.4,0.6-0.9,0.6-1.5s-0.3-1.1-0.6-1.5
			s-0.9-0.6-1.5-0.6C220.6,214,220.1,214.1,219.7,214.5 M220.1,216c0-0.2,0.1-0.5,0.2-0.8c0.3-0.2,0.5-0.2,0.8-0.2s0.5,0.1,0.8,0.2
			c0.2,0.1,0.2,0.5,0.2,0.8s-0.1,0.5-0.2,0.8c-0.3,0.2-0.5,0.2-0.8,0.2s-0.5-0.1-0.8-0.2C220.2,216.6,220.1,216.4,220.1,216
			 M205.2,212.5c-1,1-1.5,2.1-1.5,3.6c0,1.4,0.5,2.6,1.5,3.6c1,1,2.1,1.5,3.6,1.5c1.4,0,2.6-0.5,3.6-1.5s1.5-2.2,1.5-3.6
			s-0.5-2.6-1.5-3.6c-1-1-2.1-1.5-3.6-1.5C207.4,211,206.2,211.5,205.2,212.5 M205.7,216c0-0.9,0.2-1.5,0.9-2.1
			c0.6-0.6,1.2-0.9,2.1-0.9c0.9,0,1.5,0.2,2.1,0.9s0.9,1.2,0.9,2.1s-0.3,1.5-0.9,2.1s-1.4,0.9-2.1,0.9c-0.9,0-1.5-0.2-2.1-0.9
			C206.1,217.6,205.7,216.9,205.7,216 M210.9,216c0-0.6-0.3-1.1-0.6-1.5s-0.9-0.6-1.5-0.6c-0.6,0-1.1,0.2-1.5,0.6
			c-0.4,0.4-0.6,0.9-0.6,1.5s0.3,1.1,0.6,1.5s0.9,0.6,1.5,0.6c0.6,0,1.1-0.2,1.5-0.6C210.7,217.1,210.9,216.6,210.9,216
			 M208.1,215.4c0.3-0.2,0.4-0.2,0.8-0.2c0.2,0,0.5,0.1,0.8,0.2c0.3,0.2,0.3,0.5,0.3,0.8s-0.1,0.5-0.3,0.8c-0.3,0.2-0.4,0.2-0.8,0.2
			c-0.3,0-0.5-0.1-0.8-0.2c-0.3-0.2-0.3-0.4-0.3-0.8C207.7,215.8,207.9,215.5,208.1,215.4 M209.6,210c0.6,0,1.2,0.1,1.8,0.4
			c1.7,0.6,2.9,2,3.6,4.2c0.8-2.1,1.9-3.5,3.6-4.2c0.8-0.2,1.4-0.4,2.1-0.4c-0.3-0.1-0.6-0.4-1-0.5c-1.2-0.6-2.8-0.9-4.5-0.9h-0.5
			c-1.7,0-3.2,0.2-4.5,0.9l-0.9,0.6L209.6,210"/>
		<path id="pinterest_2_" class="st1" d="M255,200c-8.3,0-15,6.8-15,15s6.7,15,15,15s15-6.8,15-15S263.2,200,255,200z M263,212.8
			c0,1-0.1,2.1-0.5,3.1c-0.4,1.1-1,2.2-1.8,3.1c-0.9,0.9-2,1.5-3.2,1.6c-0.6,0.1-1.4,0.1-2-0.1s-1.2-0.5-1.6-1
			c-0.1-0.1-0.1-0.1-0.3-0.2c-0.1,0.2-0.1,0.5-0.2,0.9c-0.3,0.8-0.4,1.6-0.6,2.4c-0.6,2.2-2.2,3.9-2.2,3.9s-0.9-2.1-0.1-5
			c0.5-2,1-4,1.4-5.9v-0.1c-0.2-0.5-0.4-1.1-0.4-1.6c0-0.7,0.1-1.4,0.5-2c0.3-0.5,0.8-1,1.4-1.1c0.6-0.1,1.1-0.1,1.6,0.4
			c0.4,0.2,0.5,0.8,0.5,1.1c0,0.5,0,1-0.1,1.5c-0.3,0.7-0.5,1.6-0.8,2.4c-0.1,0.4-0.3,0.6-0.3,1c0,0.9,0.6,1.6,1.5,1.9
			c0.9,0.1,1.5-0.1,2.1-0.6s1-1.1,1.2-1.9c0.4-0.8,0.5-1.6,0.6-2.5c0.1-0.6,0.1-1.1,0.1-1.8c-0.1-1.9-1.2-3.4-3.1-3.9
			c-1.5-0.5-3.1-0.4-4.6,0.4c-1.6,0.7-2.5,2-3,3.6c-0.3,0.8-0.3,1.4-0.1,2.1c0.1,0.6,0.4,1.1,0.8,1.6l0.1,0.1
			c0.1,0.1,0.1,0.2,0.1,0.4c-0.1,0.4-0.1,0.7-0.3,1c-0.1,0.3-0.4,0.4-0.6,0.3c-0.8-0.3-1.2-0.9-1.8-1.5c-0.4-0.6-0.6-1.4-0.6-2.1
			c-0.1-0.5-0.1-1.1,0-1.6c0.1-0.9,0.3-1.6,0.6-2.4c1.1-2.1,2.8-3.5,5.1-4.1c0.8-0.2,1.5-0.4,2.4-0.4c1.1,0,2.2,0.1,3.4,0.5
			c1.9,0.7,3.2,2,4.1,3.9C262.9,211,263,211.9,263,212.8z"/>
	</g>
	<path class="st1" d="M298.5,207.9c-0.9,0-1.2-0.1-3.5-0.1c-2.3,0-2.6,0-3.5,0.1c-2.4,0.1-3.5,1.2-3.6,3.6c0,0.9-0.1,1.2-0.1,3.5
		c0,2.3,0,2.6,0.1,3.5c0.1,2.3,1.2,3.5,3.6,3.6c0.9,0,1.2,0.1,3.5,0.1c2.3,0,2.6,0,3.5-0.1c2.4-0.1,3.5-1.2,3.6-3.6
		c0-0.9,0-1.2,0-3.5c0-2.3,0-2.6,0-3.5C302,209.1,300.9,208,298.5,207.9z M295,219.5c-2.5,0-4.5-2-4.5-4.5c0-2.5,2-4.5,4.5-4.5
		c2.5,0,4.5,2,4.5,4.5S297.5,219.5,295,219.5z M299.7,211.4c-0.6,0-1-0.5-1-1.1s0.5-1.1,1-1.1s1,0.5,1,1.1
		C300.7,210.9,300.3,211.4,299.7,211.4z M297.9,215c0,1.6-1.3,2.9-2.9,2.9c-1.6,0-2.9-1.3-2.9-2.9s1.3-2.9,2.9-2.9
		C296.6,212.1,297.9,213.4,297.9,215z M295,200c-8.3,0-15,6.7-15,15s6.7,15,15,15c8.3,0,15-6.7,15-15S303.3,200,295,200z
		 M303.7,218.6c-0.1,3.2-1.9,4.9-5.1,5.1c-0.9,0-1.2,0.1-3.6,0.1c-2.4,0-2.7,0-3.6-0.1c-3.2-0.1-4.9-1.9-5.1-5.1
		c0-0.9-0.1-1.2-0.1-3.6s0-2.7,0.1-3.6c0.1-3.2,1.9-4.9,5.1-5.1c0.9,0,1.2-0.1,3.6-0.1c2.4,0,2.7,0,3.6,0.1c3.2,0.1,4.9,1.9,5.1,5.1
		c0,0.9,0.1,1.2,0.1,3.6S303.7,217.7,303.7,218.6z"/>
	<path class="st1" d="M335,200c-8.3,0-15,6.7-15,15c0,8.3,6.7,15,15,15s15-6.7,15-15C350,206.7,343.3,200,335,200z M328.5,224.1
		c-1.4,0-2.6-1.2-2.6-2.6c0-1.4,1.2-2.6,2.6-2.6c1.4,0,2.6,1.2,2.6,2.6C331.1,222.9,330,224.1,328.5,224.1z M337.8,224.1h-3.3
		c-0.3,0-0.5-0.2-0.5-0.5c0-2-0.8-4-2.2-5.4c-1.4-1.4-3.4-2.2-5.4-2.2c-0.3,0-0.5-0.2-0.5-0.5v-3.3c0-0.2,0.2-0.5,0.5-0.5
		c6.5,0,11.9,5.3,11.9,11.9C338.2,223.9,338,224.1,337.8,224.1z M343.6,224.1h-3.3c-0.3,0-0.5-0.2-0.5-0.5c0-7.5-6.1-13.5-13.5-13.5
		c-0.3,0-0.5-0.2-0.5-0.5v-3.3c0-0.2,0.2-0.5,0.5-0.5c9.8,0,17.7,8,17.7,17.7C344.1,223.9,343.9,224.1,343.6,224.1z"/>
	<g>
		<title></title>
		<g id="svg_1" transform="translate(0,1024) scale(0.10000000149011612,-0.10000000149011612) ">
			<path id="svg_2" class="st0" d="M3739.3,8639.6c-35.8-2.7-68.5-17.4-94.1-42.4c-33.7-32.9-49.9-79.5-43.9-126.3
				c7.5-58.5,48.7-107.3,105.4-124.5c43.8-13.3,92.6-5.4,129.8,21c45.7,32.5,69.4,86.5,62.4,141.7c-7.5,58.5-48.7,107.3-105.4,124.5
				C3776.5,8638.8,3756.8,8640.9,3739.3,8639.6z M3704.2,8523.7c8.6-1.5,15.7-5.3,22-11.8c7.5-7.8,11.1-16.2,11.6-27.1
				c0.6-12.7-3.3-22.7-12.2-31.6c-7.2-7.2-15-11-24.6-12c-9.6-1-19.5,1.7-27,7.3c-9.1,6.7-14.6,14.8-16.8,24.6
				c-0.9,3.8-1.2,11.4-0.7,15.3c1.3,9.6,5,17.1,12.1,24.1c6.3,6.3,12.8,9.7,20.9,11.2C3693.4,8524.3,3700.5,8524.3,3704.2,8523.7z
				 M3812.9,8523.1c7.4-1.9,12.9-5.1,18.5-10.8c7.8-7.8,11.6-16.5,12.2-27.5c0.4-8.2-1.4-16.2-5.3-22.8
				c-4.4-7.4-11.9-14.3-19.4-17.7c-8.2-3.6-18.3-4.4-27-1.9c-10.4,3-20.2,11.1-25.4,21.1c-3.1,5.8-4.5,11.8-4.5,19.2
				c0,11.4,3.7,20.8,11.4,28.8c6.5,6.7,13.5,10.6,22.1,12.2c1.7,0.3,4.6,0.4,8.3,0.3C3808.7,8524,3810.2,8523.8,3812.9,8523.1z"/>
		</g>
	</g>
	<g>
		<title></title>
		<g id="svg_1_1_" transform="translate(0,1024) scale(0.10000000149011612,-0.10000000149011612) ">
			<path id="svg_2_1_" class="st1" d="M3739.3,8239.6c-35.8-2.7-68.5-17.4-94.1-42.4c-33.7-32.9-49.9-79.5-43.9-126.3
				c7.5-58.5,48.7-107.3,105.4-124.5c43.8-13.3,92.6-5.4,129.8,21c45.7,32.5,69.4,86.5,62.4,141.7c-7.5,58.5-48.7,107.3-105.4,124.5
				C3776.5,8238.8,3756.8,8241,3739.3,8239.6z M3704.2,8123.7c8.6-1.5,15.7-5.3,22-11.8c7.5-7.8,11.1-16.2,11.6-27.1
				c0.6-12.7-3.3-22.7-12.2-31.6c-7.2-7.2-15-11-24.6-12c-9.6-1-19.5,1.7-27,7.3c-9.1,6.7-14.6,14.8-16.8,24.6
				c-0.9,3.8-1.2,11.4-0.7,15.3c1.3,9.6,5,17.1,12.1,24.1c6.3,6.3,12.8,9.7,20.9,11.2C3693.4,8124.3,3700.5,8124.4,3704.2,8123.7z
				 M3812.9,8123.1c7.4-1.9,12.9-5.1,18.5-10.8c7.8-7.8,11.6-16.5,12.2-27.5c0.4-8.2-1.4-16.2-5.3-22.8
				c-4.4-7.4-11.9-14.3-19.4-17.7c-8.2-3.6-18.3-4.4-27-1.9c-10.4,3-20.2,11.1-25.4,21.1c-3.1,5.8-4.5,11.8-4.5,19.2
				c0,11.4,3.7,20.8,11.4,28.8c6.5,6.7,13.5,10.6,22.1,12.2c1.7,0.3,4.6,0.4,8.3,0.3C3808.7,8124,3810.2,8123.8,3812.9,8123.1z"/>
		</g>
	</g>
	<path class="st1" d="M360,300v30h30v-30H360z M372.6,318.7c-0.7,0.7-1.5,1.1-2.5,1.2c-1,0.1-1.9-0.2-2.7-0.7
		c-0.9-0.7-1.5-1.5-1.7-2.5c-0.1-0.4-0.1-1.1-0.1-1.5c0.1-1,0.5-1.7,1.2-2.4c0.6-0.6,1.3-1,2.1-1.1c0.4-0.1,1.1-0.1,1.5,0
		c0.9,0.1,1.6,0.5,2.2,1.2c0.8,0.8,1.1,1.6,1.2,2.7C373.8,316.8,373.5,317.8,372.6,318.7z M383.8,317.8c-0.4,0.7-1.2,1.4-1.9,1.8
		c-0.8,0.4-1.8,0.4-2.7,0.2c-1-0.3-2-1.1-2.5-2.1c-0.3-0.6-0.4-1.2-0.4-1.9c0-1.1,0.4-2.1,1.1-2.9c0.6-0.7,1.4-1.1,2.2-1.2
		c0.2,0,0.5,0,0.8,0c0.5,0,0.6,0,0.9,0.1c0.7,0.2,1.3,0.5,1.8,1.1c0.8,0.8,1.2,1.6,1.2,2.8C384.4,316.3,384.2,317.1,383.8,317.8z"/>
	<path class="st0" d="M360,260v30h30v-30H360z M372.6,278.7c-0.7,0.7-1.5,1.1-2.5,1.2c-1,0.1-1.9-0.2-2.7-0.7
		c-0.9-0.7-1.5-1.5-1.7-2.5c-0.1-0.4-0.1-1.1-0.1-1.5c0.1-1,0.5-1.7,1.2-2.4c0.6-0.6,1.3-1,2.1-1.1c0.4-0.1,1.1-0.1,1.5,0
		c0.9,0.1,1.6,0.5,2.2,1.2c0.8,0.8,1.1,1.6,1.2,2.7C373.8,276.8,373.5,277.8,372.6,278.7z M383.8,277.8c-0.4,0.7-1.2,1.4-1.9,1.8
		c-0.8,0.4-1.8,0.4-2.7,0.2c-1-0.3-2-1.1-2.5-2.1c-0.3-0.6-0.4-1.2-0.4-1.9c0-1.1,0.4-2.1,1.1-2.9c0.6-0.7,1.4-1.1,2.2-1.2
		c0.2,0,0.5,0,0.8,0c0.5,0,0.6,0,0.9,0.1c0.7,0.2,1.3,0.5,1.8,1.1c0.8,0.8,1.2,1.6,1.2,2.8C384.4,276.3,384.2,277.1,383.8,277.8z"/>
	<path class="st0" d="M400,260v30h30v-30H400z M423.9,280.4c0,0.4-0.2,0.8-0.5,1.1s-0.7,0.5-1.1,0.5h-14.7c-0.4,0-0.8-0.2-1.1-0.5
		c-0.3-0.3-0.5-0.7-0.5-1.1v-7.9c0.3,0.3,0.6,0.6,1,0.9c2.4,1.6,4.1,2.8,5,3.4c0.4,0.3,0.7,0.5,0.9,0.7c0.2,0.2,0.6,0.3,0.9,0.5
		c0.4,0.2,0.8,0.2,1.1,0.2h0h0c0.3,0,0.7-0.1,1.1-0.2c0.4-0.2,0.7-0.3,0.9-0.5c0.2-0.2,0.5-0.4,0.9-0.7c1.1-0.8,2.8-2,5-3.4
		c0.4-0.3,0.7-0.5,1-0.9V280.4z M423.5,271.1c-0.3,0.5-0.7,0.9-1.2,1.2c-2.5,1.7-4.1,2.8-4.7,3.2c-0.1,0-0.2,0.1-0.4,0.3
		c-0.2,0.2-0.4,0.3-0.5,0.4c-0.1,0.1-0.3,0.2-0.5,0.3c-0.2,0.1-0.4,0.2-0.6,0.3c-0.2,0.1-0.3,0.1-0.5,0.1h0h0c-0.2,0-0.3,0-0.5-0.1
		c-0.2-0.1-0.4-0.2-0.6-0.3c-0.2-0.1-0.4-0.2-0.5-0.3c-0.1-0.1-0.3-0.2-0.5-0.4c-0.2-0.2-0.4-0.3-0.4-0.3c-0.6-0.4-1.5-1-2.6-1.8
		c-1.1-0.8-1.8-1.3-2-1.4c-0.4-0.3-0.8-0.7-1.2-1.2c-0.4-0.5-0.5-0.9-0.5-1.4c0-0.5,0.1-1,0.4-1.3c0.3-0.3,0.7-0.5,1.2-0.5h14.7
		c0.4,0,0.8,0.2,1.1,0.5c0.3,0.3,0.5,0.7,0.5,1.1C423.9,270.1,423.8,270.6,423.5,271.1z"/>
	<path class="st1" d="M400,300v30h30v-30H400z M423.9,320.4c0,0.4-0.2,0.8-0.5,1.1s-0.7,0.5-1.1,0.5h-14.7c-0.4,0-0.8-0.2-1.1-0.5
		c-0.3-0.3-0.5-0.7-0.5-1.1v-7.9c0.3,0.3,0.6,0.6,1,0.9c2.4,1.6,4.1,2.8,5,3.4c0.4,0.3,0.7,0.5,0.9,0.7c0.2,0.2,0.6,0.3,0.9,0.5
		c0.4,0.2,0.8,0.2,1.1,0.2h0h0c0.3,0,0.7-0.1,1.1-0.2c0.4-0.2,0.7-0.3,0.9-0.5c0.2-0.2,0.5-0.4,0.9-0.7c1.1-0.8,2.8-2,5-3.4
		c0.4-0.3,0.7-0.5,1-0.9V320.4z M423.5,311.1c-0.3,0.5-0.7,0.9-1.2,1.2c-2.5,1.7-4.1,2.8-4.7,3.2c-0.1,0-0.2,0.1-0.4,0.3
		c-0.2,0.2-0.4,0.3-0.5,0.4c-0.1,0.1-0.3,0.2-0.5,0.3c-0.2,0.1-0.4,0.2-0.6,0.3c-0.2,0.1-0.3,0.1-0.5,0.1h0h0c-0.2,0-0.3,0-0.5-0.1
		c-0.2-0.1-0.4-0.2-0.6-0.3c-0.2-0.1-0.4-0.2-0.5-0.3c-0.1-0.1-0.3-0.2-0.5-0.4c-0.2-0.2-0.4-0.3-0.4-0.3c-0.6-0.4-1.5-1-2.6-1.8
		c-1.1-0.8-1.8-1.3-2-1.4c-0.4-0.3-0.8-0.7-1.2-1.2c-0.4-0.5-0.5-0.9-0.5-1.4c0-0.5,0.1-1,0.4-1.3c0.3-0.3,0.7-0.5,1.2-0.5h14.7
		c0.4,0,0.8,0.2,1.1,0.5c0.3,0.3,0.5,0.7,0.5,1.1C423.9,310.1,423.8,310.6,423.5,311.1z"/>
	<path class="st0" d="M415,160c-8.3,0-15,6.7-15,15c0,8.3,6.7,15,15,15s15-6.7,15-15C430,166.7,423.3,160,415,160z M423.9,180.4
		c0,0.4-0.2,0.8-0.5,1.1s-0.7,0.5-1.1,0.5h-14.7c-0.4,0-0.8-0.2-1.1-0.5c-0.3-0.3-0.5-0.7-0.5-1.1v-7.9c0.3,0.3,0.6,0.6,1,0.9
		c2.4,1.6,4.1,2.8,5,3.4c0.4,0.3,0.7,0.5,0.9,0.7c0.2,0.2,0.6,0.3,0.9,0.5c0.4,0.2,0.8,0.2,1.1,0.2h0h0c0.3,0,0.7-0.1,1.1-0.2
		c0.4-0.2,0.7-0.3,0.9-0.5c0.2-0.2,0.5-0.4,0.9-0.7c1.1-0.8,2.8-2,5-3.4c0.4-0.3,0.7-0.5,1-0.9V180.4z M423.5,171.1
		c-0.3,0.5-0.7,0.9-1.2,1.2c-2.5,1.7-4.1,2.8-4.7,3.2c-0.1,0-0.2,0.1-0.4,0.3c-0.2,0.2-0.4,0.3-0.5,0.4c-0.1,0.1-0.3,0.2-0.5,0.3
		c-0.2,0.1-0.4,0.2-0.6,0.3c-0.2,0.1-0.3,0.1-0.5,0.1h0h0c-0.2,0-0.3,0-0.5-0.1c-0.2-0.1-0.4-0.2-0.6-0.3c-0.2-0.1-0.4-0.2-0.5-0.3
		c-0.1-0.1-0.3-0.2-0.5-0.4c-0.2-0.2-0.4-0.3-0.4-0.3c-0.6-0.4-1.5-1-2.6-1.8c-1.1-0.8-1.8-1.3-2-1.4c-0.4-0.3-0.8-0.7-1.2-1.2
		c-0.4-0.5-0.5-0.9-0.5-1.4c0-0.5,0.1-1,0.4-1.3c0.3-0.3,0.7-0.5,1.2-0.5h14.7c0.4,0,0.8,0.2,1.1,0.5c0.3,0.3,0.5,0.7,0.5,1.1
		C423.9,170.1,423.8,170.6,423.5,171.1z"/>
	<path class="st1" d="M415,200c-8.3,0-15,6.7-15,15c0,8.3,6.7,15,15,15s15-6.7,15-15C430,206.7,423.3,200,415,200z M423.9,220.4
		c0,0.4-0.2,0.8-0.5,1.1s-0.7,0.5-1.1,0.5h-14.7c-0.4,0-0.8-0.2-1.1-0.5c-0.3-0.3-0.5-0.7-0.5-1.1v-7.9c0.3,0.3,0.6,0.6,1,0.9
		c2.4,1.6,4.1,2.8,5,3.4c0.4,0.3,0.7,0.5,0.9,0.7c0.2,0.2,0.6,0.3,0.9,0.5c0.4,0.2,0.8,0.2,1.1,0.2h0h0c0.3,0,0.7-0.1,1.1-0.2
		c0.4-0.2,0.7-0.3,0.9-0.5c0.2-0.2,0.5-0.4,0.9-0.7c1.1-0.8,2.8-2,5-3.4c0.4-0.3,0.7-0.5,1-0.9V220.4z M423.5,211.1
		c-0.3,0.5-0.7,0.9-1.2,1.2c-2.5,1.7-4.1,2.8-4.7,3.2c-0.1,0-0.2,0.1-0.4,0.3c-0.2,0.2-0.4,0.3-0.5,0.4c-0.1,0.1-0.3,0.2-0.5,0.3
		c-0.2,0.1-0.4,0.2-0.6,0.3c-0.2,0.1-0.3,0.1-0.5,0.1h0h0c-0.2,0-0.3,0-0.5-0.1c-0.2-0.1-0.4-0.2-0.6-0.3c-0.2-0.1-0.4-0.2-0.5-0.3
		c-0.1-0.1-0.3-0.2-0.5-0.4c-0.2-0.2-0.4-0.3-0.4-0.3c-0.6-0.4-1.5-1-2.6-1.8c-1.1-0.8-1.8-1.3-2-1.4c-0.4-0.3-0.8-0.7-1.2-1.2
		c-0.4-0.5-0.5-0.9-0.5-1.4c0-0.5,0.1-1,0.4-1.3c0.3-0.3,0.7-0.5,1.2-0.5h14.7c0.4,0,0.8,0.2,1.1,0.5c0.3,0.3,0.5,0.7,0.5,1.1
		C423.9,210.1,423.8,210.6,423.5,211.1z"/>
	<g id="list">
		<path id="twitter_3_" class="st0" d="M63.5,354.9c-0.8,0.4-1.4,0.5-2.1,0.6c0.8-0.5,1.2-1.1,1.6-2c-0.8,0.4-1.5,0.8-2.4,0.9
			c-0.8-0.8-1.6-1.1-2.7-1.1c-1,0-1.9,0.4-2.6,1.1s-1.1,1.6-1.1,2.6c0,0.4,0,0.6,0.1,0.9c-3.1-0.1-5.6-1.5-7.6-3.9
			c-0.4,0.6-0.5,1.2-0.5,1.9c0,1.2,0.6,2.2,1.7,3c-0.6,0-1.2-0.1-1.7-0.5l0,0c0,0.9,0.2,1.6,0.9,2.4c0.6,0.6,1.2,1.1,2.1,1.2
			c-0.4,0.1-0.6,0.1-1,0.1c-0.2,0-0.5,0-0.8,0c0.2,0.8,0.6,1.4,1.2,1.9s1.4,0.8,2.1,0.8c-1.4,1-2.9,1.6-4.6,1.6c-0.4,0-0.6,0-0.9,0
			c1.7,1.1,3.6,1.6,5.6,1.6c3.3,0,5.8-1.1,7.6-3.2s2.9-4.6,2.9-7.2c0-0.1,0-0.2,0-0.5C62.2,356.2,62.9,355.6,63.5,354.9L63.5,354.9z
			"/>
		<path id="google_3_" class="st0" d="M95.5,364.4c-1.6,2.4-5.1,3.1-7.7,2c-2.6-1-4.5-3.8-4.2-6.6c0-3.5,3.3-6.5,6.8-6.4
			c1.6-0.1,3.2,0.6,4.5,1.6c-0.5,0.6-1.1,1.2-1.7,1.8c-1.5-1.1-3.8-1.4-5.2-0.1c-2.2,1.5-2.2,5.1-0.1,6.8c2,1.9,6,1,6.5-1.9
			c-1.2,0-2.6,0-3.9,0c0-0.8,0-1.5,0-2.2c2.1,0,4.4,0,6.5,0C96.9,361,96.6,362.9,95.5,364.4z M102.9,361.1c0,0.6,0,1.2,0,1.9
			c-0.6,0-1.2,0-1.9,0c0-0.6,0-1.2,0-1.9c-0.6,0-1.3,0-1.9,0c0-0.6,0-1.2,0-1.9c0.6,0,1.2,0,1.9,0c0-0.6,0-1.2,0-1.9
			c0.6,0,1.2,0,1.9,0c0,0.6,0,1.2,0,1.9c0.6,0,1.2,0,1.9,0c0,0.6,0,1.2,0,1.9C104.1,361.1,103.5,361.1,102.9,361.1z"/>
		<path id="youtube_3_" class="st0" d="M143.4,356.6c0-0.8-0.3-1.4-0.6-2c-0.4-0.6-1-0.9-1.6-1c-5.1-0.2-9.6-0.2-13.7,0
			c-0.6,0.1-1.1,0.5-1.6,1.1s-0.8,1.2-0.8,2c-0.3,2.2-0.3,4.5,0,6.8c0,0.8,0.3,1.4,0.8,2s1,1,1.6,1.1c5,0.4,9.5,0.4,13.7,0
			c0.6-0.1,1.1-0.5,1.6-1.1c0.5-0.6,0.8-1.2,0.8-2C143.5,361.1,143.5,358.9,143.4,356.6L143.4,356.6z M132.2,356.4l5.6,3.8l-5.6,3.8
			V356.4z"/>
		<path id="linkedin_3_" class="st0" d="M170.4,354.2h-3.8v13.1h3.8V354.2z M170.4,351.8c0-0.5-0.1-0.9-0.5-1.2
			c-0.4-0.4-0.8-0.5-1.2-0.5c-0.5,0-0.9,0.1-1.2,0.5c-0.4,0.4-0.5,0.8-0.5,1.2s0.1,0.9,0.5,1.2c0.4,0.4,0.8,0.5,1.2,0.5
			c0.5,0,0.9-0.1,1.2-0.5C170.2,352.6,170.4,352.2,170.4,351.8z M183.5,359.4c0-1.9-0.4-3.2-1.2-4c-0.8-0.8-1.6-1.1-2.5-1.1
			c-1.4,0-2.6,0.4-3.8,1.2v-1.2h-3.8v13.1h3.8v-8.1l0.1-0.4c0.1-0.2,0.3-0.5,0.8-0.9c0.4-0.2,0.9-0.4,1.4-0.4c1,0,1.5,0.5,1.5,1.6
			v8.1h3.8L183.5,359.4L183.5,359.4z"/>
		<path id="tripadvisor_3_" class="st0" d="M206.4,354.8c0.3-0.2,0.6-0.6,1.1-0.9c1.5-0.8,3.8-1.2,6.5-1.2c2.6,0,4.6,0.4,6.1,1
			c0.9,0.4,1.4,0.8,1.8,1.2l0.2,0.1h4.1c-0.4,0.4-0.8,1.1-1.1,2c1,1.1,1.4,2.5,1.4,4c0,1.8-0.6,3.2-1.9,4.5
			c-1.3,1.2-2.8,1.9-4.5,1.9c-1,0-1.9-0.2-2.8-0.6s-1.5-1-2.1-1.6l-1.2,2.1l-1.5-2c-0.6,0.8-1.2,1.2-2.1,1.6s-1.8,0.6-2.8,0.6
			c-1.7,0-3.3-0.6-4.4-1.9c-1.2-1.2-1.9-2.8-1.9-4.5c0-1.4,0.4-2.6,1.2-3.8c-0.4-1-0.8-1.8-1.1-2.2h4.4L206.4,354.8 M216.7,357.6
			c-1,1-1.5,2.1-1.5,3.6c0,1.4,0.5,2.6,1.5,3.6c1,1,2.2,1.5,3.6,1.5s2.6-0.5,3.6-1.5c1-1,1.5-2.2,1.5-3.6s-0.5-2.6-1.5-3.6
			c-1-1-2.1-1.5-3.6-1.5C218.9,356.1,217.7,356.6,216.7,357.6 M217.2,361.1c0-0.9,0.3-1.5,0.9-2.1s1.4-0.9,2.1-0.9
			c0.9,0,1.5,0.2,2.1,0.9s0.9,1.2,0.9,2.1s-0.3,1.5-0.9,2.1s-1.4,0.9-2.1,0.9c-0.9,0-1.5-0.2-2.1-0.9
			C217.6,362.8,217.2,362,217.2,361.1 M218.9,359.6c-0.4,0.4-0.6,0.9-0.6,1.5s0.3,1.1,0.6,1.5s0.9,0.6,1.5,0.6
			c0.6,0,1.1-0.2,1.5-0.6c0.4-0.4,0.6-0.9,0.6-1.5s-0.3-1.1-0.6-1.5s-0.9-0.6-1.5-0.6C219.7,359.1,219.2,359.2,218.9,359.6
			 M219.2,361.1c0-0.2,0.1-0.5,0.2-0.8c0.3-0.2,0.5-0.2,0.8-0.2s0.5,0.1,0.8,0.2c0.2,0.1,0.2,0.5,0.2,0.8s-0.1,0.5-0.2,0.8
			c-0.3,0.2-0.5,0.2-0.8,0.2s-0.5-0.1-0.8-0.2C219.4,361.8,219.2,361.5,219.2,361.1 M204.4,357.6c-1,1-1.5,2.1-1.5,3.6
			c0,1.4,0.5,2.6,1.5,3.6c1,1,2.1,1.5,3.6,1.5c1.4,0,2.6-0.5,3.6-1.5s1.5-2.2,1.5-3.6s-0.5-2.6-1.5-3.6c-1-1-2.1-1.5-3.6-1.5
			C206.5,356.1,205.4,356.6,204.4,357.6 M204.9,361.1c0-0.9,0.2-1.5,0.9-2.1c0.6-0.6,1.2-0.9,2.1-0.9c0.9,0,1.5,0.2,2.1,0.9
			s0.9,1.2,0.9,2.1s-0.3,1.5-0.9,2.1s-1.4,0.9-2.1,0.9c-0.9,0-1.5-0.2-2.1-0.9C205.2,362.8,204.9,362,204.9,361.1 M210,361.1
			c0-0.6-0.3-1.1-0.6-1.5s-0.9-0.6-1.5-0.6c-0.6,0-1.1,0.2-1.5,0.6c-0.4,0.4-0.6,0.9-0.6,1.5s0.3,1.1,0.6,1.5s0.9,0.6,1.5,0.6
			c0.6,0,1.1-0.2,1.5-0.6C209.9,362.2,210,361.8,210,361.1 M207.2,360.5c0.3-0.2,0.4-0.2,0.8-0.2c0.2,0,0.5,0.1,0.8,0.2
			c0.3,0.2,0.3,0.5,0.3,0.8s-0.1,0.5-0.3,0.8c-0.3,0.2-0.4,0.2-0.8,0.2c-0.3,0-0.5-0.1-0.8-0.2c-0.3-0.2-0.3-0.4-0.3-0.8
			C206.9,360.9,207,360.6,207.2,360.5 M208.7,355.1c0.6,0,1.2,0.1,1.8,0.4c1.7,0.6,2.9,2,3.6,4.2c0.8-2.1,1.9-3.5,3.6-4.2
			c0.8-0.2,1.4-0.4,2.1-0.4c-0.3-0.1-0.6-0.4-1-0.5c-1.2-0.6-2.8-0.9-4.5-0.9h-0.5c-1.7,0-3.2,0.2-4.5,0.9l-0.9,0.6L208.7,355.1"/>
		<path id="pinterest_3_" class="st0" d="M262.1,357.9c0,1-0.1,2.1-0.5,3.1c-0.4,1.1-1,2.2-1.8,3.1c-0.9,0.9-2,1.5-3.2,1.6
			c-0.6,0.1-1.4,0.1-2-0.1s-1.2-0.5-1.6-1c-0.1-0.1-0.1-0.1-0.3-0.2c-0.1,0.2-0.1,0.5-0.2,0.9c-0.3,0.8-0.4,1.6-0.6,2.4
			c-0.6,2.2-2.2,3.9-2.2,3.9s-0.9-2.1-0.1-5c0.5-2,1-4,1.4-5.9v-0.1c-0.2-0.5-0.4-1.1-0.4-1.6c0-0.8,0.1-1.4,0.5-2
			c0.3-0.5,0.8-1,1.4-1.1s1.1-0.1,1.6,0.4c0.4,0.2,0.5,0.8,0.5,1.1c0,0.5,0,1-0.1,1.5c-0.3,0.8-0.5,1.6-0.8,2.4
			c-0.1,0.4-0.3,0.6-0.3,1c0,0.9,0.6,1.6,1.5,1.9c0.9,0.1,1.5-0.1,2.1-0.6s1-1.1,1.2-1.9c0.4-0.8,0.5-1.6,0.6-2.5
			c0.1-0.6,0.1-1.1,0.1-1.8c-0.1-1.9-1.2-3.4-3.1-3.9c-1.5-0.5-3.1-0.4-4.6,0.4c-1.6,0.8-2.5,2-3,3.6c-0.3,0.8-0.3,1.4-0.1,2.1
			c0.1,0.6,0.4,1.1,0.8,1.6l0.1,0.1c0.1,0.1,0.1,0.2,0.1,0.4c-0.1,0.4-0.1,0.8-0.3,1s-0.4,0.4-0.6,0.2c-0.8-0.2-1.2-0.9-1.8-1.5
			c-0.4-0.6-0.6-1.4-0.6-2.1c-0.1-0.5-0.1-1.1,0-1.6c0.1-0.9,0.3-1.6,0.6-2.4c1.1-2.1,2.8-3.5,5.1-4.1c0.8-0.2,1.5-0.4,2.4-0.4
			c1.1,0,2.2,0.1,3.4,0.5c1.9,0.8,3.2,2,4.1,3.9C262,356.1,262.1,357,262.1,357.9z"/>
		<g>
			<path class="st0" d="M294.1,355.6c-2.5,0-4.5,2-4.5,4.5c0,2.5,2,4.5,4.5,4.5s4.5-2,4.5-4.5C298.6,357.6,296.6,355.6,294.1,355.6z
				 M294.1,363c-1.6,0-2.9-1.3-2.9-2.9c0-1.6,1.3-2.9,2.9-2.9c1.6,0,2.9,1.3,2.9,2.9C297,361.7,295.7,363,294.1,363z"/>
			<circle class="st0" cx="298.8" cy="355.5" r="1.1"/>
			<path class="st0" d="M302.8,356.5c-0.1-3.2-1.9-4.9-5.1-5.1c-0.9,0-1.2-0.1-3.6-0.1c-2.4,0-2.7,0-3.6,0.1
				c-3.2,0.1-4.9,1.9-5.1,5.1c0,0.9-0.1,1.2-0.1,3.6c0,2.4,0,2.7,0.1,3.6c0.1,3.2,1.9,4.9,5.1,5.1c0.9,0,1.2,0.1,3.6,0.1
				c2.4,0,2.7,0,3.6-0.1c3.2-0.1,4.9-1.9,5.1-5.1c0-0.9,0.1-1.2,0.1-3.6C302.9,357.7,302.9,357.5,302.8,356.5z M301.2,363.7
				c-0.1,2.4-1.2,3.5-3.6,3.6c-0.9,0-1.2,0.1-3.5,0.1c-2.3,0-2.6,0-3.5-0.1c-2.4-0.1-3.5-1.2-3.6-3.6c0-0.9-0.1-1.2-0.1-3.5
				c0-2.3,0-2.6,0.1-3.5c0.1-2.4,1.2-3.5,3.6-3.6c0.9,0,1.2,0,3.5,0s2.6,0,3.5,0c2.4,0.1,3.5,1.2,3.6,3.6c0,0.9,0.1,1.2,0.1,3.5
				C301.3,362.5,301.3,362.7,301.2,363.7z"/>
		</g>
		<path class="st0" d="M327.6,369.2c-1.4,0-2.6-1.2-2.6-2.6c0-1.4,1.2-2.6,2.6-2.6c1.4,0,2.6,1.2,2.6,2.6
			C330.3,368.1,329.1,369.2,327.6,369.2z M336.9,369.2h-3.3c-0.3,0-0.5-0.2-0.5-0.5c0-2-0.8-4-2.2-5.4c-1.4-1.4-3.4-2.2-5.4-2.2
			c-0.3,0-0.5-0.2-0.5-0.5v-3.3c0-0.2,0.2-0.5,0.5-0.5c6.5,0,11.9,5.3,11.9,11.9C337.3,369,337.1,369.2,336.9,369.2z M342.8,369.2
			h-3.3c-0.3,0-0.5-0.2-0.5-0.5c0-7.5-6.1-13.5-13.5-13.5c-0.3,0-0.5-0.2-0.5-0.5v-3.3c0-0.2,0.2-0.5,0.5-0.5
			c9.8,0,17.7,8,17.7,17.7C343.2,369,343,369.2,342.8,369.2z"/>
		<path id="svg_2_2_" class="st0" d="M369.5,356.8c0.9,0.1,1.6,0.5,2.2,1.2c0.8,0.8,1.1,1.6,1.2,2.7c0.1,1.3-0.3,2.3-1.2,3.2
			c-0.7,0.7-1.5,1.1-2.5,1.2c-1,0.1-1.9-0.2-2.7-0.7c-0.9-0.7-1.5-1.5-1.7-2.5c-0.1-0.4-0.1-1.1-0.1-1.5c0.1-1,0.5-1.7,1.2-2.4
			c0.6-0.6,1.3-1,2.1-1.1C368.5,356.7,369.2,356.7,369.5,356.8z M380.4,356.8c0.7,0.2,1.3,0.5,1.8,1.1c0.8,0.8,1.2,1.6,1.2,2.8
			c0,0.8-0.1,1.6-0.5,2.3c-0.4,0.7-1.2,1.4-1.9,1.8c-0.8,0.4-1.8,0.4-2.7,0.2c-1-0.3-2-1.1-2.5-2.1c-0.3-0.6-0.4-1.2-0.4-1.9
			c0-1.1,0.4-2.1,1.1-2.9c0.6-0.7,1.4-1.1,2.2-1.2c0.2,0,0.5,0,0.8,0C380,356.7,380.1,356.7,380.4,356.8z"/>
		<path class="st0" d="M423.1,365.6c0,0.4-0.2,0.8-0.5,1.1s-0.7,0.5-1.1,0.5h-14.7c-0.4,0-0.8-0.2-1.1-0.5c-0.3-0.3-0.5-0.7-0.5-1.1
			v-7.9c0.3,0.3,0.6,0.6,1,0.9c2.4,1.6,4.1,2.8,5,3.4c0.4,0.3,0.7,0.5,0.9,0.7c0.2,0.2,0.6,0.3,0.9,0.5c0.4,0.2,0.8,0.2,1.1,0.2h0h0
			c0.3,0,0.7-0.1,1.1-0.2c0.4-0.2,0.7-0.3,0.9-0.5c0.2-0.2,0.5-0.4,0.9-0.7c1.1-0.8,2.8-2,5-3.4c0.4-0.3,0.7-0.5,1-0.9V365.6z
			 M422.6,356.2c-0.3,0.5-0.7,0.9-1.2,1.2c-2.5,1.7-4.1,2.8-4.7,3.2c-0.1,0-0.2,0.1-0.4,0.3c-0.2,0.2-0.4,0.3-0.5,0.4
			c-0.1,0.1-0.3,0.2-0.5,0.3c-0.2,0.1-0.4,0.2-0.6,0.3c-0.2,0.1-0.3,0.1-0.5,0.1h0h0c-0.2,0-0.3,0-0.5-0.1c-0.2-0.1-0.4-0.2-0.6-0.3
			c-0.2-0.1-0.4-0.2-0.5-0.3c-0.1-0.1-0.3-0.2-0.5-0.4c-0.2-0.2-0.4-0.3-0.4-0.3c-0.6-0.4-1.5-1-2.6-1.8c-1.1-0.8-1.8-1.3-2-1.4
			c-0.4-0.3-0.8-0.7-1.2-1.2c-0.4-0.5-0.5-0.9-0.5-1.4c0-0.5,0.1-1,0.4-1.3c0.3-0.3,0.7-0.5,1.2-0.5h14.7c0.4,0,0.8,0.2,1.1,0.5
			c0.3,0.3,0.5,0.7,0.5,1.1C423.1,355.2,422.9,355.7,422.6,356.2z"/>
		<g>
			<path class="st0" d="M13,352.1c-0.5,0.6-0.8,1.8-0.8,3.1v1.9H10v3h2.2v9h3.4v-9h2.5l0.2-3.1h-2.8v-1.5c0-0.5,0.1-0.8,0.2-1
				s0.5-0.2,1-0.2h1.5v-3.1h-2.5C14.5,351.1,13.5,351.5,13,352.1z"/>
		</g>
	</g>
	<g id="list_1_">
		<path id="twitter_4_" class="st1" d="M63.5,394.9c-0.8,0.4-1.4,0.5-2.1,0.6c0.8-0.5,1.2-1.1,1.6-2c-0.8,0.4-1.5,0.8-2.4,0.9
			c-0.8-0.8-1.6-1.1-2.7-1.1c-1,0-1.9,0.4-2.6,1.1s-1.1,1.6-1.1,2.6c0,0.4,0,0.6,0.1,0.9c-3.1-0.1-5.6-1.5-7.6-3.9
			c-0.4,0.6-0.5,1.2-0.5,1.9c0,1.2,0.6,2.2,1.7,3c-0.6,0-1.2-0.1-1.7-0.5l0,0c0,0.9,0.2,1.6,0.9,2.4c0.6,0.6,1.2,1.1,2.1,1.2
			c-0.4,0.1-0.6,0.1-1,0.1c-0.2,0-0.5,0-0.8,0c0.2,0.8,0.6,1.4,1.2,1.9s1.4,0.8,2.1,0.8c-1.4,1-2.9,1.6-4.6,1.6c-0.4,0-0.6,0-0.9,0
			c1.7,1.1,3.6,1.6,5.6,1.6c3.3,0,5.8-1.1,7.6-3.2s2.9-4.6,2.9-7.2c0-0.1,0-0.2,0-0.5C62.2,396.2,62.9,395.6,63.5,394.9L63.5,394.9z
			"/>
		<path id="google_4_" class="st1" d="M95.5,404.4c-1.6,2.4-5.1,3.1-7.7,2c-2.6-1-4.5-3.8-4.2-6.6c0-3.5,3.3-6.5,6.8-6.4
			c1.6-0.1,3.2,0.6,4.5,1.6c-0.5,0.6-1.1,1.2-1.7,1.8c-1.5-1.1-3.8-1.4-5.2-0.1c-2.2,1.5-2.2,5.1-0.1,6.8c2,1.9,6,1,6.5-1.9
			c-1.2,0-2.6,0-3.9,0c0-0.8,0-1.5,0-2.2c2.1,0,4.4,0,6.5,0C96.9,401,96.6,402.9,95.5,404.4z M102.9,401.1c0,0.6,0,1.2,0,1.9
			c-0.6,0-1.2,0-1.9,0c0-0.6,0-1.2,0-1.9c-0.6,0-1.3,0-1.9,0c0-0.6,0-1.2,0-1.9c0.6,0,1.2,0,1.9,0c0-0.6,0-1.2,0-1.9
			c0.6,0,1.2,0,1.9,0c0,0.6,0,1.2,0,1.9c0.6,0,1.2,0,1.9,0c0,0.6,0,1.2,0,1.9C104.1,401.1,103.5,401.1,102.9,401.1z"/>
		<path id="youtube_4_" class="st1" d="M143.4,396.6c0-0.8-0.3-1.4-0.6-2c-0.4-0.6-1-0.9-1.6-1c-5.1-0.2-9.6-0.2-13.7,0
			c-0.6,0.1-1.1,0.5-1.6,1.1s-0.8,1.2-0.8,2c-0.3,2.2-0.3,4.5,0,6.8c0,0.8,0.3,1.4,0.8,2s1,1,1.6,1.1c5,0.4,9.5,0.4,13.7,0
			c0.6-0.1,1.1-0.5,1.6-1.1c0.5-0.6,0.8-1.2,0.8-2C143.5,401.1,143.5,398.9,143.4,396.6L143.4,396.6z M132.2,396.4l5.6,3.8l-5.6,3.8
			V396.4z"/>
		<path id="linkedin_4_" class="st1" d="M170.4,394.2h-3.8v13.1h3.8V394.2z M170.4,391.8c0-0.5-0.1-0.9-0.5-1.2
			c-0.4-0.4-0.8-0.5-1.2-0.5c-0.5,0-0.9,0.1-1.2,0.5c-0.4,0.4-0.5,0.8-0.5,1.2s0.1,0.9,0.5,1.2c0.4,0.4,0.8,0.5,1.2,0.5
			c0.5,0,0.9-0.1,1.2-0.5C170.2,392.6,170.4,392.2,170.4,391.8z M183.5,399.4c0-1.9-0.4-3.2-1.2-4c-0.8-0.8-1.6-1.1-2.5-1.1
			c-1.4,0-2.6,0.4-3.8,1.2v-1.2h-3.8v13.1h3.8v-8.1l0.1-0.4c0.1-0.2,0.3-0.5,0.8-0.9c0.4-0.2,0.9-0.4,1.4-0.4c1,0,1.5,0.5,1.5,1.6
			v8.1h3.8L183.5,399.4L183.5,399.4z"/>
		<path id="tripadvisor_4_" class="st1" d="M206.4,394.8c0.3-0.2,0.6-0.6,1.1-0.9c1.5-0.8,3.8-1.2,6.5-1.2c2.6,0,4.6,0.4,6.1,1
			c0.9,0.4,1.4,0.8,1.8,1.2l0.2,0.1h4.1c-0.4,0.4-0.8,1.1-1.1,2c1,1.1,1.4,2.5,1.4,4c0,1.8-0.6,3.2-1.9,4.5
			c-1.3,1.2-2.8,1.9-4.5,1.9c-1,0-1.9-0.2-2.8-0.6s-1.5-1-2.1-1.6l-1.2,2.1l-1.5-2c-0.6,0.8-1.2,1.2-2.1,1.6s-1.8,0.6-2.8,0.6
			c-1.7,0-3.3-0.6-4.4-1.9c-1.2-1.2-1.9-2.8-1.9-4.5c0-1.4,0.4-2.6,1.2-3.8c-0.4-1-0.8-1.8-1.1-2.2h4.4L206.4,394.8 M216.7,397.6
			c-1,1-1.5,2.1-1.5,3.6c0,1.4,0.5,2.6,1.5,3.6c1,1,2.2,1.5,3.6,1.5s2.6-0.5,3.6-1.5c1-1,1.5-2.2,1.5-3.6s-0.5-2.6-1.5-3.6
			c-1-1-2.1-1.5-3.6-1.5C218.9,396.1,217.7,396.6,216.7,397.6 M217.2,401.1c0-0.9,0.3-1.5,0.9-2.1s1.4-0.9,2.1-0.9
			c0.9,0,1.5,0.2,2.1,0.9s0.9,1.2,0.9,2.1s-0.3,1.5-0.9,2.1s-1.4,0.9-2.1,0.9c-0.9,0-1.5-0.2-2.1-0.9
			C217.6,402.8,217.2,402,217.2,401.1 M218.9,399.6c-0.4,0.4-0.6,0.9-0.6,1.5s0.3,1.1,0.6,1.5s0.9,0.6,1.5,0.6
			c0.6,0,1.1-0.2,1.5-0.6c0.4-0.4,0.6-0.9,0.6-1.5s-0.3-1.1-0.6-1.5s-0.9-0.6-1.5-0.6C219.7,399.1,219.2,399.2,218.9,399.6
			 M219.2,401.1c0-0.2,0.1-0.5,0.2-0.8c0.3-0.2,0.5-0.2,0.8-0.2s0.5,0.1,0.8,0.2c0.2,0.1,0.2,0.5,0.2,0.8s-0.1,0.5-0.2,0.8
			c-0.3,0.2-0.5,0.2-0.8,0.2s-0.5-0.1-0.8-0.2C219.4,401.8,219.2,401.5,219.2,401.1 M204.4,397.6c-1,1-1.5,2.1-1.5,3.6
			c0,1.4,0.5,2.6,1.5,3.6c1,1,2.1,1.5,3.6,1.5c1.4,0,2.6-0.5,3.6-1.5s1.5-2.2,1.5-3.6s-0.5-2.6-1.5-3.6c-1-1-2.1-1.5-3.6-1.5
			C206.5,396.1,205.4,396.6,204.4,397.6 M204.9,401.1c0-0.9,0.2-1.5,0.9-2.1c0.6-0.6,1.2-0.9,2.1-0.9c0.9,0,1.5,0.2,2.1,0.9
			s0.9,1.2,0.9,2.1s-0.3,1.5-0.9,2.1s-1.4,0.9-2.1,0.9c-0.9,0-1.5-0.2-2.1-0.9C205.2,402.8,204.9,402,204.9,401.1 M210,401.1
			c0-0.6-0.3-1.1-0.6-1.5s-0.9-0.6-1.5-0.6c-0.6,0-1.1,0.2-1.5,0.6c-0.4,0.4-0.6,0.9-0.6,1.5s0.3,1.1,0.6,1.5s0.9,0.6,1.5,0.6
			c0.6,0,1.1-0.2,1.5-0.6C209.9,402.2,210,401.8,210,401.1 M207.2,400.5c0.3-0.2,0.4-0.2,0.8-0.2c0.2,0,0.5,0.1,0.8,0.2
			c0.3,0.2,0.3,0.5,0.3,0.8s-0.1,0.5-0.3,0.8c-0.3,0.2-0.4,0.2-0.8,0.2c-0.3,0-0.5-0.1-0.8-0.2c-0.3-0.2-0.3-0.4-0.3-0.8
			C206.9,400.9,207,400.6,207.2,400.5 M208.7,395.1c0.6,0,1.2,0.1,1.8,0.4c1.7,0.6,2.9,2,3.6,4.2c0.8-2.1,1.9-3.5,3.6-4.2
			c0.8-0.2,1.4-0.4,2.1-0.4c-0.3-0.1-0.6-0.4-1-0.5c-1.2-0.6-2.8-0.9-4.5-0.9h-0.5c-1.7,0-3.2,0.2-4.5,0.9l-0.9,0.6L208.7,395.1"/>
		<path id="pinterest_4_" class="st1" d="M262.1,397.9c0,1-0.1,2.1-0.5,3.1c-0.4,1.1-1,2.2-1.8,3.1c-0.9,0.9-2,1.5-3.2,1.6
			c-0.6,0.1-1.4,0.1-2-0.1s-1.2-0.5-1.6-1c-0.1-0.1-0.1-0.1-0.3-0.2c-0.1,0.2-0.1,0.5-0.2,0.9c-0.3,0.8-0.4,1.6-0.6,2.4
			c-0.6,2.2-2.2,3.9-2.2,3.9s-0.9-2.1-0.1-5c0.5-2,1-4,1.4-5.9v-0.1c-0.2-0.5-0.4-1.1-0.4-1.6c0-0.8,0.1-1.4,0.5-2
			c0.3-0.5,0.8-1,1.4-1.1s1.1-0.1,1.6,0.4c0.4,0.2,0.5,0.8,0.5,1.1c0,0.5,0,1-0.1,1.5c-0.3,0.8-0.5,1.6-0.8,2.4
			c-0.1,0.4-0.3,0.6-0.3,1c0,0.9,0.6,1.6,1.5,1.9c0.9,0.1,1.5-0.1,2.1-0.6s1-1.1,1.2-1.9c0.4-0.8,0.5-1.6,0.6-2.5
			c0.1-0.6,0.1-1.1,0.1-1.8c-0.1-1.9-1.2-3.4-3.1-3.9c-1.5-0.5-3.1-0.4-4.6,0.4c-1.6,0.8-2.5,2-3,3.6c-0.3,0.8-0.3,1.4-0.1,2.1
			c0.1,0.6,0.4,1.1,0.8,1.6l0.1,0.1c0.1,0.1,0.1,0.2,0.1,0.4c-0.1,0.4-0.1,0.8-0.3,1s-0.4,0.4-0.6,0.2c-0.8-0.2-1.2-0.9-1.8-1.5
			c-0.4-0.6-0.6-1.4-0.6-2.1c-0.1-0.5-0.1-1.1,0-1.6c0.1-0.9,0.3-1.6,0.6-2.4c1.1-2.1,2.8-3.5,5.1-4.1c0.8-0.2,1.5-0.4,2.4-0.4
			c1.1,0,2.2,0.1,3.4,0.5c1.9,0.8,3.2,2,4.1,3.9C262,396.1,262.1,397,262.1,397.9z"/>
		<g>
			<path class="st1" d="M294.1,395.6c-2.5,0-4.5,2-4.5,4.5c0,2.5,2,4.5,4.5,4.5s4.5-2,4.5-4.5C298.6,397.6,296.6,395.6,294.1,395.6z
				 M294.1,403c-1.6,0-2.9-1.3-2.9-2.9c0-1.6,1.3-2.9,2.9-2.9c1.6,0,2.9,1.3,2.9,2.9C297,401.7,295.7,403,294.1,403z"/>
			<circle class="st1" cx="298.8" cy="395.5" r="1.1"/>
			<path class="st1" d="M302.8,396.5c-0.1-3.2-1.9-4.9-5.1-5.1c-0.9,0-1.2-0.1-3.6-0.1c-2.4,0-2.7,0-3.6,0.1
				c-3.2,0.1-4.9,1.9-5.1,5.1c0,0.9-0.1,1.2-0.1,3.6c0,2.4,0,2.7,0.1,3.6c0.1,3.2,1.9,4.9,5.1,5.1c0.9,0,1.2,0.1,3.6,0.1
				c2.4,0,2.7,0,3.6-0.1c3.2-0.1,4.9-1.9,5.1-5.1c0-0.9,0.1-1.2,0.1-3.6C302.9,397.7,302.9,397.5,302.8,396.5z M301.2,403.7
				c-0.1,2.4-1.2,3.5-3.6,3.6c-0.9,0-1.2,0.1-3.5,0.1c-2.3,0-2.6,0-3.5-0.1c-2.4-0.1-3.5-1.2-3.6-3.6c0-0.9-0.1-1.2-0.1-3.5
				c0-2.3,0-2.6,0.1-3.5c0.1-2.4,1.2-3.5,3.6-3.6c0.9,0,1.2,0,3.5,0s2.6,0,3.5,0c2.4,0.1,3.5,1.2,3.6,3.6c0,0.9,0.1,1.2,0.1,3.5
				C301.3,402.5,301.3,402.7,301.2,403.7z"/>
		</g>
		<path class="st1" d="M327.6,409.2c-1.4,0-2.6-1.2-2.6-2.6c0-1.4,1.2-2.6,2.6-2.6c1.4,0,2.6,1.2,2.6,2.6
			C330.3,408.1,329.1,409.2,327.6,409.2z M336.9,409.2h-3.3c-0.3,0-0.5-0.2-0.5-0.5c0-2-0.8-4-2.2-5.4c-1.4-1.4-3.4-2.2-5.4-2.2
			c-0.3,0-0.5-0.2-0.5-0.5v-3.3c0-0.2,0.2-0.5,0.5-0.5c6.5,0,11.9,5.3,11.9,11.9C337.3,409,337.1,409.2,336.9,409.2z M342.8,409.2
			h-3.3c-0.3,0-0.5-0.2-0.5-0.5c0-7.5-6.1-13.5-13.5-13.5c-0.3,0-0.5-0.2-0.5-0.5v-3.3c0-0.2,0.2-0.5,0.5-0.5
			c9.8,0,17.7,8,17.7,17.7C343.2,409,343,409.2,342.8,409.2z"/>
		<path id="svg_2_3_" class="st1" d="M369.5,396.8c0.9,0.1,1.6,0.5,2.2,1.2c0.8,0.8,1.1,1.6,1.2,2.7c0.1,1.3-0.3,2.3-1.2,3.2
			c-0.7,0.7-1.5,1.1-2.5,1.2c-1,0.1-1.9-0.2-2.7-0.7c-0.9-0.7-1.5-1.5-1.7-2.5c-0.1-0.4-0.1-1.1-0.1-1.5c0.1-1,0.5-1.7,1.2-2.4
			c0.6-0.6,1.3-1,2.1-1.1C368.5,396.7,369.2,396.7,369.5,396.8z M380.4,396.8c0.7,0.2,1.3,0.5,1.8,1.1c0.8,0.8,1.2,1.6,1.2,2.8
			c0,0.8-0.1,1.6-0.5,2.3c-0.4,0.7-1.2,1.4-1.9,1.8c-0.8,0.4-1.8,0.4-2.7,0.2c-1-0.3-2-1.1-2.5-2.1c-0.3-0.6-0.4-1.2-0.4-1.9
			c0-1.1,0.4-2.1,1.1-2.9c0.6-0.7,1.4-1.1,2.2-1.2c0.2,0,0.5,0,0.8,0C380,396.7,380.1,396.7,380.4,396.8z"/>
		<path class="st1" d="M423.1,405.6c0,0.4-0.2,0.8-0.5,1.1s-0.7,0.5-1.1,0.5h-14.7c-0.4,0-0.8-0.2-1.1-0.5c-0.3-0.3-0.5-0.7-0.5-1.1
			v-7.9c0.3,0.3,0.6,0.6,1,0.9c2.4,1.6,4.1,2.8,5,3.4c0.4,0.3,0.7,0.5,0.9,0.7c0.2,0.2,0.6,0.3,0.9,0.5c0.4,0.2,0.8,0.2,1.1,0.2h0h0
			c0.3,0,0.7-0.1,1.1-0.2c0.4-0.2,0.7-0.3,0.9-0.5c0.2-0.2,0.5-0.4,0.9-0.7c1.1-0.8,2.8-2,5-3.4c0.4-0.3,0.7-0.5,1-0.9V405.6z
			 M422.6,396.2c-0.3,0.5-0.7,0.9-1.2,1.2c-2.5,1.7-4.1,2.8-4.7,3.2c-0.1,0-0.2,0.1-0.4,0.3c-0.2,0.2-0.4,0.3-0.5,0.4
			c-0.1,0.1-0.3,0.2-0.5,0.3c-0.2,0.1-0.4,0.2-0.6,0.3c-0.2,0.1-0.3,0.1-0.5,0.1h0h0c-0.2,0-0.3,0-0.5-0.1c-0.2-0.1-0.4-0.2-0.6-0.3
			c-0.2-0.1-0.4-0.2-0.5-0.3c-0.1-0.1-0.3-0.2-0.5-0.4c-0.2-0.2-0.4-0.3-0.4-0.3c-0.6-0.4-1.5-1-2.6-1.8c-1.1-0.8-1.8-1.3-2-1.4
			c-0.4-0.3-0.8-0.7-1.2-1.2c-0.4-0.5-0.5-0.9-0.5-1.4c0-0.5,0.1-1,0.4-1.3c0.3-0.3,0.7-0.5,1.2-0.5h14.7c0.4,0,0.8,0.2,1.1,0.5
			c0.3,0.3,0.5,0.7,0.5,1.1C423.1,395.2,422.9,395.7,422.6,396.2z"/>
		<g>
			<path class="st1" d="M13,392.1c-0.5,0.6-0.8,1.8-0.8,3.1v1.9H10v3h2.2v9h3.4v-9h2.5l0.2-3.1h-2.8v-1.5c0-0.5,0.1-0.8,0.2-1
				s0.5-0.2,1-0.2h1.5v-3.1h-2.5C14.5,391.1,13.5,391.5,13,392.1z"/>
		</g>
	</g>
</g>
</svg>
