<?xml version="1.0" encoding="utf-8"?>
<!-- Generator: Adobe Illustrator 19.2.1, SVG Export Plug-In . SVG Version: 6.00 Build 0)  -->
<svg version="1.1" xmlns="http://www.w3.org/2000/svg" xmlns:xlink="http://www.w3.org/1999/xlink" x="0px" y="0px" width="679px"
	 height="261px" viewBox="0 0 679 261" style="enable-background:new 0 0 679 261;" xml:space="preserve">
<g id="Guides">
</g>
<g id="Elements">
	<polygon style="fill:#6DC7C7;" points="45.5,7.5 38,0 37,1 44.5,8.5 37,16 38,17 45.5,9.5 53,17 54,16 46.5,8.5 54,1 53,0 	"/>
	<polygon style="fill:#F7FCFC;" points="8.5,7.5 1,0 0,1 7.5,8.5 0,16 1,17 8.5,9.5 16,17 17,16 9.5,8.5 17,1 16,0 	"/>
	<polygon style="fill:#458D8D;" points="82.5,7.6 75.4,0.5 74.5,1.4 81.6,8.5 74.5,15.6 75.4,16.5 82.5,9.4 89.6,16.5 90.5,15.6 
		83.4,8.5 90.5,1.4 89.6,0.5 	"/>
	<polygon style="fill:#6DC7C7;" points="82,38 81,37 51,67 51,68 81,98 82,97 52.5,67.5 	"/>
	<polygon style="fill:#F7FCFC;" points="31,38 30,37 0,67 0,68 30,98 31,97 1.5,67.5 	"/>
	<polygon style="fill:#458D8D;" points="132,39.9 131.1,39 103,67 103,68 131.1,96 132,95.1 104.4,67.5 	"/>
	<polygon style="fill:#458D8D;" points="103,176.1 103.9,177 132,149 132,148 103.9,120 103,120.9 130.6,148.5 	"/>
	<polygon style="fill:#6DC7C7;" points="51,178 52,179 82,149 82,148 52,118 51,119 80.5,148.5 	"/>
	<polygon style="fill:#F7FCFC;" points="0,178 1,179 31,149 31,148 1,118 0,119 29.5,148.5 	"/>
	<polygon style="fill:#F7FCFC;" points="11,199.5 10.5,199 0,209.5 10.5,220 11,219.5 1,209.5 	"/>
	<path style="fill:#327D7D;" d="M405,16c-0.4-1.8-1-3.3-1.8-4.7c-0.6-1-1.3-2-1.9-3c-0.2-0.3-0.4-0.7-0.6-1
		c-0.4-0.7-0.7-1.5-0.7-2.5c0-1,0.3-1.8,0.7-2.5c0.7-1.1,1.9-2,3.5-2.2c1.3-0.2,2.5,0.1,3.4,0.6c0.7,0.4,1.2,0.9,1.7,1.6
		c0.4,0.7,0.7,1.5,0.8,2.5c0,0.5-0.1,1-0.2,1.4c-0.1,0.4-0.3,0.8-0.5,1.1c-0.3,0.7-0.8,1.4-1.2,2C406.8,11.3,405.5,13.3,405,16"/>
	<path style="fill:#327D7D;" d="M200,0h4v4h-4V0z M205,4h4V0h-4V4z M210,4h4V0h-4V4z M215,4h4V0h-4V4z M200,11h4V7h-4V11z M205,11h4
		V7h-4V11z M210,11h4V7h-4V11z M215,11h4V7h-4V11z M200,18h4v-4h-4V18z M205,18h4v-4h-4V18z M210,18h4v-4h-4V18z M215,18h4v-4h-4V18
		z"/>
	<path style="fill:#327D7D;" d="M200,38h4v4h-4V38z M200,49h4v-4h-4V49z M200,56h4v-4h-4V56z M206,42h14v-4h-14V42z M206,49h14v-4
		h-14V49z M206,56h14v-4h-14V56z"/>
	<path style="fill:#54BABA;" d="M240,38h4v4h-4V38z M240,49h4v-4h-4V49z M240,56h4v-4h-4V56z M246,42h14v-4h-14V42z M246,49h14v-4
		h-14V49z M246,56h14v-4h-14V56z"/>
	<path style="fill:#54BABA;" d="M240,0h4v4h-4V0z M245,4h4V0h-4V4z M250,4h4V0h-4V4z M255,4h4V0h-4V4z M240,11h4V7h-4V11z M245,11h4
		V7h-4V11z M250,11h4V7h-4V11z M255,11h4V7h-4V11z M240,18h4v-4h-4V18z M245,18h4v-4h-4V18z M250,18h4v-4h-4V18z M255,18h4v-4h-4V18
		z"/>
	<path style="fill:#327D7D;" d="M204,83h3v3h-3V83z M208,86h3v-3h-3V86z M212,86h3v-3h-3V86z M204,91h3v-3h-3V91z M208,91h3v-3h-3
		V91z M220,76v5v8v5v2h-2h-4h-12h-2v-2V81v-5h2h16H220z M214,89h4v-8h-16v13h12V89z M218.8,90H215v4.5L218.8,90z"/>
	<path style="fill:#54BABA;" d="M244,83h3v3h-3V83z M248,86h3v-3h-3V86z M252,86h3v-3h-3V86z M244,91h3v-3h-3V91z M248,91h3v-3h-3
		V91z M260,76v5v8v5v2h-2h-4h-12h-2v-2V81v-5h2h16H260z M254,89h4v-8h-16v13h12V89z M258.8,90H255v4.5L258.8,90z"/>
	<path style="fill:#327D7D;" d="M205,129h10v1h-10V129z M205,132h8v-1h-8V132z M220,120v10h-2v4v2h-2h-12h-2v-2v-4h-2v-10h2v-2v-2h2
		h12h2v2v2H220z M216,128h-12v2v4h12v-4V128z M216,118h-12v2h12V118z M219,122h-1v1h1V122z"/>
	<path style="fill:#54BABA;" d="M245,129h10v1h-10V129z M245,132h8v-1h-8V132z M260,120v10h-2v4v2h-2h-12h-2v-2v-4h-2v-10h2v-2v-2h2
		h12h2v2v2H260z M256,128h-12v2v4h12v-4V128z M256,118h-12v2h12V118z M259,122h-1v1h1V122z"/>
	<g>
		<path style="fill:#327D7D;" d="M200,176h20v-20h-20V176z M205,173c-1.1,0-2-0.9-2-2s0.9-2,2-2s2,0.9,2,2S206.1,173,205,173
			 M210,173c0-3.9-3.1-7-7-7v-2.5c5.2,0,9.5,4.3,9.5,9.5H210z M214.5,173c0-6.4-5.1-11.5-11.5-11.5V159c7.7,0,14,6.3,14,14H214.5z"
			/>
	</g>
	<g>
		<path style="fill:#54BABA;" d="M240,176h20v-20h-20V176z M245,173c-1.1,0-2-0.9-2-2s0.9-2,2-2s2,0.9,2,2S246.1,173,245,173
			 M250,173c0-3.9-3.1-7-7-7v-2.5c5.2,0,9.5,4.3,9.5,9.5H250z M254.5,173c0-6.4-5.1-11.5-11.5-11.5V159c7.7,0,14,6.3,14,14H254.5z"
			/>
	</g>
	<polygon style="fill:#FFFFFF;" points="641.6,1.6 641.6,4.9 644.9,4.9 644.9,14.4 635,14.4 635,1.6 	"/>
	<polygon style="fill:#FFFFFF;" points="608.6,1.6 608.6,4.9 612,4.9 612,14.4 602,14.4 602,1.6 	"/>
	<path id="pdf-file-4-icon_4_" style="fill:#D42839;" d="M608.1,1.6v3.3h3.3v9.6h-9.9V1.6H608.1z M609.1,0H600v16h13V3.9L609.1,0z
		 M604.7,11.4c-0.2,0.1-0.5,0.3-0.6,0.4c-0.2,0.3-0.1,0.5,0.2,0.2C604.4,11.9,604.6,11.6,604.7,11.4z M608.2,10.5
		c0.2,0.1,0.4,0.3,0.7,0.3c0.3,0,0.3-0.2-0.1-0.3C608.7,10.4,608.5,10.4,608.2,10.5z M605.9,10.4c0.3-0.1,0.8-0.2,1-0.2
		c0,0-0.4-0.4-0.5-0.7C606.2,9.7,605.9,10.3,605.9,10.4z M606.2,7.2c0,0.2,0,0.6,0.1,0.8c0.1-0.2,0.2-0.6,0.2-0.9
		C606.4,7,606.2,7,606.2,7.2z M603.8,11.4c0.3-0.3,0.7-0.5,1.4-0.8c0.3-0.6,0.6-1.2,0.8-1.8c-0.2-0.4-0.3-0.8-0.4-1.3
		c-0.2-1.6,1.6-1.5,1.4,0c-0.1,0.3-0.2,0.7-0.4,1.2c0.3,0.5,0.7,0.9,1,1.2c0.4-0.1,1-0.1,1.4-0.1c1.1,0.2,1,1.4,0,1.4
		c-0.5,0-1.2-0.4-1.6-0.7c-0.6,0.1-1.3,0.3-1.8,0.5c-0.2,0.3-0.4,0.8-0.6,1.1C604,13.5,602.8,12.3,603.8,11.4z"/>
	<path id="pdf-file-4-icon_1_" style="fill:#E35266;" d="M641.1,1.6v3.3h3.3v9.6h-9.9V1.6H641.1z M642.1,0H633v16h13V3.9L642.1,0z
		 M636.8,11.4c0.3-0.3,0.7-0.5,1.4-0.8c0.3-0.6,0.6-1.2,0.8-1.8c-0.2-0.4-0.3-0.8-0.4-1.3c-0.2-1.6,1.6-1.5,1.4,0
		c-0.1,0.3-0.2,0.7-0.4,1.2c0.3,0.5,0.7,0.9,1,1.2c0.4-0.1,1-0.1,1.4-0.1c1.1,0.2,1,1.4,0,1.4c-0.5,0-1.2-0.4-1.6-0.7
		c-0.6,0.1-1.3,0.3-1.8,0.5c-0.2,0.3-0.4,0.8-0.6,1.1C637,13.5,635.8,12.3,636.8,11.4z M637.7,11.4c-0.2,0.1-0.5,0.3-0.6,0.4
		c-0.2,0.3-0.1,0.5,0.2,0.2C637.4,11.9,637.6,11.6,637.7,11.4z M641.2,10.5c0.2,0.1,0.4,0.3,0.7,0.3c0.3,0,0.3-0.2-0.1-0.3
		C641.7,10.4,641.5,10.4,641.2,10.5z M638.9,10.4c0.3-0.1,0.8-0.2,1-0.2c0,0-0.4-0.4-0.5-0.7C639.2,9.7,638.9,10.3,638.9,10.4z
		 M639.2,7.2c0,0.2,0,0.6,0.1,0.8c0.1-0.2,0.2-0.6,0.2-0.9C639.4,7,639.2,7,639.2,7.2z"/>
	<polygon style="fill:#6DC7C7;" points="42,199.5 41.5,199 31,209.5 41.5,220 42,219.5 32,209.5 	"/>
	<polygon style="fill:#458D8D;" points="72,201.4 71.6,201 63,209.5 71.6,218 72,217.6 63.9,209.5 	"/>
	<polygon style="fill:#458D8D;" points="63,258.6 63.4,259 72,250.5 63.4,242 63,242.4 71.1,250.5 	"/>
	<polygon style="fill:#6DC7C7;" points="31,260.5 31.5,261 42,250.5 31.5,240 31,240.5 41,250.5 	"/>
	<polygon style="fill:#F7FCFC;" points="0,260.5 0.5,261 11,250.5 0.5,240 0,240.5 10,250.5 	"/>
	<path style="fill:#1F4D4D;" d="M280,38h4v4h-4V38z M280,49h4v-4h-4V49z M280,56h4v-4h-4V56z M286,42h14v-4h-14V42z M286,49h14v-4
		h-14V49z M286,56h14v-4h-14V56z"/>
	<path style="fill:#1F4D4D;" d="M280,0h4v4h-4V0z M285,4h4V0h-4V4z M290,4h4V0h-4V4z M295,4h4V0h-4V4z M280,11h4V7h-4V11z M285,11h4
		V7h-4V11z M290,11h4V7h-4V11z M295,11h4V7h-4V11z M280,18h4v-4h-4V18z M285,18h4v-4h-4V18z M290,18h4v-4h-4V18z M295,18h4v-4h-4V18
		z"/>
	<path style="fill:#1F4D4D;" d="M284,83h3v3h-3V83z M288,86h3v-3h-3V86z M292,86h3v-3h-3V86z M284,91h3v-3h-3V91z M288,91h3v-3h-3
		V91z M300,76v5v8v5v2h-2h-4h-12h-2v-2V81v-5h2h16H300z M294,89h4v-8h-16v13h12V89z M298.8,90H295v4.5L298.8,90z"/>
	<path style="fill:#1F4D4D;" d="M285,129h10v1h-10V129z M285,132h8v-1h-8V132z M300,120v10h-2v4v2h-2h-12h-2v-2v-4h-2v-10h2v-2v-2h2
		h12h2v2v2H300z M296,128h-12v2v4h12v-4V128z M296,118h-12v2h12V118z M299,122h-1v1h1V122z"/>
	<g>
		<path style="fill:#1F4D4D;" d="M280,176h20v-20h-20V176z M285,173c-1.1,0-2-0.9-2-2s0.9-2,2-2s2,0.9,2,2S286.1,173,285,173
			 M290,173c0-3.9-3.1-7-7-7v-2.5c5.2,0,9.5,4.3,9.5,9.5H290z M294.5,173c0-6.4-5.1-11.5-11.5-11.5V159c7.7,0,14,6.3,14,14H294.5z"
			/>
	</g>
	<path style="fill:#54BABA;" d="M435,16c-0.4-1.8-1-3.3-1.8-4.7c-0.6-1-1.3-2-1.9-3c-0.2-0.3-0.4-0.7-0.6-1
		c-0.4-0.7-0.7-1.5-0.7-2.5c0-1,0.3-1.8,0.7-2.5c0.7-1.1,1.9-2,3.5-2.2c1.3-0.2,2.5,0.1,3.4,0.6c0.7,0.4,1.2,0.9,1.7,1.6
		c0.4,0.7,0.7,1.5,0.8,2.5c0,0.5-0.1,1-0.2,1.4c-0.1,0.4-0.3,0.8-0.5,1.1c-0.3,0.7-0.8,1.4-1.2,2C436.8,11.3,435.5,13.3,435,16"/>
	<path style="fill:#1F4D4D;" d="M465,16c-0.4-1.8-1-3.3-1.8-4.7c-0.6-1-1.3-2-1.9-3c-0.2-0.3-0.4-0.7-0.6-1
		c-0.4-0.7-0.7-1.5-0.7-2.5c0-1,0.3-1.8,0.7-2.5c0.7-1.1,1.9-2,3.5-2.2c1.3-0.2,2.5,0.1,3.4,0.6c0.7,0.4,1.2,0.9,1.7,1.6
		c0.4,0.7,0.7,1.5,0.8,2.5c0,0.5-0.1,1-0.2,1.4c-0.1,0.4-0.3,0.8-0.5,1.1c-0.3,0.7-0.8,1.4-1.2,2C466.8,11.3,465.5,13.3,465,16"/>
	<path id="pdf-file-4-icon_2_" style="fill:#A32E47;" d="M674.1,1.6v3.3h3.3v9.6h-9.9V1.6H674.1z M675.1,0H666v16h13V3.9L675.1,0z
		 M669.8,11.4c0.3-0.3,0.7-0.5,1.4-0.8c0.3-0.6,0.6-1.2,0.8-1.8c-0.2-0.4-0.3-0.8-0.4-1.3c-0.2-1.6,1.6-1.5,1.4,0
		c-0.1,0.3-0.2,0.7-0.4,1.2c0.3,0.5,0.7,0.9,1,1.2c0.4-0.1,1-0.1,1.4-0.1c1.1,0.2,1,1.4,0,1.4c-0.5,0-1.2-0.4-1.6-0.7
		c-0.6,0.1-1.3,0.3-1.8,0.5c-0.2,0.3-0.4,0.8-0.6,1.1C670,13.5,668.8,12.3,669.8,11.4z M670.7,11.4c-0.2,0.1-0.5,0.3-0.6,0.4
		c-0.2,0.3-0.1,0.5,0.2,0.2C670.4,11.9,670.6,11.6,670.7,11.4z M674.2,10.5c0.2,0.1,0.4,0.3,0.7,0.3c0.3,0,0.3-0.2-0.1-0.3
		C674.7,10.4,674.5,10.4,674.2,10.5z M671.9,10.4c0.3-0.1,0.8-0.2,1-0.2c0,0-0.4-0.4-0.5-0.7C672.2,9.7,671.9,10.3,671.9,10.4z
		 M672.2,7.2c0,0.2,0,0.6,0.1,0.8c0.1-0.2,0.2-0.6,0.2-0.9C672.4,7,672.2,7,672.2,7.2z"/>
	<polygon style="fill:#327D7D;" points="210.7,212.6 203.1,205 210.7,197.4 209.3,196 200.3,205 209.3,214 	"/>
	<polygon style="fill:#54BABA;" points="241.7,212.6 234.1,205 241.7,197.4 240.3,196 231.3,205 240.3,214 	"/>
	<polygon style="fill:#1F4D4D;" points="272.7,212.6 265.1,205 272.7,197.4 271.3,196 262.3,205 271.3,214 	"/>
	<polygon style="fill:#327D7D;" points="200.3,235.4 207.9,243 200.3,250.6 201.7,252 210.7,243 201.7,234 	"/>
	<polygon style="fill:#54BABA;" points="231.3,235.4 238.9,243 231.3,250.6 232.7,252 241.7,243 232.7,234 	"/>
	<polygon style="fill:#1F4D4D;" points="262.3,235.4 269.9,243 262.3,250.6 263.7,252 272.7,243 263.7,234 	"/>
	<path style="fill:#FFFFFF;" d="M605.1,42.8c-0.6,0-1.1,0.2-1.6,0.6c-0.4,0.4-0.6,0.9-0.6,1.5c0,0.6,0.2,1.1,0.6,1.5
		c0.4,0.4,0.9,0.6,1.6,0.6c0.6,0,1.1-0.2,1.6-0.6c0.4-0.4,0.6-0.9,0.6-1.5c0-0.6-0.2-1.1-0.6-1.5C606.3,43,605.7,42.8,605.1,42.8z
		 M614.3,44.6l-5.9,5.7l-1.8-1.8l-3.7,3.5v2.1h16.1v-5L614.3,44.6z M620.4,41.5c0.1,0.1,0.1,0.2,0.1,0.2v13.5c0,0.1,0,0.2-0.1,0.2
		c-0.1,0.1-0.2,0.1-0.3,0.1h-18.3c-0.1,0-0.2,0-0.3-0.1c-0.1-0.1-0.1-0.2-0.1-0.2V41.8c0-0.1,0-0.2,0.1-0.2c0.1-0.1,0.2-0.1,0.3-0.1
		h18.3C620.3,41.4,620.4,41.5,620.4,41.5z M621.5,40.5c-0.4-0.3-0.8-0.5-1.3-0.5h-18.3c-0.5,0-0.9,0.2-1.3,0.5
		c-0.4,0.3-0.5,0.8-0.5,1.3v13.5c0,0.5,0.2,0.9,0.5,1.3c0.4,0.3,0.8,0.5,1.3,0.5h18.3c0.5,0,0.9-0.2,1.3-0.5
		c0.4-0.3,0.5-0.8,0.5-1.3V41.8C622,41.3,621.8,40.9,621.5,40.5z"/>
	<path id="down_5_" style="fill:#54BABA;" d="M649.5,40c-5.2,0-9.5,4.3-9.5,9.5s4.3,9.5,9.5,9.5s9.5-4.3,9.5-9.5S654.7,40,649.5,40z
		 M649.5,41.8c4.3,0,7.7,3.5,7.7,7.7s-3.5,7.7-7.7,7.7c-4.3,0-7.7-3.5-7.7-7.7S645.2,41.8,649.5,41.8z M649.2,52.5l2.7-4.7h-5.3
		L649.2,52.5"/>
</g>
</svg>
